<?xml version="1.0" encoding="utf-8"?>
<!-- Generator: Adobe Illustrator 16.0.3, SVG Export Plug-In . SVG Version: 6.00 Build 0)  -->
<!DOCTYPE svg PUBLIC "-//W3C//DTD SVG 1.1 Tiny//EN" "http://www.w3.org/Graphics/SVG/1.1/DTD/svg11-tiny.dtd">
<svg version="1.1" baseProfile="tiny" id="Capa_1" xmlns="http://www.w3.org/2000/svg" xmlns:xlink="http://www.w3.org/1999/xlink"
	 x="0px" y="0px" width="538px" height="168px" viewBox="0 0 538 168" overflow="scroll" xml:space="preserve">
<path fill-rule="evenodd" fill="#169451" stroke="#FFFFFF" stroke-miterlimit="10" d="M87.847,5.328
	c0,14.132-0.048,28.266,0.047,42.398c0.016,2.357-1.438,3.611-2.764,5.042C73.813,64.986,62.478,77.186,51.144,89.386
	c-5.693,6.127-5.701,7.916-0.003,14.252c3.675,4.088,7.269,8.255,11.062,12.231c4.642,4.865,6.919,4.99,11.754,0.452
	c5.345-5.017,10.546-10.193,15.643-15.462c1.686-1.744,2.647-1.765,4.348-0.03c5.949,6.067,12.022,12.017,18.149,17.906
	c1.623,1.559,1.976,2.517,0.188,4.354c-11.389,11.694-22.571,23.591-33.964,35.282c-6.977,7.16-13.926,7.17-20.733-0.146
	c-15.311-16.457-30.433-33.088-45.609-49.669c-1.007-1.1-1.868-2.343-2.73-3.565c-5.26-7.464-5.141-12.161,1.089-19.203
	c5.515-6.234,11.364-12.174,17.098-18.213c19.38-20.415,38.778-40.813,58.145-61.24c0.444-0.468,0.604-1.205,0.897-1.816
	C86.933,4.789,87.39,5.059,87.847,5.328z"/>
<path fill-rule="evenodd" fill="#169451" stroke="#FFFFFF" stroke-miterlimit="10" d="M331.795,110.207
	c45.633,0.056,91.221,1.718,136.788,4.006c17.122,0.859,34.23,2.011,51.337,3.148c1.646,0.109,4.659-0.721,4.105,2.653
	c-0.479,2.916-2.899,1.314-4.452,1.261c-30.614-1.072-61.227-2.15-91.836-3.341c-43.452-1.691-86.919-2.11-130.397-1.678
	c-50.783,0.505-101.516,2.457-152.231,4.992c-1.5,0.075-4.016,1.705-4.029-1.684c-0.012-2.979,2.57-2.109,4.101-2.214
	c36.038-2.455,72.096-4.546,108.203-5.706C279.515,110.807,305.65,110.206,331.795,110.207z"/>
<path fill-rule="evenodd" fill="#374E99" stroke="#FFFFFF" stroke-miterlimit="10" d="M419.668,151.099
	c-2.694,2.05-4.771,4.32-7.834,5.004c-5.91,1.32-8.667-1.451-7.401-7.339c0.288-1.34,2.204-3.2-0.632-3.922
	c-2.101-0.534-3.452,0.489-3.992,2.678c-0.557,2.259-1.181,4.517-2.014,6.683c-0.483,1.258-1.517,2.382-3.114,1.759
	c-1.54-0.599-0.623-1.93-0.693-3.01c-0.206-3.12,4.816-5.855,0.695-9.264c-0.07-0.059,0.159-0.76,0.367-0.835
	c5.92-2.134,5.042-8.806,8.446-12.663c2.195-2.488,3.916-5.365,6.907-7.093c3.415-1.974,4.735,0.809,6.402,2.752
	c0.186,0.216,0.037,0.98-0.214,1.253c-0.508,0.553-1.243,0.48-1.797,0.019c-2.749-2.294-4.243-0.182-5.64,1.693
	c-2.796,3.753-4.889,7.902-6.784,12.783c2.117,0.13,4.098,1.783,5.729-0.514c2.202-3.102,4.815-3.852,8.201-2.196
	c1.428,0.699,1.948,1.818,1.467,3.28c-1.139,3.454-2.829,6.441-6.871,7.081c-1.186,0.188-2.862-0.574-2.88,1.621
	c-0.009,1.149-0.201,2.403,0.954,3.176c1.113,0.743,2.348,0.394,3.339-0.142c4.76-2.572,8.21-6.591,10.539-11.288
	c2.725-5.495,4.851-11.298,7.04-17.044c1.009-2.649,2.428-3.921,5.237-2.785c2.72,1.099,3.182,2.979,2.055,5.628
	c-2.362,5.559-5.536,10.612-9.144,15.421c-1.099,1.465-2.45,2.795-3.27,4.4c-0.91,1.778-1.497,4.175,0.33,5.488
	c1.991,1.433,3.2-0.866,4.461-2.056c1.779-1.68,2.207-4.032,2.958-6.235c0.58-1.697,0.993-3.616,2.968-4.377
	c0.92-0.354,1.958-0.777,2.8,0.1c0.736,0.766,0.027,1.568-0.247,2.271c-0.907,2.321-1.973,4.583-2.849,6.915
	c-0.333,0.885-0.763,2.132,0.278,2.729c0.899,0.515,1.854-0.158,2.721-0.747c3.671-2.498,4.396-6.979,6.98-10.21
	c2.383-2.978,4.974-4.944,8.979-2.989c1.13,0.551,1.976,1.215,2.091,2.535c0.188,2.159-0.653,3.916-2.234,5.308
	c-0.646,0.569-1.577,0.829-2.29,0.222c-2.134-1.813,0.794-3.622,0.021-5.807c-3.762,2.397-5.74,5.836-6.737,9.872
	c-0.894,3.621,0.984,4.795,4.107,3.572c3.997-1.565,7.061-4.326,8.658-8.492c0.588-1.535,1.189-3.115,2.098-4.464
	c0.782-1.161,2.321-1.651,3.555-0.988c1.508,0.812,0.302,2.021-0.097,3.018c-0.927,2.315-1.917,4.605-2.835,6.923
	c-0.307,0.775-0.57,1.833,0.285,2.225c0.599,0.273,1.702,0.056,2.282-0.359c1.904-1.365,3.186-3.298,4.592-5.176
	c2.459-3.286,4.33-7.991,10.096-5.937c1.677,0.597,1.746-1.157,2.189-2.049c1.557-3.124,2.926-6.341,4.477-9.468
	c0.698-1.404,1.871-2.694,3.571-1.827c2.224,1.135,0.403,2.602-0.201,3.659c-3.232,5.651-6.205,11.404-7.781,17.767
	c-0.274,1.11-1.659,2.765,0.337,3.322c1.624,0.453,2.063-1.395,2.446-2.59c0.887-2.764,2.457-5.099,4.298-7.258
	c3.616-4.239,8.238-4.946,12.879-2.189c1.967,1.169,0.572,2.299,0.029,3.309c-1.391,2.586-2.97,5.078-3.533,8.885
	c4.173-2.394,6.256-5.783,8.932-8.514c2.13-2.174,4.082-4.517,7.671-3.295c2.245,0.764,2.325-1.31,2.923-2.493
	c1.501-2.968,2.813-6.031,4.319-8.998c0.739-1.455,2.081-2.509,3.665-1.51c1.686,1.063,0.258,2.406-0.341,3.424
	c-3.56,6.053-6.538,12.348-8.304,19.167c-0.156,0.606-0.021,1.289-0.021,1.865c2.121,1.226,2.619-1.927,4.38-1.36
	c-1.51,4.623-3.644,5.924-7.091,3.479c-2.202-1.563-2.589,0.161-3.475,0.941c-2.646,2.331-5.078,3.359-7.323-0.425
	c-0.474-0.798-0.823-1.992-2.16-1.061c-2.379,1.657-4.559,1.988-6.377-0.823c-0.236-0.364-0.806-0.819-1.204-0.244
	c-3.099,4.469-7.9,2.962-11.665,2.413c-3.92-0.572-7.089-0.845-9.997,2.062c-0.1,0.1-0.389,0.171-0.465,0.107
	c-3.326-2.789-7.719-1.574-11.221-2.983c-2.043-0.823-2.876-1.746-5.076-0.215c-3.892,2.712-8.187,3.969-12.034-0.434
	c-0.11-0.126-0.313-0.363-0.323-0.355c-3.639,2.812-8.053-0.104-11.526,1.27C424.013,157.415,422.372,157.231,419.668,151.099z
	 M513.522,144.607c0.146-1.998-1.271-1.808-2.162-1.134c-3.394,2.562-5.824,5.888-6.597,10.148c-0.286,1.58,0.868,2.318,2.111,1.334
	C510.222,152.303,511.904,148.484,513.522,144.607z M476.604,143.098c-2.59-0.078-8.614,9.042-7.465,11.331
	c0.644,1.28,1.703,0.937,2.426,0.257c2.937-2.765,4.63-6.331,6.149-9.989C478.178,143.582,477.539,143.237,476.604,143.098z
	 M495.494,142.503c-5.514,1.806-8.688,6.063-9,12C490.778,151.232,493.989,147.879,495.494,142.503z M434.071,125.773
	c-2.216,3.747-4.748,7.354-5.071,11.937C431.45,134.067,434.068,130.499,434.071,125.773z M413.713,140.902
	c-2.586,1.523-4.126,3.009-4.051,5.558c0.018,0.615,0.77,1.207,1.446,0.849C413.369,146.113,414.136,144.15,413.713,140.902z"/>
<path fill-rule="evenodd" fill="#374E99" stroke="#FFFFFF" stroke-miterlimit="10" d="M352.921,93.555
	c0,2.831-0.201,5.68,0.05,8.488c0.336,3.756-1.92,4.385-4.648,3.888c-4.271-0.778-7.315-3.081-7.742-7.845
	c-0.493-5.492-0.397-10.967,0.342-16.433c1.621-11.971,16.162-18.009,25.529-10.316c2.614,2.146,3.76,1.695,6.045-0.14
	c8.482-6.814,21.248-2.08,23.416,8.604c1.535,7.574,0.835,15.255,0.722,22.904c-0.027,1.836-0.904,2.769-2.592,3.06
	c-2.974,0.514-5.723-0.039-7.696-2.43c-1.641-1.984-2.098-4.461-2.098-7.029c-0.001-4.162-0.127-8.324-0.097-12.485
	c0.023-3.163-1.358-5.438-4.539-5.328c-3.092,0.106-4.52,2.443-4.515,5.546c0.01,5.329,0.1,10.66-0.058,15.984
	c-0.062,2.063,1.295,4.942-2.244,5.684c-3.365,0.704-6.365,0.026-8.405-2.915c-1.79-2.581-1.964-5.603-1.647-8.629
	c0.4-3.833,0.171-7.64-0.236-11.452c-0.301-2.808-2.045-4.267-4.64-4.262c-2.826,0.005-4.727,1.562-4.791,4.622
	c-0.073,3.493-0.017,6.989-0.017,10.484C353.014,93.555,352.967,93.555,352.921,93.555z"/>
<path fill-rule="evenodd" fill="#374E99" stroke="#FFFFFF" stroke-miterlimit="10" d="M272.068,91.773
	c0,3.274,0.143,5.618-0.04,7.935c-0.187,2.364,1.401,5.73-2.868,6.191c-3.803,0.411-7.03-0.599-8.587-4.433
	c-1.01-2.486-1.246-5.178-0.918-7.85c0.408-3.329,0.298-6.624-0.097-9.945c-0.35-2.942-1.34-5.428-4.74-5.192
	c-3.34,0.231-4.17,2.861-4.192,5.771c-0.038,5.161,0.186,10.338-0.153,15.479c-0.15,2.282,1.181,5.876-2.959,6.306
	c-3.59,0.373-6.5-1.104-8.422-4.229c-0.995-1.618-1.07-3.457-1.054-5.314c0.034-4.162-0.023-8.326,0.016-12.49
	c0.03-3.156-1.445-5.266-4.56-5.488c-3.513-0.25-5.142,2.101-5.23,5.33c-0.15,5.492-0.051,10.989-0.069,16.484
	c-0.019,5.73-2.607,7.261-7.763,4.565c-2.885-1.51-4.524-3.824-4.492-7.192c0.046-4.828-0.096-9.662,0.119-14.482
	c0.284-6.348,3.217-11.16,9.218-13.625c6.095-2.503,12.109-2.663,17.126,2.364c1.926,1.93,2.859,1.392,4.684-0.143
	c9.053-7.622,21.857-3.087,24.414,8.46C272.413,84.406,271.848,88.572,272.068,91.773z"/>
<path fill-rule="evenodd" fill="#169451" stroke="#FFFFFF" stroke-miterlimit="10" d="M91.181,59.966
	c10.184,0.003,17.927,7.821,17.845,18.019c-0.08,10.057-8.219,18.233-18.051,18.132C80.877,96.015,73.14,88.051,73.189,77.81
	C73.238,67.495,80.832,59.963,91.181,59.966z"/>
<path fill-rule="evenodd" fill="#374E99" stroke="#FFFFFF" stroke-miterlimit="10" d="M166.75,91.909
	c1.18,10.643-3.91,15.562-15.084,14.963c-9.785-0.524-16.709-5.672-20.358-14.56c-4.076-9.931-1.626-19.268,5.307-26.924
	c6.251-6.903,14.756-7.958,23.516-5.745c5.008,1.265,7.621,5.709,7.464,11.111c-0.074,2.545-0.912,2.795-3.014,1.641
	c-2.947-1.617-6.134-2.491-9.557-2.52c-8.298-0.071-13.422,5.249-12.978,13.579c0.43,8.037,6.459,13.157,14.447,12.242
	C159.997,95.295,163.278,94.183,166.75,91.909z"/>
<path fill-rule="evenodd" fill="#374E99" stroke="#FFFFFF" stroke-miterlimit="10" d="M210.054,86.879
	c0.015,11.613-7.368,19.142-18.874,19.244c-11.053,0.099-19.198-7.789-19.146-18.543c0.053-11.036,8.223-19.383,19.063-19.475
	C201.958,68.013,210.039,76.016,210.054,86.879z M197.657,88.008c-0.017-5.403-2.942-9.533-6.763-9.55
	c-3.418-0.016-6.37,3.999-6.427,8.743c-0.063,5.197,2.645,8.96,6.52,9.057C194.889,96.356,197.673,92.914,197.657,88.008z"/>
<path fill-rule="evenodd" fill="#374E99" stroke="#FFFFFF" stroke-miterlimit="10" d="M334.9,87.492
	c0.004,0.5,0.061,1.007-0.005,1.498c-0.733,5.499,0.175,11.996-5.987,14.919c-7.258,3.444-14.889,3.504-22.068-0.615
	c-3.438-1.972-5.034-5.246-4.692-9.278c0.352-4.154,2.372-7.233,6.221-8.947c3.398-1.515,7.019-1.927,10.711-2.037
	c1.321-0.039,3.425,0.663,3.52-1.603c0.078-1.853-1.328-3.057-3.179-3.252c-4.505-0.475-9.038-0.707-13.067,1.919
	c-2.4,1.564-3.305,0.917-3.068-1.777c0.29-3.307,1.493-6.029,4.524-7.87c12.272-7.451,26.363-0.179,27.081,14.044
	C334.94,85.489,334.896,86.491,334.9,87.492z M318.385,97.08c2.743-0.026,4.36-1.362,4.589-4.109
	c0.206-2.486-1.674-2.729-3.292-2.359c-2.175,0.497-5.51-0.195-5.519,3.486C314.158,96.683,316.257,97.101,318.385,97.08z"/>
<path fill-rule="evenodd" fill="#374E99" stroke="#FFFFFF" stroke-miterlimit="10" d="M475.665,81.612
	c-0.749-7.961,1.185-10.772,8.251-12.69c4.984-1.351,9.838-1.152,14.622,0.851c2.716,1.137,5.136,2.825,6.101,5.563
	c2.906,8.247,2.803,16.602-0.138,24.844c-0.686,1.924-2.244,3.27-4.205,4.023c-6.616,2.547-13.261,2.946-19.868,0.044
	c-4.168-1.829-6.546-4.923-6.475-9.68c0.074-4.915,2.463-8.138,6.967-9.863c3.138-1.202,6.417-1.571,9.769-1.673
	c1.28-0.038,3.399,0.83,3.575-1.476c0.165-2.169-1.357-3.273-3.438-3.487C485.439,77.516,480.226,77.865,475.665,81.612z
	 M490.259,97.13c2.511,0.2,4.209-1.331,4.567-4.211c0.254-2.05-1.318-2.653-2.9-2.354c-2.364,0.446-5.781-0.397-5.909,3.622
	C485.938,96.645,487.762,97.066,490.259,97.13z"/>
<path fill-rule="evenodd" fill="#374E99" stroke="#FFFFFF" stroke-miterlimit="10" d="M278.622,83.8
	c0.062-5.318-0.524-10.664,0.413-15.953c1.563-8.818,9.776-13.881,17.765-11.048c2.003,0.71,3.631,1.735,4.251,3.835
	c0.868,2.938,1.18,5.511-3.389,4.507c-1.096-0.241-2.349-0.134-3.458,0.124c-2.816,0.657-3.411,2.803-3.34,5.363
	c0.083,2.949,2.237,2.249,3.963,2.339c1.902,0.099,4.217-0.573,4.327,2.605c0.097,2.777-0.658,5.449-3.573,5.73
	c-4.673,0.45-4.909,3.154-4.735,6.779c0.208,4.321,0.087,8.659,0.039,12.989c-0.049,4.367-2.132,5.831-6.364,4.52
	c-3.821-1.186-5.733-3.944-5.862-7.805C278.503,93.129,278.622,88.463,278.622,83.8z"/>
<path fill-rule="evenodd" fill="#374E99" stroke="#FFFFFF" stroke-miterlimit="10" d="M439.126,77.675
	c0,4.325,0.026,8.649-0.01,12.973c-0.021,2.633,0.866,4.405,3.683,5.093c1.639,0.4,4.348-0.78,4.437,2.566
	c0.082,3.132-0.991,5.47-3.911,6.871c-6.593,3.164-15.345-0.979-16.129-8.299c-1.33-12.418,0.073-24.917-0.209-37.381
	c-0.03-1.358,0.645-2.249,2.048-2.304c3.026-0.12,6.08-0.082,8.286,2.44c1.355,1.551,1.811,3.494,1.793,5.566
	c-0.035,4.158-0.01,8.316-0.01,12.474C439.111,77.675,439.118,77.675,439.126,77.675z"/>
<path fill-rule="evenodd" fill="#374E99" stroke="#FFFFFF" stroke-miterlimit="10" d="M512.302,88.798
	c0.002-2.824-0.196-5.664,0.038-8.467c0.762-9.108,9.632-14.642,18.042-11.437c2.198,0.838,3.642,2.063,4.011,4.542
	c0.485,3.265,0.918,6.025-4.052,5.302c-3.855-0.561-5.312,1.947-5.375,5.465c-0.107,5.973-0.342,11.948-0.243,17.917
	c0.055,3.306-1.62,3.996-4.346,3.77c-4.557-0.378-7.747-3.697-8.046-8.623C512.159,94.452,512.3,91.62,512.302,88.798z"/>
<path fill-rule="evenodd" fill="#374E99" stroke="#FFFFFF" stroke-miterlimit="10" d="M323.656,145.394
	c2.5-1.488,3.352-3.717,4.659-5.519c3.714-5.117,7.32-10.316,11.855-14.771c3.609-3.545,4.377-3.644,9.788-1.286
	c-5.302,8.917-9.134,18.426-11.577,28.49c-0.354,1.453-0.731,3.31-2.752,2.688c-1.769-0.543-1.557-2.338-1.258-3.85
	c1.202-6.068,3.499-11.767,5.939-17.416c0.705-1.631,1.398-3.268,1.636-5.193c-5.199,4.796-9.02,10.625-13.15,16.224
	c-1.797,2.437-2.723,7.274-7.071,5.367c-4.053-1.776-1.362-5.885-1.213-8.896c0.159-3.224,1.133-6.408,1.322-9.752
	c-3.985,4.785-6.265,10.421-8.845,15.891c-0.992,2.103-1.917,4.248-3.086,6.249c-0.652,1.115-1.042,3.274-3.178,2.034
	c-1.845-1.071-0.887-2.672-0.282-3.961c1.482-3.154,3.051-6.273,4.706-9.342c2.682-4.972,5.447-9.898,8.206-14.829
	c1.069-1.912,2.3-3.778,4.596-4.288c1.428-0.317,3.101-0.569,4.226,0.704c0.945,1.071-0.087,2.187-0.469,3.196
	C325.546,132.862,324.542,138.829,323.656,145.394z"/>
<path fill-rule="evenodd" fill="#374E99" stroke="#FFFFFF" stroke-miterlimit="10" d="M451.557,85.026
	c0-3.86,0.156-7.035-0.038-10.189c-0.273-4.416,2.349-5.234,5.706-4.498c4.121,0.904,6.78,3.519,6.864,8.023
	c0.081,4.33,0.045,8.662,0.015,12.994c-0.015,2.121,0.214,4.305,2.661,4.709c2.21,0.363,3.965,0.717,3.842,3.418
	c-0.133,2.928-1.491,5.112-4.24,6.215c-5.848,2.342-12.896-1.552-14.309-7.914C451.071,93.344,451.754,88.816,451.557,85.026z"/>
<path fill-rule="evenodd" fill="#374E99" stroke="#FFFFFF" stroke-miterlimit="10" d="M416.114,84.63
	c0,2.33-0.019,4.662,0.005,6.992c0.022,2.183,0.724,4.143,3.088,4.485c2.367,0.341,3.867,1.255,3.618,3.741
	c-0.282,2.83-1.64,5.033-4.528,5.996c-6.532,2.178-13.804-2.313-14.181-9.279c-0.413-7.642-0.082-15.321-0.192-22.982
	c-0.039-2.734,1.468-3.388,3.754-3.477c4.403-0.171,7.905,2.858,8.349,7.534c0.218,2.31,0.037,4.657,0.037,6.987
	C416.081,84.628,416.098,84.629,416.114,84.63z"/>
<path fill-rule="evenodd" fill="#374E99" stroke="#FFFFFF" stroke-miterlimit="10" d="M358.102,153.507
	c4.916-4.271,8.899-8.126,10.121-14.026c0.35-1.684,0.837-3.408,3.258-2.537c3.108,1.117,0.677,2.498,0.152,3.74
	c-1.455,3.45-0.882,6.808,0.213,10.217c0.654,2.037,1.459,4.248-0.495,6.064c-2.164,2.011-3.99,0.271-5.83-0.729
	c-1.17-0.635-2.243-1.244-3.725-1.057c-2.654,0.338-5.4,1.458-7.406-2.076c-0.374-0.66-3.6,3.146-6.438,3.189
	c-2.668,0.041-4.037-0.973-4.053-3.771c-0.044-8.153,9.375-14.774,16.851-11.823c2.158,0.853,1.51,2.109,0.738,3.558
	C360.105,146.848,358.218,149.254,358.102,153.507z M347.284,152.78c4.652-0.299,8.471-4.698,9.054-10.424
	C351.039,143.986,349.451,148.522,347.284,152.78z M367.651,148.521c-1.391,1.615-3.157,2.749-2.565,4.329
	c0.335,0.895,2.279,1.886,3.852,0.542C368.547,151.911,368.168,150.477,367.651,148.521z"/>
<path fill-rule="evenodd" fill="#374E99" stroke="#FFFFFF" stroke-miterlimit="10" d="M416.149,61.112
	c-0.282,4.047-2.522,6.12-6.295,6.461c-3.473,0.313-6.791-2.571-6.662-5.875c0.151-3.857,2.411-6.215,6.247-6.334
	C413.225,55.246,415.581,57.322,416.149,61.112z"/>
<path fill-rule="evenodd" fill="#374E99" stroke="#FFFFFF" stroke-miterlimit="10" d="M457.07,67.607
	c-3.301-0.506-5.972-2.208-5.954-6.251c0.018-4.12,2.859-5.987,6.486-5.959c3.721,0.028,6.182,2.345,6.436,6.207
	C464.25,64.826,460.916,67.681,457.07,67.607z"/>
<path fill-rule="evenodd" fill="#374E99" stroke="#FFFFFF" stroke-miterlimit="10" d="M355.54,135.877
	c2.08-2.413,2.954-6.704,8.024-5.372C361.663,133.559,359.422,135.748,355.54,135.877z"/>
<path fill-rule="evenodd" fill="#374E99" stroke="#FFFFFF" stroke-miterlimit="10" d="M441.176,137.039
	c-0.592,1.513-1.836,2.117-3.423,2.087c-1.058-0.021-2.094-0.486-1.893-1.669c0.308-1.805,2.021-1.931,3.425-2.126
	C440.325,135.187,441.21,135.645,441.176,137.039z"/>
<path fill-rule="evenodd" fill="#374E99" stroke="#FFFFFF" stroke-miterlimit="10" d="M466.712,136.974
	c-0.694,1.487-1.857,2.227-3.486,2.141c-1.037-0.056-2.146-0.482-1.915-1.651c0.343-1.729,2.035-1.927,3.453-2.12
	C465.821,135.199,466.604,135.763,466.712,136.974z"/>
</svg>
