<?xml version="1.0" standalone="no"?>
<!DOCTYPE svg PUBLIC "-//W3C//DTD SVG 1.1//EN" "http://www.w3.org/Graphics/SVG/1.1/DTD/svg11.dtd" >
<svg>
<metadata>
Created by FontForge 20120731 at Wed Mar 21 16:39:45 2018
 By www-data
&#60; info@fontfont.de &#62; Copyright Evert Bloemsma, 1998. Published by FontShop International.  FontFont Release 22
</metadata>
<defs>
<font id="Cocon-Light" horiz-adv-x="570" >
  <font-face 
    font-family="Cocon"
    font-weight="550"
    font-stretch="normal"
    units-per-em="1000"
    panose-1="2 0 6 3 3 0 0 2 0 4"
    ascent="800"
    descent="-200"
    x-height="535"
    cap-height="680"
    bbox="-48 -285 1338 922"
    underline-thickness="20"
    underline-position="-146"
    unicode-range="U+0020-FB02"
  />
<missing-glyph horiz-adv-x="500" 
 />
    <glyph glyph-name="fi" unicode="fi" horiz-adv-x="654" 
d="M637 49q0 -26 -14.5 -40t-38.5 -14q-160 0 -160 159v381h28q23 0 43 -18t20 -53v-297q0 -50 22.5 -69t60.5 -19h39v-30zM349 607q-18 16 -37.5 21.5t-42.5 5.5q-53 0 -75.5 -25.5t-22.5 -83.5v-66h159v-33q0 -19 -15.5 -33.5t-44.5 -14.5h-100v-378h-34q-30 0 -43 18
t-13 47v470q0 35 12 68.5t35 59.5t55.5 41.5t74.5 15.5q24 0 42 -6t30.5 -16t18.5 -21.5t6 -21.5v-48h-5zM533 671q0 -26 -17.5 -44t-43.5 -18t-44 18t-18 44t18 44.5t44 18.5t43.5 -18.5t17.5 -44.5z" />
    <glyph glyph-name="fl" unicode="fl" horiz-adv-x="664" 
d="M659 50q0 -54 -73 -54q-79 0 -120.5 39t-41.5 120v565h28q28 0 46 -17.5t18 -52.5v-484q0 -50 23 -68t61 -18h59v-30zM349 607q-18 16 -37.5 21.5t-42.5 5.5q-53 0 -75.5 -25.5t-22.5 -83.5v-66h159v-33q0 -19 -15.5 -33.5t-44.5 -14.5h-100v-378h-34q-30 0 -43 18
t-13 47v470q0 35 12 68.5t35 59.5t55.5 41.5t74.5 15.5q24 0 42 -6t30.5 -16t18.5 -21.5t6 -21.5v-48h-5z" />
    <glyph glyph-name=".notdef" horiz-adv-x="500" 
 />
    <glyph glyph-name=".null" horiz-adv-x="0" 
 />
    <glyph glyph-name="nonmarkingreturn" horiz-adv-x="220" 
 />
    <glyph glyph-name="space" unicode=" " horiz-adv-x="220" 
 />
    <glyph glyph-name="space" unicode="&#xa0;" horiz-adv-x="220" 
 />
    <glyph glyph-name="exclam" unicode="!" horiz-adv-x="314" 
d="M225 70q0 -31 -20.5 -50.5t-50.5 -19.5t-51 19.5t-21 50.5t21 51t51 20t50.5 -20t20.5 -51zM169 220q-54 0 -57 67l-13 394h43q27 0 44 -16.5t16 -49.5l-13 -395h-20z" />
    <glyph glyph-name="quotedbl" unicode="&#x22;" horiz-adv-x="415" 
d="M133 438q-26 0 -40 18t-17 60l-12 164h38q28 0 44 -19.5t13 -54.5l-14 -168h-12zM318 438q-25 0 -39.5 18t-17.5 60l-12 164h38q29 0 44.5 -19.5t12.5 -54.5l-14 -168h-12z" />
    <glyph glyph-name="numbersign" unicode="#" 
d="M199 252h138l31 174h-139zM435 426l-31 -174h83v-13q0 -23 -12.5 -36t-38.5 -13h-44l-35 -190h-23q-22 0 -31 12.5t-2 49.5l24 128h-138l-34 -190h-24q-21 0 -30 13t-2 50l23 127h-89v14q0 23 12 35.5t38 12.5h51l31 174h-88v13q0 23 12 35.5t38 12.5h48l35 193h15
q26 0 36.5 -14t4.5 -46l-24 -133h138l34 193h15q25 0 36.5 -15t5.5 -48l-23 -130h85v-13q0 -23 -13 -35.5t-39 -12.5h-44z" />
    <glyph glyph-name="dollar" unicode="$" 
d="M509 197q-1 -75 -51.5 -129t-147.5 -66v-123h-20q-22 0 -29.5 8.5t-7.5 28.5v83q-40 1 -74 12t-59.5 29.5t-40 42.5t-14.5 50v41h6q31 -44 81.5 -69.5t113.5 -25.5q83 0 118.5 26.5t35.5 81.5q0 26 -5.5 44.5t-26 33.5t-59 28t-104.5 28q-37 8 -68 20.5t-53.5 31.5
t-35 46t-12.5 64q1 75 52 128.5t145 66.5v131h16q17 0 29 -7.5t12 -28.5v-92q58 -1 93.5 -16t55 -35.5t26.5 -41.5t7 -33v-32h-8q-31 40 -72.5 59t-111.5 19q-29 0 -56 -5t-49 -17t-35.5 -32t-13.5 -50q0 -26 8 -43.5t29 -30t58 -24t95 -25.5q34 -9 65.5 -22.5t55.5 -34.5
t38 -50.5t14 -69.5z" />
    <glyph glyph-name="percent" unicode="%" horiz-adv-x="1003" 
d="M773 349q-22 0 -37 -11.5t-24.5 -30t-13.5 -43t-4 -49.5q0 -31 4.5 -58t14.5 -47t26.5 -31.5t40.5 -11.5q22 0 37 11.5t24.5 30t13.5 42.5t4 49q0 31 -4.5 58t-14.5 47.5t-26.5 32t-40.5 11.5zM218 614q-22 0 -37 -11.5t-24.5 -30t-13.5 -43t-4 -49.5q0 -31 4.5 -58
t14.5 -47t26.5 -31.5t40.5 -11.5q22 0 37 11.5t24.5 30t13.5 42.5t4 49q0 31 -4.5 58t-14.5 47.5t-26.5 32t-40.5 11.5zM772 -10q-37 0 -66.5 16.5t-50 45t-31.5 67t-11 81.5q0 49 11 90.5t32.5 71.5t53 46.5t71.5 16.5q37 0 66.5 -16.5t50 -45t31.5 -66.5t11 -81
q0 -49 -11 -90.5t-32.5 -71.5t-53 -47t-71.5 -17zM347 0q-33 0 -33 27q0 16 12 43l277 610h26q11 0 21 -11.5t10 -30.5q0 -12 -6 -25l-279 -613h-28zM217 255q-37 0 -66.5 16.5t-50 45t-31.5 67t-11 81.5q0 49 11 90.5t32.5 71.5t53 46.5t71.5 16.5q37 0 66.5 -16.5t50 -45
t31.5 -66.5t11 -81q0 -49 -11 -90.5t-32.5 -71.5t-53 -47t-71.5 -17z" />
    <glyph glyph-name="ampersand" unicode="&#x26;" horiz-adv-x="678" 
d="M236 320q-40 -25 -65.5 -56t-25.5 -68q0 -66 35 -96t100 -30q38 0 68 16t61 47q-46 46 -89 93t-84 94zM298 612q-42 0 -66 -22t-24 -66q0 -17 5.5 -31t14.5 -27t19.5 -25t19.5 -25q54 29 84.5 55t30.5 61q0 40 -23 60t-61 20zM599 -9q-55 0 -101 47l-38 39
q-16 -16 -33.5 -31.5t-40 -28t-52 -20t-69.5 -7.5q-54 0 -93.5 14.5t-65 39.5t-38 59.5t-12.5 75.5q0 57 33.5 107.5t101.5 91.5q-38 42 -55 75.5t-17 69.5q0 31 11 61.5t34 53.5t58 37.5t82 14.5q36 0 65.5 -10.5t51.5 -29.5t34 -46t12 -61q0 -26 -8.5 -48.5t-27.5 -44.5
t-48.5 -44t-72.5 -47q18 -23 38 -46.5t40 -45.5t39 -42t34 -35q38 45 57 93.5t21 90.5h24q14 0 28 -14.5t14 -41.5q0 -39 -25 -87.5t-64 -95.5q24 -24 42.5 -41.5t34 -29t30 -18t31.5 -9.5q-11 -31 -22 -38.5t-33 -7.5z" />
    <glyph glyph-name="quotesingle" unicode="'" horiz-adv-x="314" 
d="M181 458q-26 0 -40 18t-17 60l-12 164h38q28 0 44 -19.5t13 -54.5l-14 -168h-12z" />
    <glyph glyph-name="parenleft" unicode="(" horiz-adv-x="354" 
d="M298 -169q-16 0 -35.5 7.5t-40.5 21.5q-29 18 -59 57.5t-54 94t-39.5 120t-15.5 136.5q0 70 12 133.5t34 117.5t52 96.5t66 70.5q18 14 41.5 24t42.5 10h35q-42 -43 -76 -89t-58 -98t-36.5 -112t-12.5 -132q0 -76 12 -141t34.5 -121t55.5 -104.5t75 -91.5h-33z" />
    <glyph glyph-name="parenright" unicode=")" horiz-adv-x="354" 
d="M57 719q16 0 35.5 -7.5t40.5 -21.5q29 -18 59 -57.5t54 -94t39.5 -120t15.5 -136.5q0 -70 -12 -133.5t-34 -117.5t-52 -96.5t-66 -70.5q-18 -14 -41.5 -24t-42.5 -10h-35q42 43 76 89t58 98t36.5 112t12.5 132q0 76 -12 141t-34.5 121t-55.5 104.5t-75 91.5h33z" />
    <glyph glyph-name="asterisk" unicode="*" horiz-adv-x="515" 
d="M398 491q-29 0 -57.5 -2.5t-42.5 -6.5q10 -11 17 -20t15 -21q12 -20 23 -34t21.5 -24t22 -15.5t25.5 -9.5q-11 -22 -23 -36t-33 -14q-14 0 -28 5.5t-25 21.5q-8 13 -18 35t-13 35q-2 9 -9 23.5t-15 31.5q-41 -50 -55.5 -88t-14.5 -72q-78 5 -78 60q0 26 12.5 43.5
t30.5 31.5q20 14 35 26.5t29 26.5q-38 16 -64.5 21t-55.5 5q-14 0 -27 -2.5t-27 -7.5q1 17 5.5 33.5t13 29.5t21.5 21t30 8q23 0 41 -8t35 -22q9 -8 23.5 -17t26.5 -16q2 14 3 24t1 18q0 32 -5.5 70t-28.5 66q13 4 22 6.5t19 2.5q32 0 52.5 -14.5t20.5 -46.5q0 -13 -3 -28.5
t-9 -29.5q-5 -13 -10.5 -31t-10.5 -39q21 1 43.5 9.5t43 21t37 28.5t27.5 32q12 -18 21.5 -36t9.5 -38q0 -30 -22 -43.5t-52 -13.5z" />
    <glyph glyph-name="plus" unicode="+" 
d="M316 250v-229h-26q-14 0 -29 15t-15 50v164h-211v37q0 13 11 26t32 13h168v206h34q12 0 24 -11.5t12 -34.5v-160h207v-28q0 -15 -13.5 -31.5t-45.5 -16.5h-148z" />
    <glyph glyph-name="comma" unicode="," horiz-adv-x="288" 
d="M83 -150q23 24 36 50t13 49q0 17 -8 33t-22 26q-9 6 -17 21.5t-8 29.5q0 26 17.5 44.5t52.5 18.5q29 0 51.5 -26.5t22.5 -85.5q0 -71 -36.5 -117t-101.5 -49v6z" />
    <glyph glyph-name="hyphen" unicode="-" horiz-adv-x="353" 
d="M300 325q0 -23 -14 -40t-37 -17h-195v30q0 22 16 38t40 16h190v-27z" />
    <glyph glyph-name="hyphen" unicode="&#xad;" horiz-adv-x="353" 
d="M300 325q0 -23 -14 -40t-37 -17h-195v30q0 22 16 38t40 16h190v-27z" />
    <glyph glyph-name="period" unicode="." horiz-adv-x="288" 
d="M215 70q0 -31 -20.5 -50.5t-50.5 -19.5t-51 19.5t-21 50.5t21 51t51 20t50.5 -20t20.5 -51z" />
    <glyph glyph-name="slash" unicode="/" horiz-adv-x="483" 
d="M94 -10q-7 0 -19 8.5t-12 28.5q0 18 10 41l293 651h30q14 0 24.5 -10.5t10.5 -23.5t-5 -23l-301 -672h-31z" />
    <glyph glyph-name="zero" unicode="0" 
d="M436 326q0 81 -10.5 134.5t-30.5 86t-49.5 45.5t-66.5 13q-31 0 -57.5 -14.5t-45.5 -45t-29.5 -78t-10.5 -114.5q0 -77 12.5 -130t33 -86t47.5 -47.5t56 -14.5q30 0 57 13t48 42t33.5 77t12.5 119zM526 354q0 -94 -17 -163t-49 -114t-77.5 -66.5t-103.5 -21.5
q-50 0 -93 22.5t-74.5 66t-50 106.5t-18.5 144q0 174 60.5 268t186.5 94q48 0 90.5 -19t75 -59.5t51.5 -104.5t19 -153z" />
    <glyph glyph-name="one" unicode="1" horiz-adv-x="365" 
d="M232 0q-26 0 -43 15.5t-17 52.5v517l-102 -48q-24 -11 -42 -3t-23 22l-10 34l104 53q32 16 58.5 26.5t54.5 10.5q20 0 36.5 -13.5t16.5 -33.5v-633h-33z" />
    <glyph glyph-name="two" unicode="2" 
d="M512 52q0 -8 -3 -17t-9.5 -17t-18 -13t-28.5 -5h-345q-21 0 -33 11.5t-12 27.5q0 18 3.5 33.5t15.5 33t34.5 40t58.5 54.5l143 127q48 43 66.5 77t18.5 72q0 61 -37 95.5t-109 34.5q-39 0 -68.5 -9t-51.5 -23.5t-37 -33t-26 -36.5h-6v42q0 27 13 52.5t39 46t65 33
t91 12.5q47 0 87 -15.5t69.5 -42t46 -62.5t16.5 -78q0 -40 -8 -71t-24.5 -57t-41.5 -51t-58 -53l-138 -117q-17 -14 -33 -30.5t-24 -28.5h344v-32z" />
    <glyph glyph-name="three" unicode="3" 
d="M499 202q0 -47 -14.5 -86t-44.5 -67t-76.5 -43.5t-110.5 -15.5q-41 0 -77 10t-63.5 28t-43.5 42.5t-16 53.5v41h6q70 -91 201 -91q70 0 108 28.5t38 87.5q0 119 -181 120q-25 0 -35.5 12t-10.5 32v26h50q48 2 81 9.5t52.5 21t28 34t8.5 48.5q0 113 -157 113
q-74 0 -119 -27.5t-65 -63.5h-6v39q0 21 13.5 44.5t39.5 44t64.5 34t88.5 13.5q55 0 98.5 -14t73.5 -38.5t45.5 -58.5t15.5 -73q0 -36 -11 -62.5t-30 -45.5t-45 -30.5t-56 -17.5q31 -6 58.5 -19.5t48 -33.5t32 -44t11.5 -51z" />
    <glyph glyph-name="four" unicode="4" 
d="M347 592q-20 -23 -50 -64.5t-62 -90.5t-62.5 -100t-50.5 -91h225v346zM548 216q0 -26 -14 -36.5t-36 -10.5h-59v-169h-33q-24 0 -41.5 14.5t-17.5 48.5v106h-241q-32 0 -50.5 15t-18.5 33q0 10 1 20.5t5 19.5q23 51 62 114t82 123.5t84 110.5t68 75h38q24 0 43 -16.5
t19 -58.5v-359h109v-30z" />
    <glyph glyph-name="five" unicode="5" 
d="M520 216q0 -106 -65.5 -166t-182.5 -60q-44 0 -79.5 10.5t-60.5 27.5t-38 40t-13 47v31h6q29 -35 75.5 -53.5t115.5 -18.5q71 0 110.5 31t39.5 102q0 69 -40.5 97.5t-130.5 28.5q-18 0 -39.5 -2t-44 -6t-44.5 -9t-40 -11v281q0 51 22.5 72.5t64.5 21.5h314v-30
q0 -26 -15 -40t-45 -14h-258v-198q9 2 23.5 4.5t30.5 4.5t32 3.5t28 1.5q114 0 174 -52.5t60 -143.5z" />
    <glyph glyph-name="six" unicode="6" 
d="M437 207q0 79 -35.5 112.5t-104.5 33.5q-36 0 -64 -11.5t-46.5 -29t-28.5 -38.5t-10 -40q0 -73 39.5 -118.5t109.5 -45.5t105 39t35 98zM528 219q0 -51 -16.5 -93t-47.5 -72t-75.5 -47t-99.5 -17q-48 0 -91 19t-75 58.5t-51 100t-19 143.5t19.5 152.5t56.5 120t90 78.5
t120 28q40 0 69 -9.5t48.5 -24.5t29 -34t9.5 -38v-29h-5q-13 12 -26.5 22t-31 17t-40.5 11t-54 4q-43 0 -79 -16.5t-61.5 -51t-39.5 -87.5t-14 -125q9 21 26 40t39.5 33t49 22.5t55.5 8.5q49 0 89 -15.5t67.5 -44t42.5 -68t15 -86.5z" />
    <glyph glyph-name="seven" unicode="7" 
d="M509 629q0 -20 -17 -64.5t-46 -100.5l-135 -263q-21 -42 -30 -85.5t-9 -75.5v-40h-37q-24 0 -39 14t-15 48q0 40 14.5 85t32.5 79l138 258q17 31 30 59.5t18 52.5h-362v29q0 23 13 39t44 16h341q33 0 46 -13.5t13 -37.5z" />
    <glyph glyph-name="eight" unicode="8" 
d="M438 188q0 25 -8.5 47t-26.5 38.5t-46 26t-68 9.5q-69 0 -105 -34t-36 -83q0 -54 39.5 -86t108.5 -32q37 0 64 9t44.5 24.5t25.5 36t8 44.5zM429 495q0 51 -35 82.5t-104 31.5t-101.5 -31t-32.5 -78q0 -54 36.5 -84t104.5 -30q67 0 99.5 28.5t32.5 80.5zM530 196
q0 -40 -14 -77.5t-43.5 -66t-74.5 -45.5t-108 -17q-58 0 -101.5 15.5t-73 41.5t-44.5 61.5t-15 74.5q0 25 8 50t24 46.5t41 38.5t59 27q-66 21 -94.5 57t-28.5 88q0 42 15.5 78.5t44.5 63.5t72 42.5t99 15.5q49 0 90 -13.5t71 -37.5t46.5 -58.5t16.5 -76.5q0 -66 -33 -101
t-94 -51q33 -8 58.5 -25.5t43 -39t26.5 -46t9 -45.5z" />
    <glyph glyph-name="nine" unicode="9" 
d="M426 438q0 90 -38.5 130t-114.5 40q-35 0 -61.5 -11t-44.5 -30.5t-27 -46t-9 -56.5q0 -78 39.5 -114t112.5 -36q35 0 62 11t45 28.5t27 39.5t9 45zM518 367q0 -193 -59.5 -285t-191.5 -92q-42 0 -78 9t-62.5 26t-41.5 43t-15 60v31h5q27 -40 75 -63.5t118 -23.5
q85 0 122 63t37 191q-23 -42 -64 -66t-94 -24q-56 0 -98.5 17.5t-71.5 47.5t-44 69t-15 82q0 51 18.5 94.5t51 75.5t76 50t93.5 18q53 0 97 -16.5t75.5 -54.5t49 -100t17.5 -152z" />
    <glyph glyph-name="colon" unicode=":" horiz-adv-x="288" 
d="M215 463q0 -31 -20.5 -50.5t-50.5 -19.5t-51 19.5t-21 50.5t21 51t51 20t50.5 -20t20.5 -51zM215 70q0 -31 -20.5 -50.5t-50.5 -19.5t-51 19.5t-21 50.5t21 51t51 20t50.5 -20t20.5 -51z" />
    <glyph glyph-name="semicolon" unicode=";" horiz-adv-x="288" 
d="M215 463q0 -31 -20.5 -50.5t-50.5 -19.5t-51 19.5t-21 50.5t21 51t51 20t50.5 -20t20.5 -51zM83 -150q23 24 36 50t13 49q0 17 -8 33t-22 26q-9 6 -17 21.5t-8 29.5q0 26 17.5 44.5t52.5 18.5q29 0 51.5 -26.5t22.5 -85.5q0 -71 -36.5 -117t-101.5 -49v6z" />
    <glyph glyph-name="semicolon" unicode="&#x37e;" horiz-adv-x="288" 
d="M215 463q0 -31 -20.5 -50.5t-50.5 -19.5t-51 19.5t-21 50.5t21 51t51 20t50.5 -20t20.5 -51zM83 -150q23 24 36 50t13 49q0 17 -8 33t-22 26q-9 6 -17 21.5t-8 29.5q0 26 17.5 44.5t52.5 18.5q29 0 51.5 -26.5t22.5 -85.5q0 -71 -36.5 -117t-101.5 -49v6z" />
    <glyph glyph-name="less" unicode="&#x3c;" 
d="M423 435q-18 -8 -50 -23t-71 -34.5t-80 -41t-77 -42.5q37 -23 82 -48.5t90 -50t87.5 -46.5t75.5 -37v-18q0 -33 -50 -33q-8 0 -22.5 5.5t-22.5 9.5q-32 14 -74.5 36.5t-88 49t-90 55.5t-78.5 56v22q0 11 10 21.5t35 27.5q26 17 72.5 42.5t101 53t110.5 53t101 42.5v-29
q0 -24 -13 -40t-48 -31z" />
    <glyph glyph-name="equal" unicode="=" 
d="M86 151v36q0 17 10.5 28t32.5 11h367v-38q0 -15 -13 -26t-30 -11h-367zM86 364v36q0 17 10.5 28t32.5 11h367v-38q0 -15 -13 -26t-30 -11h-367z" />
    <glyph glyph-name="greater" unicode="&#x3e;" 
d="M141 158q18 7 50 22.5t71 35t80 41t77 42.5q-38 23 -82.5 48.5t-89.5 50t-87.5 46.5t-75.5 37v18q0 33 50 33q8 0 22.5 -5.5t22.5 -9.5q32 -14 74.5 -36t88 -49t89.5 -56t79 -56v-22q0 -11 -10 -21.5t-35 -27.5q-26 -17 -72.5 -42.5t-101 -52.5t-110.5 -52.5t-101 -43.5
v29q0 24 13 40t48 31z" />
    <glyph glyph-name="question" unicode="?" horiz-adv-x="472" 
d="M285 70q0 -31 -20.5 -50.5t-50.5 -19.5t-51 19.5t-21 50.5t21 51t51 20t50.5 -20t20.5 -51zM337 524q0 45 -34 68t-89 23q-38 0 -63.5 -8t-43.5 -21t-30.5 -28t-22.5 -28h-6v31q0 23 10 47.5t32 44.5t56.5 32.5t84.5 12.5q49 0 86 -13t62 -35.5t37.5 -52t12.5 -62.5
q0 -45 -19 -78.5t-54 -65.5l-86 -77q-16 -14 -22 -32t-6 -47v-29h-34q-12 0 -27 15.5t-15 38.5q0 35 16 62t31 41l73 65q15 13 25 24t15.5 21.5t8 22.5t2.5 28z" />
    <glyph glyph-name="at" unicode="@" horiz-adv-x="757" 
d="M401 458q-19 0 -36.5 -10.5t-30.5 -29t-21 -43.5t-8 -54q0 -47 15.5 -64t34.5 -17q26 0 43 14t28.5 39.5t19 62t14.5 81.5q-9 9 -22.5 15t-36.5 6zM529 159q-32 0 -51.5 17t-29.5 60q-18 -43 -48.5 -60t-73.5 -17q-20 0 -39.5 11t-36 31t-26.5 48t-10 62q0 47 15 88
t42 71.5t64 48t81 17.5q22 0 44 -6.5t39 -18t27.5 -28t10.5 -36.5q0 -28 -11 -81q-5 -25 -8.5 -48t-3.5 -39q0 -53 33 -54q16 0 34 11t32 33t23.5 55.5t9.5 78.5q0 51 -15.5 94.5t-45.5 75t-74.5 49.5t-102.5 18t-110.5 -22.5t-92 -64.5t-63 -101.5t-23.5 -133.5
q0 -64 19 -114t53 -84t81 -52t102 -18q34 0 75 4.5t83 21.5v-24q0 -19 -10.5 -27.5t-34.5 -18.5q-18 -8 -50 -12t-81 -4q-62 0 -117.5 22t-97.5 63t-67 100.5t-25 134.5q0 78 26.5 149t74.5 124.5t116 85t152 31.5q66 0 120.5 -22t94 -61t61.5 -93t22 -117
q0 -57 -14.5 -102.5t-39.5 -78t-59.5 -50t-73.5 -17.5z" />
    <glyph glyph-name="A" unicode="A" horiz-adv-x="597" 
d="M431 253q-27 97 -59.5 180.5t-77.5 164.5q-24 -43 -43.5 -84.5t-36 -83.5t-30.5 -86t-27 -91h274zM549 0q-29 0 -43.5 12.5t-19.5 35.5q-7 35 -16.5 71t-15.5 61h-318q-5 -19 -10.5 -41.5t-11 -46.5t-10.5 -47.5t-9 -44.5h-35q-41 0 -41 44q0 23 10.5 70.5t28.5 107.5
t41.5 127t50.5 130t55 116t54 85h30q29 0 49.5 -19t42.5 -57q15 -26 33.5 -66t38 -88.5t39 -104.5t36.5 -114t31.5 -117t22.5 -114h-33z" />
    <glyph glyph-name="B" unicode="B" horiz-adv-x="610" 
d="M166 314v-163q0 -74 90 -74h71q63 0 99.5 29t36.5 89q0 65 -35.5 92t-117.5 27h-144zM165 390h139q72 0 110 23.5t38 84.5q0 57 -36.5 81.5t-105.5 24.5h-56q-17 0 -40.5 -3t-48.5 -9v-202zM555 201q0 -48 -17 -86t-47 -64.5t-71 -41t-89 -14.5h-80q-47 0 -80.5 11
t-54.5 30.5t-31 47.5t-10 63v510q15 5 35.5 10t43.5 9t45.5 6.5t40.5 2.5h90q51 0 90.5 -14t66.5 -38t41 -56.5t14 -69.5q0 -24 -5.5 -47t-19 -42.5t-37 -35.5t-59.5 -26q40 -11 66 -29.5t41 -40.5t21 -44.5t6 -40.5z" />
    <glyph glyph-name="C" unicode="C" horiz-adv-x="591" 
d="M559 529q-29 43 -75 59.5t-92 16.5q-55 0 -100 -18.5t-77.5 -51.5t-50 -78.5t-17.5 -99.5q0 -70 19 -123t53 -88t79 -53t98 -18q54 0 94.5 17.5t68.5 49.5h5v-28q0 -24 -12.5 -46.5t-36 -40t-58 -27.5t-79.5 -10q-67 0 -125.5 25.5t-102.5 72t-69.5 111.5t-25.5 143
q0 67 22.5 130t65.5 111.5t105.5 77.5t142.5 29q42 0 74.5 -11.5t55 -30t34 -41t11.5 -43.5v-35h-7z" />
    <glyph glyph-name="D" unicode="D" horiz-adv-x="670" 
d="M523 333q0 137 -62.5 203.5t-170.5 66.5h-39q-17 0 -41 -2.5t-43 -6.5v-429q0 -47 24 -67.5t72 -20.5h37q53 0 94.5 18.5t70 52.5t43.5 81t15 104zM615 347q0 -79 -22.5 -144t-63 -111t-96.5 -71.5t-123 -25.5h-61q-87 0 -130.5 39.5t-43.5 105.5v525q14 4 33.5 7.5
t40.5 6.5t41 4.5t37 1.5h85q61 0 116.5 -24t96.5 -68t65.5 -106.5t24.5 -139.5z" />
    <glyph glyph-name="E" unicode="E" horiz-adv-x="560" 
d="M523 71q0 -18 -4 -32t-17.5 -23.5t-38.5 -15t-67 -5.5h-84q-128 0 -187.5 71.5t-59.5 211.5v123q0 22 2 46.5t5 49t7 47.5t9 41q12 50 32 72.5t54 22.5h355v-37q0 -18 -14 -32.5t-52 -14.5h-282q-11 -42 -17.5 -97.5t-6.5 -109.5h295v-29q0 -20 -14 -34.5t-45 -14.5h-236
v-50q0 -51 10 -86t32.5 -56.5t57.5 -31t86 -9.5h52q38 0 71 6t57 13v-26z" />
    <glyph glyph-name="F" unicode="F" horiz-adv-x="489" 
d="M484 641q0 -14 -12.5 -30t-42.5 -16h-256v-196h265v-30q0 -24 -16 -38t-42 -14h-207v-317h-35q-29 0 -43.5 13t-14.5 42v541q0 46 21.5 65t77.5 19h305v-39z" />
    <glyph glyph-name="G" unicode="G" horiz-adv-x="666" 
d="M422 690q42 0 76 -10.5t58 -28t36.5 -39.5t12.5 -45v-33h-5q-22 29 -68.5 50.5t-120.5 21.5q-48 0 -93 -15.5t-79.5 -47.5t-55.5 -80.5t-21 -114.5q0 -72 20.5 -124t55 -85.5t81 -49t98.5 -15.5q33 0 54 5t33.5 16t17.5 28.5t5 43.5v63q0 22 -1.5 42t-3.5 35h41
q22 0 35 -14t13 -33v-116q0 -72 -49.5 -113t-161.5 -41q-66 0 -126 25t-105 71t-72 109.5t-27 141.5q0 75 23 139.5t67.5 112t110 74.5t151.5 27z" />
    <glyph glyph-name="H" unicode="H" horiz-adv-x="686" 
d="M575 0q-21 0 -40.5 16t-19.5 51v246h-343v-313h-34q-20 0 -39 16t-19 51v613h49q16 0 29.5 -11.5t13.5 -34.5v-237h343v283h44q18 0 32.5 -13t14.5 -33v-634h-31z" />
    <glyph glyph-name="I" unicode="I" horiz-adv-x="263" 
d="M145 0q-26 0 -43 16t-17 51v613h44q18 0 33.5 -13t15.5 -33v-634h-33z" />
    <glyph glyph-name="J" unicode="J" horiz-adv-x="393" 
d="M318 200q0 -100 -50.5 -155t-146.5 -55q-24 0 -45 6.5t-37 17.5t-25 27t-9 35v37h5q13 -14 43 -25.5t65 -11.5q57 0 83 29t26 91v484h32q30 0 44.5 -16.5t14.5 -43.5v-420z" />
    <glyph glyph-name="K" unicode="K" horiz-adv-x="573" 
d="M137 0q-23 0 -40 17t-17 47v616h27q32 0 48 -17t16 -46v-258q55 74 108 146t116 139q16 17 38 26.5t65 9.5h45v-5q-30 -26 -65 -64.5t-71 -82t-70.5 -87.5t-64.5 -82q14 -20 40 -53t55 -68.5t56.5 -69t45.5 -52.5q13 -14 24 -25t23 -20t25.5 -17t31.5 -15
q-11 -20 -22 -32t-37 -12q-25 0 -48 10t-39 27q-29 32 -65.5 75t-72.5 87.5t-67.5 85.5t-50.5 68v-348h-34z" />
    <glyph glyph-name="L" unicode="L" horiz-adv-x="498" 
d="M496 69q0 -15 -5 -28.5t-19 -23.5t-40.5 -16t-68.5 -6h-57q-119 0 -172.5 63t-53.5 181v442h33q27 0 42.5 -14t15.5 -54v-350q0 -54 6.5 -89.5t24 -56t47 -28.5t76.5 -8h38q37 0 73 4t60 11v-27z" />
    <glyph glyph-name="M" unicode="M" horiz-adv-x="901" 
d="M792 0q-31 0 -45.5 17t-14.5 56q0 27 -1.5 66t-3.5 84.5t-5.5 94.5t-7.5 95.5t-9 88t-10 72.5q-12 -22 -26 -58.5t-34 -92.5l-106 -305q-11 -31 -24.5 -63.5t-24.5 -54.5h-21q-10 0 -21.5 5.5t-25 24.5t-30 54.5t-35.5 94.5l-85 257q-11 35 -27.5 73t-30.5 64
q-11 -70 -18.5 -148t-13 -154.5t-8 -146.5t-3.5 -124h-27q-25 0 -44 18.5t-19 54.5q0 70 6 153.5t15.5 166t20.5 158t21 129.5h34q33 0 57 -13.5t42 -35t30.5 -49t21.5 -54.5l90 -267q11 -34 23 -72t17 -64q8 30 20 66.5t25 71.5l88 245q10 28 22 55t24 50t23 40.5t18 26.5
h24q46 0 67.5 -33t28.5 -96q7 -65 13 -136.5t11 -144t8 -141.5t5 -129h-34z" />
    <glyph glyph-name="N" unicode="N" horiz-adv-x="685" 
d="M577 0q-23 0 -45.5 7.5t-45.5 27.5t-47 55t-51 89l-144 291q-21 43 -38.5 69t-36.5 44v-583h-38q-22 0 -36.5 16t-14.5 46v619h44q60 0 102 -37.5t72 -98.5l144 -292q20 -39 37 -76t40 -65v568h38q20 0 34 -13.5t14 -34.5v-632h-28z" />
    <glyph glyph-name="O" unicode="O" horiz-adv-x="726" 
d="M580 332q0 137 -53.5 205.5t-168.5 68.5q-97 0 -154 -63.5t-57 -193.5q0 -133 55.5 -204t166.5 -71q49 0 88.5 18t66.5 51.5t41.5 81.5t14.5 107zM671 349q0 -78 -21 -144t-60.5 -113.5t-98 -74.5t-133.5 -27q-62 0 -116.5 23t-96 67t-65.5 107.5t-24 144.5q0 78 21 144
t60.5 113.5t98 74t133.5 26.5q69 0 124.5 -25t95 -70t61 -108t21.5 -138z" />
    <glyph glyph-name="P" unicode="P" horiz-adv-x="551" 
d="M449 466q0 134 -141 134h-52q-17 0 -42.5 -3t-41.5 -7v-229q28 -15 63 -20.5t74 -5.5q70 0 105 35t35 96zM541 476q0 -48 -18 -88.5t-49.5 -70.5t-74 -46.5t-91.5 -16.5q-46 0 -81 7.5t-55 21.5v-283h-34q-26 0 -42 14.5t-16 45.5v594q15 6 36.5 11.5t45 10t47.5 7
t44 2.5h53q51 0 94 -14t74.5 -40.5t49 -65.5t17.5 -89z" />
    <glyph glyph-name="Q" unicode="Q" horiz-adv-x="734" 
d="M581 334q0 141 -53.5 207t-171.5 66q-60 0 -100 -23t-65 -60t-35.5 -83t-10.5 -92q0 -135 59.5 -206t167.5 -71q47 0 85.5 18.5t66 53t42.5 82.5t15 108zM646 -96q-39 0 -87 7.5t-97 21t-96 30.5t-84 37q-54 15 -96.5 47.5t-71.5 76.5t-44.5 97.5t-15.5 110.5
q0 76 19 141.5t58 113.5t99 75.5t142 27.5q68 0 123.5 -24.5t94.5 -69t60.5 -107.5t21.5 -140q0 -70 -20 -128.5t-53 -102t-76.5 -70t-91.5 -31.5q60 -21 127 -29.5t133 -11.5v-31q0 -18 -14 -29.5t-31 -11.5z" />
    <glyph glyph-name="R" unicode="R" horiz-adv-x="598" 
d="M443 485q0 35 -11 58t-30 37t-43.5 19.5t-52.5 5.5h-51q-36 0 -83 -11v-218q33 -5 63.5 -7.5t59.5 -2.5q27 0 53.5 6.5t47.5 20.5t34 36.5t13 55.5zM576 2q-10 -2 -20 -3q-8 -1 -16 -1.5t-13 -0.5q-29 0 -46.5 12.5t-28.5 38.5l-51 122q-16 37 -30 59.5t-27.5 34.5
t-27 16t-29.5 5q-32 2 -65 6t-50 8v-299h-34q-58 0 -58 58v596q15 6 36 11.5t44.5 10t47.5 7t44 2.5h61q103 0 162.5 -49t59.5 -137q0 -41 -12.5 -71.5t-34.5 -52.5t-50.5 -35t-61.5 -17q26 -8 43.5 -22t29.5 -30.5t19.5 -33t13.5 -30.5l62 -146q6 -14 15.5 -30t16.5 -24v-5
z" />
    <glyph glyph-name="S" unicode="S" horiz-adv-x="579" 
d="M272 -10q-36 0 -72.5 10.5t-66 28.5t-47.5 42.5t-18 53.5v44h5q31 -42 85.5 -67.5t120.5 -25.5q44 0 73.5 8t47.5 22t25.5 34.5t7.5 46.5q0 27 -8 46t-28 33t-54.5 25.5t-86.5 23.5q-100 22 -149 59.5t-49 110.5q0 43 18 80.5t51 65.5t81 43.5t108 15.5q47 0 83.5 -11
t61 -29t37.5 -40.5t13 -45.5v-41h-5q-32 41 -77.5 61t-117.5 20q-75 0 -116 -27.5t-41 -77.5q0 -24 7 -41t25 -29.5t50 -23t83 -22.5q36 -8 73 -22.5t67.5 -37t49.5 -53.5t19 -73t-15.5 -80t-47 -66t-80 -44.5t-113.5 -16.5z" />
    <glyph glyph-name="T" unicode="T" horiz-adv-x="523" 
d="M518 646q0 -7 -4 -15.5t-11 -16t-16.5 -12.5t-21.5 -5h-160v-597h-34q-29 0 -44 12t-15 46v539h-207v34q0 20 13 35t45 15h455v-35z" />
    <glyph glyph-name="U" unicode="U" horiz-adv-x="684" 
d="M70 680h32q33 0 46.5 -15.5t13.5 -56.5v-293q0 -127 44 -183.5t139 -56.5q48 0 82 13.5t55 41.5t30.5 72t9.5 105v373h35q57 0 57 -67v-298q0 -156 -70 -240.5t-205 -84.5t-202 83t-67 234v373z" />
    <glyph glyph-name="V" unicode="V" horiz-adv-x="602" 
d="M574 615q-10 -49 -26.5 -106t-37.5 -116.5t-44.5 -118t-47 -111t-45.5 -96t-40 -72.5h-23q-13 0 -29 10.5t-30 34.5q-42 70 -77.5 149.5t-64.5 162.5t-51 166.5t-35 161.5h40q19 0 40 -14t26 -41q10 -51 27.5 -117.5t40.5 -136.5t51 -138t58 -122q28 55 56.5 125.5
t54 146.5t45.5 153t31 144h44q17 0 28.5 -11t11.5 -25t-3 -29z" />
    <glyph glyph-name="W" unicode="W" horiz-adv-x="953" 
d="M900 583q-13 -69 -33 -142.5t-45.5 -148.5t-57.5 -150t-69 -147h-23q-14 0 -25 10t-18 22q-18 34 -39 83.5t-42 109.5t-40 129t-34 142q-15 -73 -36.5 -148t-44.5 -142t-45 -121t-40 -85h-20q-19 0 -32.5 12t-18.5 20q-75 146 -124 308t-75 345h48q23 0 38 -18.5
t19 -41.5q20 -118 54.5 -245.5t85.5 -246.5q23 60 44 123.5t39 125.5t33 121t26 109q1 5 2.5 14t3.5 17l4 20h26q17 0 29 -3t20 -11.5t13.5 -23.5t10.5 -39q10 -47 24.5 -104.5t32.5 -117.5t39 -119.5t44 -111.5q25 60 48.5 129.5t44 142t35.5 144.5t22 136h47
q15 0 26 -11.5t11 -31.5q0 -14 -3 -27t-5 -27z" />
    <glyph glyph-name="X" unicode="X" horiz-adv-x="643" 
d="M555 -8q-19 0 -36 6t-35.5 21t-39 41t-47.5 65l-108 160q-81 -89 -126.5 -161t-47.5 -124h-37q-16 0 -26.5 14t-10.5 26q-1 20 1 30.5t9 28.5q5 13 13 29t20 35t29.5 42.5t43.5 52.5l87 98l-99 144q-21 31 -40 57.5t-34 48.5t-25.5 40t-15.5 34h55q7 0 16.5 -2.5t24 -14
t34 -34.5t46.5 -63l104 -156q45 49 77.5 88.5t54 72t35 59t21.5 50.5h31q14 0 25 -12t11 -34q0 -17 -14 -45t-41 -65.5t-66.5 -83.5t-88.5 -99l115 -169q37 -54 73.5 -94t69.5 -70q-11 -8 -23.5 -12t-34.5 -4z" />
    <glyph glyph-name="Y" unicode="Y" horiz-adv-x="553" 
d="M541 643q0 -11 -11 -35.5t-28.5 -57t-40 -69.5t-46.5 -73.5t-47.5 -68.5t-41.5 -54v-285h-34q-26 0 -42 13t-16 42v229q-30 40 -61.5 89t-61 101.5t-54.5 105t-42 100.5h47q49 0 69 -49q26 -63 66 -134t90 -143q24 34 50 75t50.5 84.5t45 86.5t34.5 80h38q20 0 28 -10
t8 -27z" />
    <glyph glyph-name="Z" unicode="Z" horiz-adv-x="589" 
d="M537 49q0 -21 -16 -35t-42 -14h-361q-27 0 -42.5 14.5t-15.5 35.5q0 17 5.5 35t18.5 40.5t33 50.5t50 66l193 245q25 32 41.5 61t20.5 49h-367v19q0 30 15.5 47t62.5 17h352q14 0 29 -14t15 -37q0 -58 -86 -168l-191 -244q-29 -37 -53 -71t-38 -63h376v-34z" />
    <glyph glyph-name="bracketleft" unicode="[" horiz-adv-x="320" 
d="M89 720h155q26 0 41.5 -14t15.5 -40v-17h-128v-748h71q26 0 41.5 -14t15.5 -39v-18h-212v890z" />
    <glyph glyph-name="backslash" unicode="\" horiz-adv-x="490" 
d="M423 0q-31 0 -53 15.5t-33 38.5l-286 626h32q25 0 45 -14t28 -32l289 -634h-22z" />
    <glyph glyph-name="bracketright" unicode="]" horiz-adv-x="320" 
d="M230 -170h-155q-26 0 -42 14t-16 40v17h129v748h-71q-26 0 -42 14t-16 39v18h213v-890z" />
    <glyph glyph-name="asciicircum" unicode="^" horiz-adv-x="491" 
d="M338 458q-4 12 -13 31.5t-21.5 43t-27 50.5t-30.5 54q-32 -54 -65.5 -111.5t-56.5 -108.5h-13q-25 0 -33.5 10.5t-8.5 20.5q0 7 4.5 14t6.5 13q9 22 25 52t35.5 63.5t42 67t45.5 62.5h18q17 0 28 -12t19 -23q12 -17 30 -47.5t37 -67t37.5 -77.5t32.5 -79q-40 1 -63 14
t-29 30z" />
    <glyph glyph-name="underscore" unicode="_" horiz-adv-x="565" 
d="M0 -285v85h565v-85h-565z" />
    <glyph glyph-name="grave" unicode="`" horiz-adv-x="529" 
d="M307 628q-10 0 -21 1t-25 4.5t-32 10t-42 17.5q-64 29 -64 70q0 17 10.5 28.5t30.5 11.5q17 0 37.5 -7.5t46.5 -33.5q19 -19 40.5 -44t34.5 -52v-6h-16z" />
    <glyph glyph-name="a" unicode="a" horiz-adv-x="535" 
d="M378 250h-73q-81 0 -118.5 -23.5t-37.5 -68.5q0 -35 31.5 -59.5t83.5 -24.5q61 0 87.5 25.5t26.5 83.5v67zM468 176q0 -41 -11.5 -75t-36.5 -58.5t-64.5 -38.5t-95.5 -14q-41 0 -78 11.5t-65 32t-44.5 49.5t-16.5 65q0 87 64 132.5t185 45.5h72v25q0 59 -30 84.5
t-96 25.5q-60 0 -103.5 -20.5t-66.5 -52.5h-5v44q0 18 12 38t35 36.5t57.5 27.5t79.5 11q103 0 155.5 -51.5t52.5 -149.5v-168z" />
    <glyph glyph-name="b" unicode="b" horiz-adv-x="614" 
d="M466 266q0 54 -12 91.5t-33 60t-49.5 32.5t-61.5 10q-32 0 -59 -14t-46.5 -39.5t-30.5 -61.5t-11 -79q0 -50 11.5 -86.5t32 -59.5t49 -34t63.5 -11q33 0 60.5 13.5t46.5 38.5t29.5 60.5t10.5 78.5zM559 276q0 -61 -18 -113.5t-51 -90.5t-79.5 -60t-103.5 -22
q-56 0 -100 19.5t-74.5 54.5t-46.5 83.5t-16 107.5v465h43q18 0 34 -14.5t16 -47.5v-219q23 50 69 78t102 28q46 0 87 -17.5t71.5 -51.5t48.5 -84.5t18 -115.5z" />
    <glyph glyph-name="c" unicode="c" horiz-adv-x="521" 
d="M461 390q-7 15 -22 28t-33.5 22t-40 14.5t-40.5 5.5q-40 0 -72.5 -14t-56 -38.5t-36 -58.5t-12.5 -74q0 -53 16.5 -90.5t42 -62t57.5 -36t63 -11.5q44 0 79 11.5t55 35.5h5v-38q0 -13 -8 -29t-26.5 -30.5t-48 -24.5t-72.5 -10q-42 0 -87.5 18t-83 52.5t-61.5 85
t-24 115.5q0 57 19 108.5t53.5 90.5t83.5 62t109 23q30 0 56.5 -7.5t46.5 -22t31.5 -36.5t11.5 -51v-38h-5z" />
    <glyph glyph-name="d" unicode="d" horiz-adv-x="612" 
d="M449 258q0 36 -6.5 72.5t-24 65t-48 46.5t-78.5 18q-70 0 -107.5 -50.5t-37.5 -141.5q0 -40 12 -75t33 -61.5t50.5 -41.5t65.5 -15q73 0 107 42.5t34 140.5zM542 283q0 -154 -58.5 -223.5t-183.5 -69.5q-50 0 -94.5 21t-78 58t-53 86t-19.5 105q0 138 61 211.5t173 73.5
q49 0 91 -24t70 -79v278h24q68 0 68 -74v-363z" />
    <glyph glyph-name="e" unicode="e" horiz-adv-x="562" 
d="M419 354q0 22 -7.5 41.5t-23 34.5t-39 24t-54.5 9q-33 0 -59.5 -12.5t-45.5 -33t-30 -46t-12 -51.5l-1 -22l121 2q48 1 78 4t46 9t21.5 16t5.5 25zM507 359q0 -35 -9.5 -60.5t-35 -41.5t-69.5 -23.5t-113 -7.5h-132q7 -67 51.5 -109.5t119.5 -42.5q62 0 100.5 16.5
t61.5 38.5h5v-40q0 -42 -44.5 -70.5t-135.5 -28.5q-55 0 -101 20t-79.5 55.5t-52 84.5t-18.5 107q0 65 19 118t52.5 91t79.5 58.5t99 20.5q39 0 75.5 -14t64.5 -39t45 -59t17 -74z" />
    <glyph glyph-name="f" unicode="f" horiz-adv-x="354" 
d="M349 607q-18 16 -37.5 21.5t-42.5 5.5q-53 0 -75.5 -25.5t-22.5 -83.5v-66h159v-33q0 -19 -15.5 -33.5t-44.5 -14.5h-100v-378h-34q-30 0 -43 18t-13 47v470q0 35 12 68.5t35 59.5t55.5 41.5t74.5 15.5q24 0 42 -6t30.5 -16t18.5 -21.5t6 -21.5v-48h-5z" />
    <glyph glyph-name="g" unicode="g" horiz-adv-x="579" 
d="M424 295q0 87 -32 126t-97 39q-35 0 -63 -13t-47 -35t-29 -50.5t-10 -58.5q0 -40 10.5 -68.5t29 -46.5t44.5 -26t57 -8q65 0 101 40t36 101zM512 171q0 -9 0.5 -22t1.5 -26.5t1.5 -26t0.5 -19.5q0 -62 -20 -108t-54 -76t-80.5 -44.5t-98.5 -14.5q-32 0 -62 7.5t-53.5 22
t-37.5 34t-14 43.5v37h7q28 -26 66.5 -42t104.5 -16q33 0 61 9.5t49 28t33 47t12 67.5q0 11 -2.5 30t-2.5 39v27q-8 -19 -21 -36.5t-31 -31t-42 -21.5t-54 -8q-47 0 -87.5 14.5t-70.5 42t-47 67t-17 89.5q0 49 15.5 96t47 84t79.5 59t113 22q45 0 82.5 -14t64 -42.5
t41.5 -71t15 -99.5v-147z" />
    <glyph glyph-name="h" unicode="h" horiz-adv-x="592" 
d="M498 0q-36 0 -51.5 14.5t-15.5 44.5v253q0 80 -33 113.5t-95 33.5q-23 0 -47 -9.5t-43 -28.5t-31 -47.5t-12 -66.5v-307h-26q-34 0 -49 14.5t-15 44.5v661h27q31 0 48 -15t17 -53v-201q29 54 68 74t76 20q95 0 150.5 -55t55.5 -175v-315h-24z" />
    <glyph glyph-name="i" unicode="i" horiz-adv-x="317" 
d="M302 49q0 -26 -14.5 -40t-38.5 -14q-160 0 -160 159v381h28q23 0 43 -18t20 -53v-297q0 -50 22.5 -69t60.5 -19h39v-30zM198 671q0 -26 -17.5 -44t-43.5 -18t-44 18t-18 44t18 44.5t44 18.5t43.5 -18.5t17.5 -44.5z" />
    <glyph glyph-name="j" unicode="j" horiz-adv-x="315" 
d="M222 -10q0 -78 -41 -124t-119 -46q-36 0 -54 14.5t-18 31.5v31l56 4q41 3 63 26t22 67v541h28q36 0 49.5 -16.5t13.5 -54.5v-474zM240 671q0 -26 -17.5 -44t-43.5 -18t-44 18t-18 44t18 44.5t44 18.5t43.5 -18.5t17.5 -44.5z" />
    <glyph glyph-name="k" unicode="k" horiz-adv-x="499" 
d="M485 41q-3 -10 -6 -18t-9 -14t-17 -9t-29 -3q-23 0 -39.5 7.5t-30.5 22.5q-53 54 -101 114.5t-95 119.5v-261h-29q-59 0 -59 72v648h28q60 0 60 -60v-360q24 30 50.5 60.5t52 58.5t49.5 52.5t44 42.5q8 8 26 14t44 6h63v-5q-19 -15 -38 -31t-46 -42t-65 -66t-94 -103
q35 -47 70 -92t76 -87q17 -18 30 -29.5t24 -19t20.5 -11.5t20.5 -7z" />
    <glyph glyph-name="l" unicode="l" horiz-adv-x="320" 
d="M315 50q0 -54 -73 -54q-79 0 -120.5 39t-41.5 120v565h28q28 0 46 -17.5t18 -52.5v-484q0 -50 23 -68t61 -18h59v-30z" />
    <glyph glyph-name="m" unicode="m" horiz-adv-x="894" 
d="M793 0q-26 0 -43 17.5t-17 49.5v236q0 84 -30 120t-85 36q-66 0 -95.5 -36t-29.5 -117v-306h-31q-33 0 -47 17.5t-14 49.5v236q0 73 -31 114.5t-89 41.5q-60 0 -90 -37t-30 -119v-303h-29q-29 0 -46 16.5t-17 50.5v248q0 46 14.5 88t42 73.5t68 50t93.5 18.5
q60 0 100.5 -25t65.5 -72q26 44 70.5 70.5t97.5 26.5q100 0 152 -59.5t52 -179.5v-306h-32z" />
    <glyph glyph-name="n" unicode="n" horiz-adv-x="582" 
d="M479 0q-57 0 -57 59v246q0 84 -32 119t-104 35q-60 0 -93 -36t-33 -118v-305h-34q-25 0 -40.5 15t-15.5 47v245q0 56 16 100.5t46 75t72 46.5t93 16q101 0 158 -58t57 -179v-308h-33z" />
    <glyph glyph-name="o" unicode="o" horiz-adv-x="599" 
d="M451 257q0 100 -41 150.5t-120 50.5q-65 0 -104 -48.5t-39 -132.5q0 -93 43 -147t122 -54q34 0 60 13.5t43.5 37.5t26.5 57.5t9 72.5zM543 278q0 -68 -17 -121t-48.5 -90.5t-76 -57t-98.5 -19.5q-53 0 -98.5 19.5t-78.5 55t-52 84.5t-19 109q0 66 17.5 119t50 90t78 57
t102.5 20q53 0 97.5 -19t76 -54t49 -84t17.5 -109z" />
    <glyph glyph-name="p" unicode="p" horiz-adv-x="611" 
d="M464 255q0 54 -11.5 93t-32.5 63.5t-50 36t-64 11.5q-71 0 -108.5 -49t-37.5 -132q0 -104 46 -153.5t120 -49.5q65 0 101.5 46t36.5 134zM556 280q0 -69 -18.5 -122.5t-51 -91t-76 -57t-94.5 -19.5q-23 0 -46 7t-43.5 19t-37.5 29.5t-27 38.5v-254h-33q-29 0 -44 15.5
t-15 53.5v354q0 136 64 214t192 78q44 0 85.5 -19t73.5 -54t51.5 -84t19.5 -108z" />
    <glyph glyph-name="q" unicode="q" horiz-adv-x="611" 
d="M451 271q0 51 -10.5 86.5t-29.5 58.5t-45.5 33.5t-59.5 10.5q-37 0 -66.5 -14t-50 -39.5t-31.5 -61.5t-11 -79q0 -45 12 -80.5t32.5 -60t48 -37.5t59.5 -13q33 0 61 10t48 33.5t31.5 61t11.5 91.5zM507 -170q-28 0 -43 17.5t-15 43.5v198q-8 -21 -24 -39t-37 -31.5
t-46.5 -21t-53.5 -7.5q-45 0 -87.5 18.5t-74.5 53t-51.5 85t-19.5 113.5q0 60 19.5 112.5t54 90.5t82 60t103.5 22q52 0 94.5 -17.5t72.5 -50.5t46 -81.5t16 -111.5v-454h-36z" />
    <glyph glyph-name="r" unicode="r" horiz-adv-x="363" 
d="M346 422q-13 11 -34 19t-48 8t-45.5 -7.5t-30 -24.5t-17 -45.5t-5.5 -71.5v-300h-39q-25 0 -38.5 17.5t-13.5 43.5v246q0 112 49 169.5t127 57.5q55 0 77.5 -20.5t22.5 -47.5v-44h-5z" />
    <glyph glyph-name="s" unicode="s" horiz-adv-x="488" 
d="M434 162q0 -42 -15.5 -74t-43.5 -54t-66 -33t-84 -11q-34 0 -63.5 7.5t-51.5 21.5t-34.5 33.5t-12.5 43.5v39h5q23 -25 65 -42.5t94 -17.5q60 0 87 19t27 59q0 16 -5 28.5t-20 22.5t-42.5 19t-73.5 19q-75 16 -111 45.5t-36 89.5q0 33 14.5 63t41.5 53.5t66.5 37.5
t89.5 14q30 0 58 -6.5t49.5 -19.5t35 -32t13.5 -43v-40h-5q-17 21 -57 38t-87 17q-69 0 -98 -21t-29 -55q0 -14 5 -24t19 -18t39.5 -16t67.5 -17q158 -34 158 -146z" />
    <glyph glyph-name="t" unicode="t" horiz-adv-x="374" 
d="M170 534h184v-30q0 -25 -17 -40t-53 -15h-113v-265q0 -57 22 -82.5t66 -25.5q25 0 47.5 3t36.5 12h5v-32q0 -34 -25 -51.5t-72 -17.5q-90 0 -130.5 46t-40.5 139v348q0 49 23 83q10 14 28 26t28 12h11v-110z" />
    <glyph glyph-name="u" unicode="u" horiz-adv-x="582" 
d="M512 230q0 -118 -58 -179t-166 -61q-49 0 -89.5 16.5t-69 48.5t-44 78t-15.5 105v297h28q63 0 63 -71v-221q0 -82 37 -124.5t96 -42.5q63 0 95 38t32 125v296h25q66 0 66 -71v-234z" />
    <glyph glyph-name="v" unicode="v" horiz-adv-x="526" 
d="M493 423q-11 -46 -32 -106t-48 -120.5t-58 -115.5t-62 -91h-25q-13 0 -24 5.5t-22 20.5q-77 114 -127.5 249t-70.5 270h45q27 0 39 -16t16 -36q18 -92 51.5 -192.5t96.5 -197.5q30 45 56.5 105.5t47.5 123t36 119t21 94.5h32q20 0 29.5 -12t9.5 -31t-4 -38.5t-7 -30.5z
" />
    <glyph glyph-name="w" unicode="w" horiz-adv-x="824" 
d="M794 490q0 -16 -1 -36t-4 -35q-13 -59 -32.5 -118t-42 -114.5t-48 -105.5t-50.5 -90h-18q-34 0 -50 27q-18 31 -39 73t-39.5 89.5t-33 95.5t-19.5 91q-8 -42 -24 -95t-37 -106t-44 -100t-44 -76h-19q-14 0 -26 6.5t-21 21.5q-66 113 -111 247t-63 270h48q25 0 39.5 -16
t17.5 -36q14 -87 41 -181t72 -187q25 48 46 100.5t37.5 105.5t29.5 104t24 96h29q25 0 40.5 -15t20.5 -39q18 -84 47.5 -177.5t72.5 -174.5q20 39 41 93.5t38 113t29.5 115t15.5 98.5h28q22 0 35.5 -11.5t13.5 -33.5z" />
    <glyph glyph-name="x" unicode="x" horiz-adv-x="511" 
d="M489 23q-6 -7 -15.5 -17.5t-29.5 -10.5q-16 0 -28.5 2.5t-23.5 9.5t-23 19t-28 31q-29 35 -56 75.5t-52 77.5q-20 -22 -40.5 -45.5t-38 -50t-29.5 -55t-14 -59.5h-42q-14 0 -25.5 11.5t-11.5 31.5q0 16 5 32.5t13 34.5q20 45 59 89t78 85q-29 45 -53.5 82.5t-45.5 69.5
q-17 26 -31 47t-29 44v8h54q28 0 47.5 -15t30.5 -33q8 -14 16.5 -28t19.5 -31t24.5 -38t30.5 -48q24 25 45 49t37 46q20 29 32 53.5t16 44.5h24q19 0 31 -14t12 -39q0 -19 -11 -43t-44 -64q-17 -20 -40.5 -45.5t-58.5 -60.5l101 -141q35 -48 56.5 -69t37.5 -29v-7z" />
    <glyph glyph-name="y" unicode="y" horiz-adv-x="531" 
d="M498 438q-15 -60 -38 -119.5t-46.5 -111.5t-44 -93l-31.5 -63q-32 -65 -58 -108.5t-50.5 -69.5t-49.5 -37.5t-53 -11.5q-31 0 -50 14.5t-19 31.5v34h43q16 0 29.5 3.5t28.5 16t32.5 38t40.5 69.5q-32 48 -63 108.5t-59 126.5t-50 134.5t-34 134.5h52q28 0 39.5 -17.5
t16.5 -36.5q9 -40 23.5 -86.5t33 -94.5t41 -95t47.5 -88q21 37 45 90.5t45.5 111.5t38 115t23.5 101h36q18 0 30 -8.5t12 -32.5q0 -8 -4 -26.5t-7 -29.5z" />
    <glyph glyph-name="z" unicode="z" horiz-adv-x="502" 
d="M462 49q0 -22 -17 -35.5t-46 -13.5h-297q-25 0 -41.5 14t-16.5 37q0 13 3.5 26.5t12.5 29.5t23.5 35t36.5 43l182 204q11 11 25 30t19 33h-306v31q0 23 15.5 37.5t39.5 14.5h305q22 0 38.5 -11.5t16.5 -38.5q0 -29 -19.5 -60.5t-55.5 -72.5l-173 -192q-20 -23 -31.5 -40
t-22.5 -37h309v-34z" />
    <glyph glyph-name="braceleft" unicode="{" horiz-adv-x="370" 
d="M132 568q0 35 11 63t30.5 48t45 30.5t54.5 10.5q36 0 52.5 -11t16.5 -36v-19q-22 1 -33.5 1h-19.5q-42 0 -61 -28.5t-19 -82.5q0 -16 -0.5 -39.5t1.5 -41.5q2 -17 2.5 -29.5t0.5 -32.5q0 -57 -21.5 -83.5t-67.5 -35.5v-3q47 -10 68 -44t21 -84q0 -20 -0.5 -33t-2.5 -30
q-2 -18 -1.5 -41.5t0.5 -38.5q0 -112 80 -112h9q16 0 31.5 -14.5t15.5 -33.5v-18h-71q-63 0 -102.5 39.5t-39.5 114.5q0 20 0.5 46t2.5 47q2 23 3 38t1 36q0 35 -17.5 59.5t-51.5 30.5q-24 5 -30.5 14t-6.5 17v33l37 6q40 7 54 33t14 54q0 21 -0.5 37.5t-2.5 39.5
q-1 7 -1.5 18.5t-1 25t-0.5 26.5v23z" />
    <glyph glyph-name="bar" unicode="|" horiz-adv-x="257" 
d="M135 -170q-14 0 -27.5 12t-13.5 33v845h20q15 0 28.5 -10t13.5 -30v-850h-21z" />
    <glyph glyph-name="braceright" unicode="}" horiz-adv-x="370" 
d="M239 -18q0 -35 -11 -63t-30.5 -48t-45 -30.5t-54.5 -10.5q-36 0 -52.5 11t-16.5 36v19q21 -1 33 -1h20q42 0 61 28.5t19 82.5q0 16 0.5 39.5t-1.5 41.5q-2 17 -2.5 29.5t-0.5 32.5q0 57 21.5 83.5t67.5 35.5v3q-47 9 -68 43.5t-21 84.5q0 20 0.5 33t2.5 30q2 18 1.5 41
t-0.5 39q0 112 -80 112h-9q-17 0 -32 14t-15 34v18h71q63 0 102.5 -39.5t39.5 -114.5q0 -20 -0.5 -46t-2.5 -47q-2 -23 -3 -38.5t-1 -35.5q0 -35 17.5 -59.5t51.5 -30.5q24 -5 30.5 -14t6.5 -17v-33l-37 -6q-20 -3 -33.5 -12t-21 -21t-10.5 -26t-3 -28q0 -21 0.5 -38
t2.5 -39q1 -7 1.5 -18.5t1 -25t0.5 -26.5v-23z" />
    <glyph glyph-name="asciitilde" unicode="~" horiz-adv-x="591" 
d="M388 230q-28 0 -48.5 11t-43.5 25t-47.5 22.5t-41.5 8.5q-30 0 -50 -22.5t-25 -55.5h-12q-4 0 -10.5 2t-12.5 7t-10.5 14t-4.5 23q0 31 12 53.5t30 36t38.5 20t38.5 6.5q27 0 47 -10t43 -24q9 -6 21 -12t25 -11.5t25.5 -9t22.5 -3.5q35 0 53 20t22 55h19q9 0 20 -10
t11 -36q0 -23 -9 -43t-25 -35t-38.5 -23.5t-49.5 -8.5z" />
    <glyph glyph-name="Adieresis" unicode="&#xc4;" horiz-adv-x="597" 
d="M434 253q-27 97 -59.5 180.5t-77.5 164.5q-24 -43 -43.5 -84.5t-36 -83.5t-30.5 -86t-27 -91h274zM552 0q-29 0 -43.5 12.5t-19.5 35.5q-7 35 -16.5 71t-15.5 61h-318q-5 -19 -10.5 -41.5t-11 -46.5t-10.5 -47.5t-9 -44.5h-35q-41 0 -41 44q0 23 10.5 70.5t28.5 107.5
t41.5 127t50.5 130t55 116t54 85h30q29 0 49.5 -19t42.5 -57q15 -26 33.5 -66t38 -88.5t39 -104.5t36.5 -114t31.5 -117t22.5 -114h-33zM125 815q0 25 18 42.5t43 17.5t42.5 -17.5t17.5 -42.5t-17.5 -43t-42.5 -18t-43 18t-18 43zM333 815q0 25 17.5 42.5t42.5 17.5
t43 -17.5t18 -42.5t-18 -43t-43 -18t-42.5 18t-17.5 43z" />
    <glyph glyph-name="Aring" unicode="&#xc5;" horiz-adv-x="597" 
d="M431 253q-25 97 -58.5 180.5t-78.5 164.5q-24 -43 -43.5 -84.5t-36 -83.5t-30.5 -86t-27 -91h274zM292 770q-19 0 -31 -14.5t-12 -36.5q0 -20 12.5 -34.5t29.5 -14.5q19 0 32 13t13 36q0 22 -12.5 36.5t-31.5 14.5zM547 0q-29 0 -44.5 13.5t-18.5 34.5q-5 35 -14.5 71
t-15.5 61h-318q-5 -19 -10.5 -41.5t-11 -46.5t-10.5 -47.5t-9 -44.5h-36q-41 0 -41 44q0 21 9 62t24 93t35.5 111.5t44 118t48.5 112t50 93.5q-22 14 -33 36.5t-11 48.5q0 21 6.5 39.5t19.5 33t33.5 23t47.5 8.5q54 0 80 -31t26 -73q0 -52 -39 -82q9 -10 22 -33
q15 -26 33.5 -66t38 -88.5t39 -104.5t36.5 -114t31.5 -117t22.5 -114h-35z" />
    <glyph glyph-name="Ccedilla" unicode="&#xc7;" horiz-adv-x="591" 
d="M559 529q-29 43 -75 59.5t-92 16.5q-55 0 -100 -18.5t-77.5 -51.5t-50 -78.5t-17.5 -99.5q0 -70 19 -123t53 -88t79 -53t98 -18q54 0 94.5 17.5t68.5 49.5h5v-28q0 -24 -12.5 -47t-36 -40t-58 -27t-79.5 -10h-8l-4 -40q106 0 106 -74q0 -26 -10.5 -43t-28 -27.5
t-39.5 -14.5t-45 -4q-13 0 -30.5 1.5t-33 7.5t-26 17.5t-10.5 31.5v23q20 -14 45.5 -19t48.5 -5q32 0 44 5.5t12 23.5q0 16 -11.5 22t-41.5 6q-13 0 -26.5 -0.5t-24.5 -2.5q5 16 13 45.5t13 51.5q-57 10 -105.5 39.5t-84 74.5t-56 104t-20.5 129q0 67 22.5 130t65.5 111.5
t105.5 77.5t142.5 29q42 0 74.5 -11.5t55 -30t34 -41t11.5 -43.5v-35h-7z" />
    <glyph glyph-name="Eacute" unicode="&#xc9;" horiz-adv-x="560" 
d="M255 760q13 27 34.5 52t40.5 44q26 26 46.5 33.5t37.5 7.5q20 0 30.5 -11.5t10.5 -28.5q0 -41 -64 -70q-48 -22 -74.5 -27.5t-45.5 -5.5h-16v6zM523 71q0 -18 -4 -32t-17.5 -23.5t-38.5 -15t-67 -5.5h-84q-128 0 -187.5 71.5t-59.5 211.5v123q0 22 2 46.5t5 49t7 47.5
t9 41q12 50 32 72.5t54 22.5h355v-37q0 -18 -14 -32.5t-52 -14.5h-282q-11 -42 -17.5 -97.5t-6.5 -109.5h295v-29q0 -20 -14 -34.5t-45 -14.5h-236v-50q0 -51 10 -86t32.5 -56.5t57.5 -31t86 -9.5h52q38 0 71 6t57 13v-26z" />
    <glyph glyph-name="Ntilde" unicode="&#xd1;" horiz-adv-x="685" 
d="M394 749q-17 0 -37 11t-33 25q-14 14 -26.5 23.5t-23.5 9.5q-21 0 -30.5 -18.5t-9.5 -51.5h-28q-8 0 -19.5 10t-11.5 31q0 26 9 45t23.5 31t31.5 17.5t33 5.5t34.5 -8.5t32.5 -22.5q17 -17 29 -27.5t26 -10.5q41 0 41 70h29q9 0 20 -10.5t11 -31.5q0 -46 -29 -72t-72 -26
zM577 0q-23 0 -45.5 7.5t-45.5 27.5t-47 55t-51 89l-144 291q-21 43 -38.5 69t-36.5 44v-583h-38q-22 0 -36.5 16t-14.5 46v619h44q60 0 102 -37.5t72 -98.5l144 -292q20 -39 37 -76t40 -65v568h38q20 0 34 -13.5t14 -34.5v-632h-28z" />
    <glyph glyph-name="Odieresis" unicode="&#xd6;" horiz-adv-x="726" 
d="M200 815q0 25 18 42.5t43 17.5t42.5 -17.5t17.5 -42.5t-17.5 -43t-42.5 -18t-43 18t-18 43zM408 815q0 25 17.5 42.5t42.5 17.5t43 -17.5t18 -42.5t-18 -43t-43 -18t-42.5 18t-17.5 43zM580 332q0 137 -53.5 205.5t-168.5 68.5q-97 0 -154 -63.5t-57 -193.5
q0 -133 55.5 -204t166.5 -71q49 0 88.5 18t66.5 51.5t41.5 81.5t14.5 107zM671 349q0 -78 -21 -144t-60.5 -113.5t-98 -74.5t-133.5 -27q-62 0 -116.5 23t-96 67t-65.5 107.5t-24 144.5q0 78 21 144t60.5 113.5t98 74t133.5 26.5q69 0 124.5 -25t95 -70t61 -108t21.5 -138z
" />
    <glyph glyph-name="Udieresis" unicode="&#xdc;" horiz-adv-x="684" 
d="M172 815q0 25 18 42.5t43 17.5t42.5 -17.5t17.5 -42.5t-17.5 -43t-42.5 -18t-43 18t-18 43zM380 815q0 25 17.5 42.5t42.5 17.5t43 -17.5t18 -42.5t-18 -43t-43 -18t-42.5 18t-17.5 43zM70 680h32q33 0 46.5 -15.5t13.5 -56.5v-293q0 -127 44 -183.5t139 -56.5
q48 0 82 13.5t55 41.5t30.5 72t9.5 105v373h35q57 0 57 -67v-298q0 -156 -70 -240.5t-205 -84.5t-202 83t-67 234v373z" />
    <glyph glyph-name="aacute" unicode="&#xe1;" horiz-adv-x="535" 
d="M208 634q13 27 34.5 52t40.5 44q26 26 46.5 33.5t37.5 7.5q20 0 30.5 -11.5t10.5 -28.5q0 -41 -64 -70q-48 -22 -74.5 -27.5t-45.5 -5.5h-16v6zM378 250h-73q-81 0 -118.5 -23.5t-37.5 -68.5q0 -35 31.5 -59.5t83.5 -24.5q61 0 87.5 25.5t26.5 83.5v67zM468 176
q0 -41 -11.5 -75t-36.5 -58.5t-64.5 -38.5t-95.5 -14q-41 0 -78 11.5t-65 32t-44.5 49.5t-16.5 65q0 87 64 132.5t185 45.5h72v25q0 59 -30 84.5t-96 25.5q-60 0 -103.5 -20.5t-66.5 -52.5h-5v44q0 18 12 38t35 36.5t57.5 27.5t79.5 11q103 0 155.5 -51.5t52.5 -149.5v-168z
" />
    <glyph glyph-name="agrave" unicode="&#xe0;" horiz-adv-x="535" 
d="M307 628q-10 0 -21 1t-25 4.5t-32 10t-42 17.5q-64 29 -64 70q0 17 10.5 28.5t30.5 11.5q17 0 37.5 -7.5t46.5 -33.5q19 -19 40.5 -44t34.5 -52v-6h-16zM378 250h-73q-81 0 -118.5 -23.5t-37.5 -68.5q0 -35 31.5 -59.5t83.5 -24.5q61 0 87.5 25.5t26.5 83.5v67zM468 176
q0 -41 -11.5 -75t-36.5 -58.5t-64.5 -38.5t-95.5 -14q-41 0 -78 11.5t-65 32t-44.5 49.5t-16.5 65q0 87 64 132.5t185 45.5h72v25q0 59 -30 84.5t-96 25.5q-60 0 -103.5 -20.5t-66.5 -52.5h-5v44q0 18 12 38t35 36.5t57.5 27.5t79.5 11q103 0 155.5 -51.5t52.5 -149.5v-168z
" />
    <glyph glyph-name="acircumflex" unicode="&#xe2;" horiz-adv-x="535" 
d="M259 672l-150 -78v40q0 39 32 57l119 69l117 -68q17 -10 26 -23.5t9 -34.5v-40zM378 250h-73q-81 0 -118.5 -23.5t-37.5 -68.5q0 -35 31.5 -59.5t83.5 -24.5q61 0 87.5 25.5t26.5 83.5v67zM468 176q0 -41 -11.5 -75t-36.5 -58.5t-64.5 -38.5t-95.5 -14q-41 0 -78 11.5
t-65 32t-44.5 49.5t-16.5 65q0 87 64 132.5t185 45.5h72v25q0 59 -30 84.5t-96 25.5q-60 0 -103.5 -20.5t-66.5 -52.5h-5v44q0 18 12 38t35 36.5t57.5 27.5t79.5 11q103 0 155.5 -51.5t52.5 -149.5v-168z" />
    <glyph glyph-name="adieresis" unicode="&#xe4;" horiz-adv-x="535" 
d="M96 680q0 25 18 42.5t43 17.5t42.5 -17.5t17.5 -42.5t-17.5 -43t-42.5 -18t-43 18t-18 43zM304 680q0 25 17.5 42.5t42.5 17.5t43 -17.5t18 -42.5t-18 -43t-43 -18t-42.5 18t-17.5 43zM378 250h-73q-81 0 -118.5 -23.5t-37.5 -68.5q0 -35 31.5 -59.5t83.5 -24.5
q61 0 87.5 25.5t26.5 83.5v67zM468 176q0 -41 -11.5 -75t-36.5 -58.5t-64.5 -38.5t-95.5 -14q-41 0 -78 11.5t-65 32t-44.5 49.5t-16.5 65q0 87 64 132.5t185 45.5h72v25q0 59 -30 84.5t-96 25.5q-60 0 -103.5 -20.5t-66.5 -52.5h-5v44q0 18 12 38t35 36.5t57.5 27.5
t79.5 11q103 0 155.5 -51.5t52.5 -149.5v-168z" />
    <glyph glyph-name="atilde" unicode="&#xe3;" horiz-adv-x="535" 
d="M317 623q-17 0 -37 11t-33 25q-14 14 -26.5 23.5t-23.5 9.5q-21 0 -30.5 -18.5t-9.5 -51.5h-28q-8 0 -19.5 10t-11.5 31q0 26 9 45t23.5 31t31.5 17.5t33 5.5t34.5 -8.5t32.5 -22.5q17 -17 29 -27.5t26 -10.5q41 0 41 70h29q9 0 20 -10.5t11 -31.5q0 -46 -29 -72t-72 -26
zM378 250h-73q-81 0 -118.5 -23.5t-37.5 -68.5q0 -35 31.5 -59.5t83.5 -24.5q61 0 87.5 25.5t26.5 83.5v67zM468 176q0 -41 -11.5 -75t-36.5 -58.5t-64.5 -38.5t-95.5 -14q-41 0 -78 11.5t-65 32t-44.5 49.5t-16.5 65q0 87 64 132.5t185 45.5h72v25q0 59 -30 84.5t-96 25.5
q-60 0 -103.5 -20.5t-66.5 -52.5h-5v44q0 18 12 38t35 36.5t57.5 27.5t79.5 11q103 0 155.5 -51.5t52.5 -149.5v-168z" />
    <glyph glyph-name="aring" unicode="&#xe5;" horiz-adv-x="535" 
d="M267 758q-19 0 -31 -14.5t-12 -36.5q0 -20 12.5 -34.5t29.5 -14.5q19 0 32 13t13 36q0 22 -12.5 36.5t-31.5 14.5zM267 604q-27 0 -47 8.5t-33.5 23t-20 33t-6.5 38.5q0 21 6.5 39.5t19.5 33t33.5 23t47.5 8.5q54 0 80 -31t26 -73q0 -21 -7 -39.5t-20.5 -32.5
t-33.5 -22.5t-45 -8.5zM378 250h-73q-81 0 -118.5 -23.5t-37.5 -68.5q0 -35 31.5 -59.5t83.5 -24.5q61 0 87.5 25.5t26.5 83.5v67zM468 176q0 -41 -11.5 -75t-36.5 -58.5t-64.5 -38.5t-95.5 -14q-41 0 -78 11.5t-65 32t-44.5 49.5t-16.5 65q0 87 64 132.5t185 45.5h72v25
q0 59 -30 84.5t-96 25.5q-60 0 -103.5 -20.5t-66.5 -52.5h-5v44q0 18 12 38t35 36.5t57.5 27.5t79.5 11q103 0 155.5 -51.5t52.5 -149.5v-168z" />
    <glyph glyph-name="ccedilla" unicode="&#xe7;" horiz-adv-x="521" 
d="M462 389q-7 15 -21.5 27.5t-33.5 21.5t-40 14t-40 5q-37 0 -69.5 -14.5t-57 -39t-38.5 -57t-14 -68.5q0 -53 17 -91t44 -62.5t59.5 -36.5t63.5 -12q44 0 72.5 11.5t48.5 35.5h5v-38q0 -12 -5.5 -28t-20.5 -30.5t-40.5 -24.5t-65.5 -11l-4 -43q106 0 106 -72
q0 -26 -10.5 -43t-28 -27.5t-39.5 -14.5t-45 -4q-13 0 -30.5 1.5t-33 7.5t-26 17.5t-10.5 31.5v23h3h2q14 -13 41 -18.5t48 -5.5q32 0 44 5.5t12 23.5q0 16 -11.5 22t-41.5 6q-13 0 -26.5 -0.5t-24.5 -2.5q2 7 5.5 19t7 25.5t7 27.5t6.5 25q-39 7 -79 27.5t-71.5 53.5
t-51.5 78.5t-20 103.5q0 57 18.5 109t52.5 91t83 62.5t109 23.5q30 0 57 -7.5t47 -22t32 -36.5t12 -51v-38h-4z" />
    <glyph glyph-name="eacute" unicode="&#xe9;" horiz-adv-x="562" 
d="M235 634q13 27 34.5 52t40.5 44q26 26 46.5 33.5t37.5 7.5q20 0 30.5 -11.5t10.5 -28.5q0 -41 -64 -70q-48 -22 -74.5 -27.5t-45.5 -5.5h-16v6zM419 354q0 22 -7.5 41.5t-23 34.5t-39 24t-54.5 9q-33 0 -59.5 -12.5t-45.5 -33t-30 -46t-12 -51.5l-1 -22l121 2q48 1 78 4
t46 9t21.5 16t5.5 25zM507 359q0 -35 -9.5 -60.5t-35 -41.5t-69.5 -23.5t-113 -7.5h-132q7 -67 51.5 -109.5t119.5 -42.5q62 0 100.5 16.5t61.5 38.5h5v-40q0 -42 -44.5 -70.5t-135.5 -28.5q-55 0 -101 20t-79.5 55.5t-52 84.5t-18.5 107q0 65 19 118t52.5 91t79.5 58.5
t99 20.5q39 0 75.5 -14t64.5 -39t45 -59t17 -74z" />
    <glyph glyph-name="egrave" unicode="&#xe8;" horiz-adv-x="562" 
d="M327 628q-10 0 -21 1t-25 4.5t-32 10t-42 17.5q-64 29 -64 70q0 17 10.5 28.5t30.5 11.5q17 0 37.5 -7.5t46.5 -33.5q19 -19 40.5 -44t34.5 -52v-6h-16zM419 354q0 22 -7.5 41.5t-23 34.5t-39 24t-54.5 9q-33 0 -59.5 -12.5t-45.5 -33t-30 -46t-12 -51.5l-1 -22l121 2
q48 1 78 4t46 9t21.5 16t5.5 25zM507 359q0 -35 -9.5 -60.5t-35 -41.5t-69.5 -23.5t-113 -7.5h-132q7 -67 51.5 -109.5t119.5 -42.5q62 0 100.5 16.5t61.5 38.5h5v-40q0 -42 -44.5 -70.5t-135.5 -28.5q-55 0 -101 20t-79.5 55.5t-52 84.5t-18.5 107q0 65 19 118t52.5 91
t79.5 58.5t99 20.5q39 0 75.5 -14t64.5 -39t45 -59t17 -74z" />
    <glyph glyph-name="ecircumflex" unicode="&#xea;" horiz-adv-x="562" 
d="M298 672l-150 -78v40q0 39 32 57l119 69l117 -68q17 -10 26 -23.5t9 -34.5v-40zM419 354q0 22 -7.5 41.5t-23 34.5t-39 24t-54.5 9q-33 0 -59.5 -12.5t-45.5 -33t-30 -46t-12 -51.5l-1 -22l121 2q48 1 78 4t46 9t21.5 16t5.5 25zM507 359q0 -35 -9.5 -60.5t-35 -41.5
t-69.5 -23.5t-113 -7.5h-132q7 -67 51.5 -109.5t119.5 -42.5q62 0 100.5 16.5t61.5 38.5h5v-40q0 -42 -44.5 -70.5t-135.5 -28.5q-55 0 -101 20t-79.5 55.5t-52 84.5t-18.5 107q0 65 19 118t52.5 91t79.5 58.5t99 20.5q39 0 75.5 -14t64.5 -39t45 -59t17 -74z" />
    <glyph glyph-name="edieresis" unicode="&#xeb;" horiz-adv-x="562" 
d="M122 680q0 25 18 42.5t43 17.5t42.5 -17.5t17.5 -42.5t-17.5 -43t-42.5 -18t-43 18t-18 43zM330 680q0 25 17.5 42.5t42.5 17.5t43 -17.5t18 -42.5t-18 -43t-43 -18t-42.5 18t-17.5 43zM419 354q0 22 -7.5 41.5t-23 34.5t-39 24t-54.5 9q-33 0 -59.5 -12.5t-45.5 -33
t-30 -46t-12 -51.5l-1 -22l121 2q48 1 78 4t46 9t21.5 16t5.5 25zM507 359q0 -35 -9.5 -60.5t-35 -41.5t-69.5 -23.5t-113 -7.5h-132q7 -67 51.5 -109.5t119.5 -42.5q62 0 100.5 16.5t61.5 38.5h5v-40q0 -42 -44.5 -70.5t-135.5 -28.5q-55 0 -101 20t-79.5 55.5t-52 84.5
t-18.5 107q0 65 19 118t52.5 91t79.5 58.5t99 20.5q39 0 75.5 -14t64.5 -39t45 -59t17 -74z" />
    <glyph glyph-name="iacute" unicode="&#xed;" horiz-adv-x="317" 
d="M309 49q0 -26 -14.5 -40t-38.5 -14q-160 0 -160 159v381h28q23 0 43 -18t20 -53v-297q0 -50 22.5 -69t60.5 -19h39v-30zM82 634q13 27 34.5 52t40.5 44q26 26 46.5 33.5t37.5 7.5q20 0 30.5 -11.5t10.5 -28.5q0 -41 -64 -70q-48 -22 -74.5 -27.5t-45.5 -5.5h-16v6z" />
    <glyph glyph-name="igrave" unicode="&#xec;" horiz-adv-x="317" 
d="M309 49q0 -26 -14.5 -40t-38.5 -14q-160 0 -160 159v381h28q23 0 43 -18t20 -53v-297q0 -50 22.5 -69t60.5 -19h39v-30zM174 628q-10 0 -21 1t-25 4.5t-32 10t-42 17.5q-64 29 -64 70q0 17 10.5 28.5t30.5 11.5q17 0 37.5 -7.5t46.5 -33.5q19 -19 40.5 -44t34.5 -52v-6
h-16z" />
    <glyph glyph-name="icircumflex" unicode="&#xee;" horiz-adv-x="317" 
d="M309 49q0 -26 -14.5 -40t-38.5 -14q-160 0 -160 159v381h28q23 0 43 -18t20 -53v-297q0 -50 22.5 -69t60.5 -19h39v-30zM139 672l-150 -78v40q0 39 32 57l119 69l117 -68q17 -10 26 -23.5t9 -34.5v-40z" />
    <glyph glyph-name="idieresis" unicode="&#xef;" horiz-adv-x="317" 
d="M289 49q0 -26 -14.5 -40t-38.5 -14q-160 0 -160 159v381h28q23 0 43 -18t20 -53v-297q0 -50 22.5 -69t60.5 -19h39v-30zM-41 680q0 25 18 42.5t43 17.5t42.5 -17.5t17.5 -42.5t-17.5 -43t-42.5 -18t-43 18t-18 43zM167 680q0 25 17.5 42.5t42.5 17.5t43 -17.5t18 -42.5
t-18 -43t-43 -18t-42.5 18t-17.5 43z" />
    <glyph glyph-name="ntilde" unicode="&#xf1;" horiz-adv-x="582" 
d="M347 623q-17 0 -37 11t-33 25q-14 14 -26.5 23.5t-23.5 9.5q-21 0 -30.5 -18.5t-9.5 -51.5h-28q-8 0 -19.5 10t-11.5 31q0 26 9 45t23.5 31t31.5 17.5t33 5.5t34.5 -8.5t32.5 -22.5q17 -17 29 -27.5t26 -10.5q41 0 41 70h29q9 0 20 -10.5t11 -31.5q0 -46 -29 -72t-72 -26
zM479 0q-57 0 -57 59v246q0 84 -32 119t-104 35q-60 0 -93 -36t-33 -118v-305h-34q-25 0 -40.5 15t-15.5 47v245q0 56 16 100.5t46 75t72 46.5t93 16q101 0 158 -58t57 -179v-308h-33z" />
    <glyph glyph-name="oacute" unicode="&#xf3;" horiz-adv-x="599" 
d="M245 634q13 27 34.5 52t40.5 44q26 26 46.5 33.5t37.5 7.5q20 0 30.5 -11.5t10.5 -28.5q0 -41 -64 -70q-48 -22 -74.5 -27.5t-45.5 -5.5h-16v6zM451 257q0 100 -41 150.5t-120 50.5q-65 0 -104 -48.5t-39 -132.5q0 -93 43 -147t122 -54q34 0 60 13.5t43.5 37.5t26.5 57.5
t9 72.5zM543 278q0 -68 -17 -121t-48.5 -90.5t-76 -57t-98.5 -19.5q-53 0 -98.5 19.5t-78.5 55t-52 84.5t-19 109q0 66 17.5 119t50 90t78 57t102.5 20q53 0 97.5 -19t76 -54t49 -84t17.5 -109z" />
    <glyph glyph-name="ograve" unicode="&#xf2;" horiz-adv-x="599" 
d="M317 628q-10 0 -21 1t-25 4.5t-32 10t-42 17.5q-64 29 -64 70q0 17 10.5 28.5t30.5 11.5q17 0 37.5 -7.5t46.5 -33.5q19 -19 40.5 -44t34.5 -52v-6h-16zM451 257q0 100 -41 150.5t-120 50.5q-65 0 -104 -48.5t-39 -132.5q0 -93 43 -147t122 -54q34 0 60 13.5t43.5 37.5
t26.5 57.5t9 72.5zM543 278q0 -68 -17 -121t-48.5 -90.5t-76 -57t-98.5 -19.5q-53 0 -98.5 19.5t-78.5 55t-52 84.5t-19 109q0 66 17.5 119t50 90t78 57t102.5 20q53 0 97.5 -19t76 -54t49 -84t17.5 -109z" />
    <glyph glyph-name="ocircumflex" unicode="&#xf4;" horiz-adv-x="599" 
d="M302 672l-150 -78v40q0 39 32 57l119 69l117 -68q17 -10 26 -23.5t9 -34.5v-40zM451 257q0 100 -41 150.5t-120 50.5q-65 0 -104 -48.5t-39 -132.5q0 -93 43 -147t122 -54q34 0 60 13.5t43.5 37.5t26.5 57.5t9 72.5zM543 278q0 -68 -17 -121t-48.5 -90.5t-76 -57
t-98.5 -19.5q-53 0 -98.5 19.5t-78.5 55t-52 84.5t-19 109q0 66 17.5 119t50 90t78 57t102.5 20q53 0 97.5 -19t76 -54t49 -84t17.5 -109z" />
    <glyph glyph-name="odieresis" unicode="&#xf6;" horiz-adv-x="599" 
d="M132 680q0 25 18 42.5t43 17.5t42.5 -17.5t17.5 -42.5t-17.5 -43t-42.5 -18t-43 18t-18 43zM340 680q0 25 17.5 42.5t42.5 17.5t43 -17.5t18 -42.5t-18 -43t-43 -18t-42.5 18t-17.5 43zM451 257q0 100 -41 150.5t-120 50.5q-65 0 -104 -48.5t-39 -132.5q0 -93 43 -147
t122 -54q34 0 60 13.5t43.5 37.5t26.5 57.5t9 72.5zM543 278q0 -68 -17 -121t-48.5 -90.5t-76 -57t-98.5 -19.5q-53 0 -98.5 19.5t-78.5 55t-52 84.5t-19 109q0 66 17.5 119t50 90t78 57t102.5 20q53 0 97.5 -19t76 -54t49 -84t17.5 -109z" />
    <glyph glyph-name="otilde" unicode="&#xf5;" horiz-adv-x="599" 
d="M357 623q-17 0 -37 11t-33 25q-14 14 -26.5 23.5t-23.5 9.5q-21 0 -30.5 -18.5t-9.5 -51.5h-28q-8 0 -19.5 10t-11.5 31q0 26 9 45t23.5 31t31.5 17.5t33 5.5t34.5 -8.5t32.5 -22.5q17 -17 29 -27.5t26 -10.5q41 0 41 70h29q9 0 20 -10.5t11 -31.5q0 -46 -29 -72t-72 -26
zM451 257q0 100 -41 150.5t-120 50.5q-65 0 -104 -48.5t-39 -132.5q0 -93 43 -147t122 -54q34 0 60 13.5t43.5 37.5t26.5 57.5t9 72.5zM543 278q0 -68 -17 -121t-48.5 -90.5t-76 -57t-98.5 -19.5q-53 0 -98.5 19.5t-78.5 55t-52 84.5t-19 109q0 66 17.5 119t50 90t78 57
t102.5 20q53 0 97.5 -19t76 -54t49 -84t17.5 -109z" />
    <glyph glyph-name="uacute" unicode="&#xfa;" horiz-adv-x="582" 
d="M225 634q13 27 34.5 52t40.5 44q26 26 46.5 33.5t37.5 7.5q20 0 30.5 -11.5t10.5 -28.5q0 -41 -64 -70q-48 -22 -74.5 -27.5t-45.5 -5.5h-16v6zM512 230q0 -118 -58 -179t-166 -61q-49 0 -89.5 16.5t-69 48.5t-44 78t-15.5 105v297h28q63 0 63 -71v-221q0 -82 37 -124.5
t96 -42.5q63 0 95 38t32 125v296h25q66 0 66 -71v-234z" />
    <glyph glyph-name="ugrave" unicode="&#xf9;" horiz-adv-x="582" 
d="M317 628q-10 0 -21 1t-25 4.5t-32 10t-42 17.5q-64 29 -64 70q0 17 10.5 28.5t30.5 11.5q17 0 37.5 -7.5t46.5 -33.5q19 -19 40.5 -44t34.5 -52v-6h-16zM512 230q0 -118 -58 -179t-166 -61q-49 0 -89.5 16.5t-69 48.5t-44 78t-15.5 105v297h28q63 0 63 -71v-221
q0 -82 37 -124.5t96 -42.5q63 0 95 38t32 125v296h25q66 0 66 -71v-234z" />
    <glyph glyph-name="ucircumflex" unicode="&#xfb;" horiz-adv-x="582" 
d="M288 672l-150 -78v40q0 39 32 57l119 69l117 -68q17 -10 26 -23.5t9 -34.5v-40zM512 230q0 -118 -58 -179t-166 -61q-49 0 -89.5 16.5t-69 48.5t-44 78t-15.5 105v297h28q63 0 63 -71v-221q0 -82 37 -124.5t96 -42.5q63 0 95 38t32 125v296h25q66 0 66 -71v-234z" />
    <glyph glyph-name="udieresis" unicode="&#xfc;" horiz-adv-x="582" 
d="M122 680q0 25 18 42.5t43 17.5t42.5 -17.5t17.5 -42.5t-17.5 -43t-42.5 -18t-43 18t-18 43zM330 680q0 25 17.5 42.5t42.5 17.5t43 -17.5t18 -42.5t-18 -43t-43 -18t-42.5 18t-17.5 43zM512 230q0 -118 -58 -179t-166 -61q-49 0 -89.5 16.5t-69 48.5t-44 78t-15.5 105
v297h28q63 0 63 -71v-221q0 -82 37 -124.5t96 -42.5q63 0 95 38t32 125v296h25q66 0 66 -71v-234z" />
    <glyph glyph-name="dagger" unicode="&#x2020;" horiz-adv-x="490" 
d="M284 457v-606h-27q-20 0 -34.5 13.5t-14.5 39.5v553h-166v27q0 19 13.5 35.5t36.5 16.5h116v206h25q21 0 36 -14.5t15 -38.5v-153h166v-32q0 -19 -14 -33t-37 -14h-115z" />
    <glyph glyph-name="degree" unicode="&#xb0;" horiz-adv-x="415" 
d="M209 635q-20 0 -35.5 -8.5t-25.5 -22t-15 -30.5t-5 -34q0 -15 5 -31t15.5 -29t25 -21.5t34.5 -8.5t35.5 8t26 20.5t15.5 29t5 34.5q0 17 -5 33.5t-15 30t-25.5 21.5t-35.5 8zM209 395q-34 0 -60.5 11.5t-45 31t-28 46t-9.5 56.5q0 31 9.5 58.5t27.5 48t44.5 32t61.5 11.5
q69 0 105 -41.5t36 -106.5q0 -31 -10 -58t-28 -46.5t-44 -31t-59 -11.5z" />
    <glyph glyph-name="cent" unicode="&#xa2;" 
d="M474 390q-7 15 -22 28t-33.5 22t-40 14.5t-40.5 5.5q-40 0 -72.5 -14t-56 -38.5t-36 -58.5t-12.5 -74q0 -53 16.5 -90.5t42 -62t57.5 -36t63 -11.5q86 0 126 47h5v-38q0 -11 -4.5 -24t-15.5 -25.5t-28.5 -23t-44.5 -16.5q5 0 3 0t-14 -2q-4 -1 -7.5 -1t-7.5 -1v-117h-14
q-5 0 -11 1q-42 1 -42 37v80h8q-40 6 -80 26.5t-72.5 54.5t-52.5 81.5t-20 106.5q0 51 15 98t43.5 84.5t68.5 63t90 34.5v126h26q41 0 41 -37v-86q27 -2 50 -10.5t40 -23t27 -35t10 -47.5v-38h-5z" />
    <glyph glyph-name="sterling" unicode="&#xa3;" 
d="M228 477q0 -26 4 -51.5t12 -57.5h170v-25q0 -24 -15.5 -35t-35.5 -11h-107q4 -20 5 -35.5t1 -24.5q0 -17 -2.5 -38t-8 -41.5t-12.5 -39.5t-16 -31v-5h293v-29q0 -24 -16.5 -38.5t-47.5 -14.5h-365v24q0 13 4.5 24t11.5 21t16 20t18 21q17 22 26.5 50t9.5 65q0 14 -3 35
t-7 37h-109v25q0 46 48 46h50q-6 29 -11 55t-5 55q0 44 15 83t43.5 67.5t69 45t91.5 16.5q28 0 52.5 -8t43 -22t29 -33t10.5 -41v-48h-5q-7 15 -21 27t-31.5 21t-38 13.5t-39.5 4.5q-67 0 -97 -33.5t-30 -93.5z" />
    <glyph glyph-name="section" unicode="&#xa7;" 
d="M312 356q-15 6 -27 10.5t-23.5 10t-24 11t-29.5 13.5q-22 -17 -36.5 -36.5t-14.5 -42.5q0 -35 21 -57.5t64 -37.5q28 -10 51.5 -18.5t57.5 -22.5q21 17 30.5 37t9.5 47q0 32 -19.5 52t-59.5 34zM385 168q41 -29 55.5 -57.5t14.5 -57.5q0 -89 -52.5 -132.5t-153.5 -43.5
q-33 0 -60 9t-46.5 23.5t-30.5 33t-11 37.5v37h5q28 -25 64 -39.5t84 -14.5q21 0 41 3.5t35 12.5t24 24t9 38q0 19 -7.5 32t-26.5 25t-52 25t-85 31q-32 11 -54 26.5t-35 33.5t-18.5 39t-5.5 43q0 18 4 34.5t15 32t30.5 30t50.5 26.5q-37 20 -57.5 50.5t-20.5 70.5
q0 33 12 62.5t37 51t62.5 34t88.5 12.5q30 0 55 -9t42 -23t26.5 -32t9.5 -36v-25h-5q-45 42 -136 42q-50 0 -76 -19.5t-26 -45.5q0 -18 5 -31t19 -24t38 -22t62 -25q35 -13 64 -27.5t50 -33.5t32.5 -43.5t11.5 -55.5q0 -38 -20 -69.5t-68 -52.5z" />
    <glyph glyph-name="bullet" unicode="&#x2022;" horiz-adv-x="326" 
d="M68 362q0 19 7.5 36.5t20.5 30.5t30 20.5t37 7.5q19 0 36.5 -7.5t30.5 -20.5t20.5 -30.5t7.5 -36.5q0 -20 -7.5 -37t-20.5 -30t-30.5 -20.5t-36.5 -7.5q-20 0 -37 7.5t-30 20.5t-20.5 30t-7.5 37z" />
    <glyph glyph-name="paragraph" unicode="&#xb6;" horiz-adv-x="531" 
d="M428 -10q-26 0 -38 10t-12 41v548q0 27 -12.5 35.5t-35.5 8.5h-41v-643h-22q-23 1 -36 13t-13 38v254h-17q-34 0 -63.5 16t-51.5 43t-34.5 61.5t-12.5 70.5q0 99 66 156.5t196 57.5q71 0 109.5 -25.5t38.5 -73.5v-611h-21z" />
    <glyph glyph-name="germandbls" unicode="&#xdf;" horiz-adv-x="579" 
d="M359 -10q-29 0 -49 6.5t-33.5 16.5t-19.5 22.5t-6 24.5v36h5q6 -5 17.5 -9t25.5 -7.5t28.5 -5.5t25.5 -2q48 0 69 18t21 56q0 28 -11.5 46t-31.5 31l-69 43q-22 14 -36 36t-14 56q0 31 14.5 56t33.5 40l58 45q13 10 21 26t8 31q0 37 -26.5 61t-82.5 24q-71 0 -108 -43.5
t-37 -135.5v-462h-30q-32 0 -47 20t-15 50v400q0 59 18.5 105.5t50.5 78.5t76.5 49t96.5 17q42 0 78 -12.5t62 -33.5t40.5 -49t14.5 -60q0 -33 -16.5 -61.5t-40.5 -46.5l-50 -37q-18 -14 -29 -28t-11 -25q0 -18 8.5 -28.5t21.5 -18.5l65 -41q35 -22 57 -55.5t22 -75.5
q0 -72 -47 -115t-128 -43z" />
    <glyph glyph-name="registered" unicode="&#xae;" horiz-adv-x="806" 
d="M371 484q-3 0 -10.5 -1t-21.5 -3v-110q18 -2 29.5 -2h23.5q22 0 39.5 14t17.5 41q0 36 -16.5 48.5t-39.5 12.5h-22zM516 152q-32 0 -47 18.5t-26 45.5q-5 13 -10.5 28t-13 28t-18.5 22t-27 12q-7 2 -14 2t-21 2v-158h-28q-29 0 -39 14.5t-10 37.5v326q22 7 49.5 11
t47.5 4h43q56 0 90 -30.5t34 -85.5q0 -31 -17.5 -57.5t-61.5 -37.5q11 -6 20.5 -15.5t16.5 -20t11.5 -20t7.5 -14.5q9 -18 14.5 -36.5t14.5 -34.5q2 -5 5 -8.5t6 -8.5l8 -11q-11 -9 -16 -11t-19 -2zM676 342q0 57 -22 108t-59.5 88.5t-88.5 59.5t-108 22t-108 -22
t-88.5 -59.5t-59.5 -88.5t-22 -108t22 -108t59.5 -88.5t88.5 -59.5t108 -22t108 22t88.5 59.5t59.5 88.5t22 108zM742 342q0 -71 -27 -134t-73.5 -109.5t-109.5 -73.5t-134 -27t-134 27t-109.5 73.5t-73.5 109.5t-27 134t27 134t73.5 109.5t109.5 73.5t134 27t134 -27
t109.5 -73.5t73.5 -109.5t27 -134z" />
    <glyph glyph-name="copyright" unicode="&#xa9;" horiz-adv-x="806" 
d="M531 251v-27q0 -20 -11 -34.5t-28 -24.5t-37 -15t-38 -5q-38 0 -71.5 15t-58.5 41.5t-39 62t-14 77.5q0 46 13.5 84t38 65t59.5 42t78 15q50 0 80 -27t30 -65v-30h-7q-8 21 -34 39t-66 18q-30 0 -51.5 -10.5t-35.5 -28t-20.5 -41t-6.5 -50.5q0 -70 32.5 -105t81.5 -35
q33 0 59 11t40 28h6zM676 342q0 57 -22 108t-59.5 88.5t-88.5 59.5t-108 22t-108 -22t-88.5 -59.5t-59.5 -88.5t-22 -108t22 -108t59.5 -88.5t88.5 -59.5t108 -22t108 22t88.5 59.5t59.5 88.5t22 108zM742 342q0 -71 -27 -134t-73.5 -109.5t-109.5 -73.5t-134 -27t-134 27
t-109.5 73.5t-73.5 109.5t-27 134t27 134t73.5 109.5t109.5 73.5t134 27t134 -27t109.5 -73.5t73.5 -109.5t27 -134z" />
    <glyph glyph-name="trademark" unicode="&#x2122;" horiz-adv-x="807" 
d="M206 621v-298h-36q-22 0 -35 10.5t-13 35.5v252h-101v31q0 13 11.5 27.5t37.5 14.5h239v-29q0 -14 -13.5 -29t-34.5 -15h-55zM729 328q-23 0 -37 14.5t-14 44.5q0 26 -2.5 79t-8.5 139q-16 -54 -26 -91.5t-21 -72.5q-10 -33 -21 -63.5t-22 -50.5h-20q-11 0 -20 5.5
t-17.5 18.5t-17.5 35t-18 54q-5 17 -10 33.5t-11 35.5t-13 42.5t-16 54.5q-12 -179 -12 -279l-30 1q-21 1 -35 14.5t-14 36.5q0 39 2.5 81.5t6 84.5t8.5 80.5t11 70.5h19q40 0 64 -18t33 -40q17 -40 32 -88.5t34 -112.5q13 38 23.5 77t24.5 77t29.5 67t30.5 39h6
q35 0 54 -20.5t24 -58.5q8 -66 13 -139.5t5 -150.5h-34z" />
    <glyph glyph-name="acute" unicode="&#xb4;" horiz-adv-x="529" 
d="M155 634q13 27 34.5 52t40.5 44q26 26 46.5 33.5t37.5 7.5q20 0 30.5 -11.5t10.5 -28.5q0 -41 -64 -70q-48 -22 -74.5 -27.5t-45.5 -5.5h-16v6z" />
    <glyph glyph-name="dieresis" unicode="&#xa8;" horiz-adv-x="498" 
d="M72 680q0 25 18 42.5t43 17.5t42.5 -17.5t17.5 -42.5t-17.5 -43t-42.5 -18t-43 18t-18 43zM280 680q0 25 17.5 42.5t42.5 17.5t43 -17.5t18 -42.5t-18 -43t-43 -18t-42.5 18t-17.5 43z" />
    <glyph glyph-name="AE" unicode="&#xc6;" horiz-adv-x="865" 
d="M353 602q-56 -82 -96 -165.5t-75 -177.5h225q-2 27 -8 72.5t-13.5 95.5t-16.5 97.5t-16 77.5zM640 -9q-105 0 -157.5 47t-63.5 148h-270q-20 -51 -33.5 -96t-27.5 -90h-39q-20 0 -27 8.5t-7 23.5v9.5t1 10.5q3 25 18.5 72t39 106t53.5 125t62.5 127.5t66 113.5t63.5 84
h515v-31q0 -23 -18.5 -38t-56.5 -15h-312q11 -52 20 -103.5t16 -102.5h279v-33q0 -24 -13.5 -36t-51.5 -12h-206l11 -90q5 -41 14.5 -68.5t26.5 -44.5t42.5 -24t61.5 -7h57q23 0 41 1.5t33 4t28.5 6.5t28.5 9v-27q0 -20 -6 -34.5t-21 -24t-40.5 -14.5t-63.5 -5h-64z" />
    <glyph glyph-name="Oslash" unicode="&#xd8;" horiz-adv-x="732" 
d="M581 332q0 123 -45 191l-306 -406q54 -43 139 -43q48 0 87.5 18t67 51.5t42.5 81.5t15 107zM494 567q-53 39 -136 39q-97 0 -154 -63.5t-57 -193.5q0 -119 41 -185zM671 349q0 -78 -21 -144t-60.5 -113.5t-98 -74.5t-133.5 -27q-50 0 -95.5 15.5t-83.5 44.5l-45 -60h-21
q-7 0 -14 7.5t-7 22.5q0 8 8 22.5t17 26.5l17 24q-37 44 -57.5 104t-20.5 135q0 77 19 142.5t57.5 113.5t97.5 75t139 27q51 0 95 -15t80 -42l43 57h20q14 0 19.5 -8t5.5 -16q0 -10 -4 -18.5t-9 -14.5l-31 -41q40 -46 61.5 -107.5t21.5 -135.5z" />
    <glyph glyph-name="plusminus" unicode="&#xb1;" 
d="M62 -1v32q0 21 14 32t38 11h404v-35q0 -16 -13.5 -28t-30.5 -12h-412zM330 385v-202h-26q-14 0 -29 11t-15 43v148h-211v36q0 13 11 26t32 13h168v191h34q12 0 24 -12t12 -35v-144h207v-28q0 -15 -13.5 -31t-45.5 -16h-148z" />
    <glyph glyph-name="yen" unicode="&#xa5;" 
d="M497 352v-29q0 -17 -11 -29t-34 -12h-128v-93h173v-27q0 -14 -11 -27.5t-34 -13.5h-128v-121h-42q-17 0 -31.5 13.5t-14.5 39.5v68h-170v32q0 14 11 25t37 11h122v93h-170v31q0 14 10.5 26.5t37.5 12.5h118q-29 37 -59.5 80.5t-58 87t-50.5 85t-36 75.5h40q30 0 45.5 -9
t21.5 -23q12 -26 29 -56t37 -61.5t42 -62.5t44 -59q21 27 45 59.5t46.5 68t42 72t32.5 71.5h40q31 0 31 -27q0 -16 -18 -51t-46.5 -78t-63 -89t-67.5 -83h168z" />
    <glyph glyph-name="mu" unicode="&#xb5;" 
d="M323 0q-23 0 -45.5 4.5t-42.5 15t-37 27.5t-27 43v-238h-32q-29 0 -44.5 16t-15.5 51v626h49q18 0 30.5 -16.5t12.5 -34.5v-247q0 -43 10.5 -75t29.5 -53.5t43.5 -32t53.5 -10.5q54 0 89 41t35 120v308h42q21 0 35.5 -15t14.5 -36v-246q0 -63 -16 -109.5t-43.5 -77
t-64 -46t-77.5 -15.5z" />
    <glyph glyph-name="mu" unicode="&#x3bc;" 
d="M323 0q-23 0 -45.5 4.5t-42.5 15t-37 27.5t-27 43v-238h-32q-29 0 -44.5 16t-15.5 51v626h49q18 0 30.5 -16.5t12.5 -34.5v-247q0 -43 10.5 -75t29.5 -53.5t43.5 -32t53.5 -10.5q54 0 89 41t35 120v308h42q21 0 35.5 -15t14.5 -36v-246q0 -63 -16 -109.5t-43.5 -77
t-64 -46t-77.5 -15.5z" />
    <glyph glyph-name="ordfeminine" unicode="&#xaa;" horiz-adv-x="409" 
d="M211 493q-48 0 -65.5 -12t-17.5 -37q0 -47 59 -47q28 0 47 13.5t19 44.5v38h-42zM64 611q0 14 7.5 29t23 27t39 20t55.5 8q72 0 105.5 -36.5t33.5 -120.5v-82q0 -56 -34.5 -90.5t-88.5 -34.5h-26q-59 0 -94 31t-35 79q0 23 8 43t26.5 34.5t49.5 23t77 8.5h45v18
q0 29 -17 43.5t-63 14.5q-37 0 -65.5 -11.5t-42.5 -25.5h-4v22z" />
    <glyph glyph-name="ordmasculine" unicode="&#xba;" horiz-adv-x="409" 
d="M201 622q-38 0 -56 -29.5t-18 -74.5q0 -54 19 -84.5t62 -30.5q38 0 56.5 29t18.5 74q0 54 -19.5 85t-62.5 31zM201 331q-36 0 -64.5 14.5t-48 38.5t-29.5 55.5t-10 66.5q0 40 10.5 74t30.5 59.5t49.5 40t68.5 14.5q36 0 64.5 -14.5t48 -38.5t30 -56t10.5 -67
q0 -40 -10.5 -74t-30.5 -59t-50 -39.5t-69 -14.5z" />
    <glyph glyph-name="ae" unicode="&#xe6;" horiz-adv-x="872" 
d="M378 247h-73q-79 0 -115 -22t-36 -67q0 -37 29 -60t74 -23q59 0 90 29t31 83v60zM725 354q0 52 -32 80t-86 28q-33 0 -58.5 -13t-43 -34.5t-26.5 -49.5t-9 -58l102 1q51 0 81.5 2.5t46.5 7.5t20.5 14t4.5 22zM817 359q0 -35 -9.5 -59t-34 -39t-67.5 -21.5t-109 -6.5h-127
q0 -36 12.5 -65t34.5 -49.5t52 -31.5t65 -11q60 0 98 16t60 39h5v-4v-27q0 -51 -44 -80.5t-132 -29.5q-30 0 -59.5 7.5t-55.5 21t-46 32.5t-32 41q-23 -43 -64 -72t-111 -29q-41 0 -77 11t-63 31t-42.5 48.5t-15.5 64.5q0 40 13.5 72.5t43.5 55.5t77.5 36t115.5 13h72v26
q0 59 -30.5 83.5t-96.5 24.5q-60 0 -101.5 -19.5t-64.5 -51.5h-8v38q0 23 13 44.5t37 38t58 26.5t75 10q66 0 110 -27t69 -69q28 46 75.5 72t101.5 26q39 0 75.5 -15t64.5 -40.5t45 -59t17 -71.5z" />
    <glyph glyph-name="oslash" unicode="&#xf8;" horiz-adv-x="599" 
d="M222 97q37 -24 90 -24q34 0 60.5 14t44.5 38.5t27 58t9 73.5q0 82 -26 130zM380 439q-35 22 -90 22q-66 0 -105.5 -49.5t-39.5 -134.5q0 -38 7 -71t22 -58zM119 -21q-7 0 -18.5 7t-11.5 22q0 7 2 15.5t8 17.5l21 30q-31 35 -48 82.5t-17 104.5q0 66 17.5 119t50 90t78 57
t102.5 20q71 0 127 -34l32 45h20q14 0 22 -13t8 -23q0 -4 -1 -8.5t-4 -9.5l-26 -36q29 -35 45.5 -82.5t16.5 -104.5q0 -68 -17 -121t-48.5 -90.5t-76 -57t-98.5 -19.5q-37 0 -70 9.5t-61 26.5l-33 -47h-20z" />
    <glyph glyph-name="questiondown" unicode="&#xbf;" horiz-adv-x="472" 
d="M141 -5q0 -45 34 -68t89 -23q37 0 63 8t44 21t30.5 27.5t22.5 28.5h6v-31q0 -23 -10 -47.5t-32 -44.5t-57 -32.5t-84 -12.5t-86 13t-62 35.5t-37.5 52t-12.5 62.5q0 45 19 78.5t54 65.5l86 77q16 14 22 32t6 47v29h34q12 0 27 -15.5t15 -38.5q0 -35 -16 -62t-31 -41
l-73 -65q-15 -14 -25 -24.5t-15.5 -21t-8 -22.5t-2.5 -28zM334 463q0 -30 -21 -50t-50 -20q-30 0 -51 20t-21 50q0 31 21 51t51 20q29 0 50 -20t21 -51z" />
    <glyph glyph-name="exclamdown" unicode="&#xa1;" horiz-adv-x="314" 
d="M144 290q54 0 57 -67l13 -394h-43q-27 0 -44 16.5t-16 49.5l13 395h20zM226 463q0 -30 -20.5 -50t-50.5 -20t-51 20t-21 50q0 31 21 51t51 20t50.5 -20t20.5 -51z" />
    <glyph glyph-name="logicalnot" unicode="&#xac;" horiz-adv-x="584" 
d="M546 108h-82v211h-427v82h509v-293z" />
    <glyph glyph-name="florin" unicode="&#x192;" 
d="M454 616q-89 0 -101 -88l-17 -121h140v-28q0 -6 -3 -13t-11 -13t-21 -10.5t-32 -4.5h-80l-28 -240q-7 -60 -20.5 -100.5t-33.5 -65t-46.5 -34.5t-60.5 -10q-42 0 -61 16t-19 34v42h5q14 -6 29.5 -10t29.5 -4q22 0 38 5t26.5 18.5t17 36.5t10.5 59l28 253h-119v26
q0 16 14.5 29.5t34.5 13.5h79l15 114q11 81 53.5 127t123.5 46q32 0 50.5 -17t18.5 -38v-42h-5q-11 8 -28 13.5t-27 5.5z" />
    <glyph glyph-name="guillemotleft" unicode="&#xab;" horiz-adv-x="451" 
d="M219 73q-41 0 -63.5 11t-37.5 34l-97 145l97 146q13 20 34.5 31.5t66.5 11.5h14l-118 -189l118 -190h-14zM407 73q-41 0 -64 11t-37 34l-87 145l87 146q12 20 33.5 31.5t67.5 11.5h14l-108 -189l108 -190h-14z" />
    <glyph glyph-name="guillemotright" unicode="&#xbb;" horiz-adv-x="451" 
d="M31 73l108 190l-108 189h14q46 0 67.5 -11.5t33.5 -31.5l87 -146l-87 -145q-14 -23 -37 -34t-64 -11h-14zM219 73l118 190l-118 189h14q45 0 66.5 -11.5t34.5 -31.5l97 -146l-97 -145q-15 -23 -37.5 -34t-63.5 -11h-14z" />
    <glyph glyph-name="ellipsis" unicode="&#x2026;" horiz-adv-x="808" 
d="M209 70q0 -31 -20.5 -50.5t-50.5 -19.5t-51 19.5t-21 50.5t21 51t51 20t50.5 -20t20.5 -51zM479 70q0 -31 -20.5 -50.5t-50.5 -19.5t-51 19.5t-21 50.5t21 51t51 20t50.5 -20t20.5 -51zM749 70q0 -31 -20.5 -50.5t-50.5 -19.5t-51 19.5t-21 50.5t21 51t51 20t50.5 -20
t20.5 -51z" />
    <glyph glyph-name="Agrave" unicode="&#xc0;" horiz-adv-x="597" 
d="M434 253q-27 97 -59.5 180.5t-77.5 164.5q-24 -43 -43.5 -84.5t-36 -83.5t-30.5 -86t-27 -91h274zM552 0q-29 0 -43.5 12.5t-19.5 35.5q-7 35 -16.5 71t-15.5 61h-318q-5 -19 -10.5 -41.5t-11 -46.5t-10.5 -47.5t-9 -44.5h-35q-41 0 -41 44q0 23 10.5 70.5t28.5 107.5
t41.5 127t50.5 130t55 116t54 85h30q29 0 49.5 -19t42.5 -57q15 -26 33.5 -66t38 -88.5t39 -104.5t36.5 -114t31.5 -117t22.5 -114h-33zM320 754q-10 0 -21 1t-25 4.5t-32 10t-42 17.5q-64 29 -64 70q0 17 10.5 28.5t30.5 11.5q17 0 37.5 -7.5t46.5 -33.5q19 -19 40.5 -44
t34.5 -52v-6h-16z" />
    <glyph glyph-name="Atilde" unicode="&#xc3;" horiz-adv-x="597" 
d="M434 253q-27 97 -59.5 180.5t-77.5 164.5q-24 -43 -43.5 -84.5t-36 -83.5t-30.5 -86t-27 -91h274zM552 0q-29 0 -43.5 12.5t-19.5 35.5q-7 35 -16.5 71t-15.5 61h-318q-5 -19 -10.5 -41.5t-11 -46.5t-10.5 -47.5t-9 -44.5h-35q-41 0 -41 44q0 23 10.5 70.5t28.5 107.5
t41.5 127t50.5 130t55 116t54 85h30q29 0 49.5 -19t42.5 -57q15 -26 33.5 -66t38 -88.5t39 -104.5t36.5 -114t31.5 -117t22.5 -114h-33zM356 748q-17 0 -37 11t-33 25q-14 14 -26.5 23.5t-23.5 9.5q-21 0 -30.5 -18.5t-9.5 -51.5h-28q-8 0 -19.5 10t-11.5 31q0 26 9 45
t23.5 31t31.5 17.5t33 5.5t34.5 -8.5t32.5 -22.5q17 -17 29 -27.5t26 -10.5q41 0 41 70h29q9 0 20 -10.5t11 -31.5q0 -46 -29 -72t-72 -26z" />
    <glyph glyph-name="Otilde" unicode="&#xd5;" horiz-adv-x="726" 
d="M407 749q-17 0 -37 11t-33 25q-14 14 -26.5 23.5t-23.5 9.5q-21 0 -30.5 -18.5t-9.5 -51.5h-28q-8 0 -19.5 10t-11.5 31q0 26 9 45t23.5 31t31.5 17.5t33 5.5t34.5 -8.5t32.5 -22.5q17 -17 29 -27.5t26 -10.5q41 0 41 70h29q9 0 20 -10.5t11 -31.5q0 -46 -29 -72t-72 -26
zM580 332q0 137 -53.5 205.5t-168.5 68.5q-97 0 -154 -63.5t-57 -193.5q0 -133 55.5 -204t166.5 -71q49 0 88.5 18t66.5 51.5t41.5 81.5t14.5 107zM671 349q0 -78 -21 -144t-60.5 -113.5t-98 -74.5t-133.5 -27q-62 0 -116.5 23t-96 67t-65.5 107.5t-24 144.5q0 78 21 144
t60.5 113.5t98 74t133.5 26.5q69 0 124.5 -25t95 -70t61 -108t21.5 -138z" />
    <glyph glyph-name="OE" unicode="&#x152;" horiz-adv-x="1018" 
d="M551 348q0 51 -10 98t-33.5 82.5t-63 56.5t-98.5 21q-90 0 -145.5 -63.5t-55.5 -193.5q0 -134 52.5 -204.5t158.5 -70.5q59 0 97 25t59.5 64.5t30 88t8.5 96.5zM987 69q0 -18 -4.5 -31.5t-18 -23t-38 -14.5t-64.5 -5h-67q-95 0 -148 36.5t-71 104.5q-24 -66 -80.5 -106
t-150.5 -40q-59 0 -111 23t-92 67t-63 107.5t-23 144.5q0 77 18 142.5t54.5 113.5t92.5 75t132 27q33 0 65 -8.5t60.5 -24t51 -38.5t35.5 -52q5 55 26.5 82.5t56.5 27.5h340v-34q0 -17 -12.5 -32.5t-41.5 -15.5h-279q-8 -39 -11 -94t-3 -111h269v-27q0 -18 -13.5 -33.5
t-44.5 -15.5h-211v-57q0 -51 9.5 -85.5t31.5 -55.5t56 -30.5t84 -9.5h39q32 0 67.5 6t58.5 13v-26z" />
    <glyph glyph-name="oe" unicode="&#x153;" horiz-adv-x="958" 
d="M451 257q0 100 -41 151.5t-120 51.5q-65 0 -104.5 -49.5t-39.5 -133.5q0 -93 43.5 -148t122.5 -55q34 0 60 14t43.5 38.5t26.5 58t9 72.5zM816 351q0 29 -9.5 50t-26.5 34.5t-40 20t-49 6.5q-32 0 -58.5 -13t-46 -33.5t-30.5 -45.5t-12 -50l-1 -20l121 2q49 1 78.5 3.5
t46 8.5t22 15t5.5 22zM903 355q0 -34 -9.5 -58.5t-35 -40t-69.5 -23t-113 -7.5h-132q7 -67 51 -110t119 -43q64 0 103 17t60 39h5v-29q0 -51 -45 -80.5t-136 -29.5q-36 0 -67.5 9t-58 24.5t-47 36t-33.5 44.5q-12 -23 -29.5 -44t-41.5 -36.5t-54 -24.5t-67 -9
q-53 0 -98.5 19.5t-78.5 55t-52 84.5t-19 109q0 66 17.5 119t50 90t78 57t102.5 20q72 0 122 -32t79 -85q26 49 77.5 83.5t117.5 34.5q39 0 76 -14t65.5 -39.5t45.5 -60t17 -76.5z" />
    <glyph glyph-name="endash" unicode="&#x2013;" 
d="M80 268v24q0 23 12.5 38.5t44.5 15.5h355v-36q0 -14 -12 -28t-34 -14h-366z" />
    <glyph glyph-name="emdash" unicode="&#x2014;" horiz-adv-x="1019" 
d="M55 268v24q0 23 13 38.5t45 15.5h833v-36q0 -14 -12 -28t-34 -14h-845z" />
    <glyph glyph-name="quotedblleft" unicode="&#x201c;" horiz-adv-x="430" 
d="M176 734q-23 -24 -36 -50t-13 -49q0 -17 8 -33t22 -26q9 -6 17 -21.5t8 -29.5q0 -26 -17.5 -44.5t-52.5 -18.5q-29 0 -51.5 26.5t-22.5 85.5q0 71 36.5 117t101.5 49v-6zM374 734q-23 -24 -36 -50t-13 -49q0 -17 8 -33t22 -26q9 -6 17 -21.5t8 -29.5q0 -26 -17.5 -44.5
t-52.5 -18.5q-29 0 -51.5 26.5t-22.5 85.5q0 71 36.5 117t101.5 49v-6z" />
    <glyph glyph-name="quotedblright" unicode="&#x201d;" horiz-adv-x="430" 
d="M56 448q23 24 36 50t13 49q0 17 -8 33t-22 26q-9 6 -17 21.5t-8 29.5q0 26 17.5 44.5t52.5 18.5q29 0 51.5 -26.5t22.5 -85.5q0 -71 -36.5 -117t-101.5 -49v6zM253 448q24 24 36.5 50t12.5 49q0 17 -8 33t-22 26q-9 6 -17 21.5t-8 29.5q0 26 17.5 44.5t52.5 18.5
q29 0 51.5 -26.5t22.5 -85.5q0 -71 -36.5 -117t-101.5 -49v6z" />
    <glyph glyph-name="quoteleft" unicode="&#x2018;" horiz-adv-x="276" 
d="M196 734q-23 -24 -36 -50t-13 -49q0 -17 8 -33.5t22 -25.5q9 -7 17 -22t8 -29q0 -26 -17.5 -44.5t-52.5 -18.5q-29 0 -51.5 26.5t-22.5 85.5q0 71 36.5 117t101.5 49v-6z" />
    <glyph glyph-name="quoteright" unicode="&#x2019;" horiz-adv-x="276" 
d="M80 448q23 24 36 50t13 49q0 17 -8 33t-22 26q-9 6 -17 21.5t-8 29.5q0 26 17.5 44.5t52.5 18.5q29 0 51.5 -26.5t22.5 -85.5q0 -71 -36.5 -117t-101.5 -49v6z" />
    <glyph glyph-name="divide" unicode="&#xf7;" horiz-adv-x="220" 
 />
    <glyph glyph-name="ydieresis" unicode="&#xff;" horiz-adv-x="531" 
d="M112 680q0 25 18 42.5t43 17.5t42.5 -17.5t17.5 -42.5t-17.5 -43t-42.5 -18t-43 18t-18 43zM320 680q0 25 17.5 42.5t42.5 17.5t43 -17.5t18 -42.5t-18 -43t-43 -18t-42.5 18t-17.5 43zM498 438q-15 -60 -38 -119.5t-46.5 -111.5t-44 -93l-31.5 -63q-32 -65 -58 -108.5
t-50.5 -69.5t-49.5 -37.5t-53 -11.5q-31 0 -50 14.5t-19 31.5v34h43q16 0 29.5 3.5t28.5 16t32.5 38t40.5 69.5q-32 48 -63 108.5t-59 126.5t-50 134.5t-34 134.5h52q28 0 39.5 -17.5t16.5 -36.5q9 -40 23.5 -86.5t33 -94.5t41 -95t47.5 -88q21 37 45 90.5t45.5 111.5
t38 115t23.5 101h36q18 0 30 -8.5t12 -32.5q0 -8 -4 -26.5t-7 -29.5z" />
    <glyph glyph-name="Ydieresis" unicode="&#x178;" horiz-adv-x="553" 
d="M122 814q0 25 18 42.5t43 17.5t42.5 -17.5t17.5 -42.5t-17.5 -43t-42.5 -18t-43 18t-18 43zM330 814q0 25 17.5 42.5t42.5 17.5t43 -17.5t18 -42.5t-18 -43t-43 -18t-42.5 18t-17.5 43zM541 643q0 -11 -11 -35.5t-28.5 -57t-40 -69.5t-46.5 -73.5t-47.5 -68.5t-41.5 -54
v-285h-34q-26 0 -42 13t-16 42v229q-30 40 -61.5 89t-61 101.5t-54.5 105t-42 100.5h47q49 0 69 -49q26 -63 66 -134t90 -143q24 34 50 75t50.5 84.5t45 86.5t34.5 80h38q20 0 28 -10t8 -27z" />
    <glyph glyph-name="fraction" unicode="&#x2044;" horiz-adv-x="483" 
d="M94 -10q-7 0 -19 8.5t-12 28.5q0 18 10 41l293 651h30q14 0 24.5 -10.5t10.5 -23.5t-5 -23l-301 -672h-31z" />
    <glyph glyph-name="fraction" unicode="&#x2215;" horiz-adv-x="483" 
d="M94 -10q-7 0 -19 8.5t-12 28.5q0 18 10 41l293 651h30q14 0 24.5 -10.5t10.5 -23.5t-5 -23l-301 -672h-31z" />
    <glyph glyph-name="currency" unicode="&#xa4;" 
d="M535 105q0 -23 -11.5 -43.5t-32.5 -36.5t-50.5 -25.5t-65.5 -9.5q-49 0 -93.5 18.5t-79.5 52.5t-57.5 81.5t-27.5 104.5h-89v33q0 16 13.5 22.5t22.5 6.5h49q-1 5 -1 10v18v20q0 6 1 12h-85v31q0 13 11 22t25 9h52q7 57 30.5 104.5t58.5 82t80.5 53.5t97.5 19
q33 0 61 -10.5t48 -27.5t31.5 -38.5t11.5 -44.5v-30h-5q-9 13 -24.5 25t-33.5 21.5t-37.5 15t-37.5 5.5q-80 0 -129.5 -41t-59.5 -134h232v-26q0 -15 -11.5 -25.5t-25.5 -10.5h-200q-1 -7 -1 -12q-1 -5 -1 -10v-10v-10t1 -9q0 -5 1 -9h237v-27q0 -12 -10 -23.5t-27 -11.5
h-197q4 -47 20.5 -79.5t42 -53.5t58 -30.5t69.5 -9.5q35 0 73.5 16.5t60.5 42.5h5v-28z" />
    <glyph glyph-name="guilsinglleft" unicode="&#x2039;" horiz-adv-x="339" 
d="M265 73q-41 0 -63.5 11t-37.5 34l-97 145l97 146q13 20 34.5 31.5t66.5 11.5h14l-118 -189l118 -190h-14z" />
    <glyph glyph-name="guilsinglright" unicode="&#x203a;" horiz-adv-x="339" 
d="M55 73l118 190l-118 189h14q45 0 66.5 -11.5t34.5 -31.5l97 -146l-97 -145q-15 -23 -37.5 -34t-63.5 -11h-14z" />
    <glyph glyph-name="daggerdbl" unicode="&#x2021;" horiz-adv-x="490" 
d="M284 108v-279h-27q-24 0 -36.5 14.5t-12.5 38.5v226h-166v28q0 19 13.5 35.5t36.5 16.5h116v267h-166v28q0 19 13.5 35.5t36.5 16.5h116v184h35q20 0 30.5 -12t10.5 -31v-141h166v-26q0 -25 -15.5 -39.5t-45.5 -14.5h-105v-267h166v-26q0 -25 -15.5 -39.5t-45.5 -14.5
h-105z" />
    <glyph glyph-name="periodcentered" unicode="&#xb7;" horiz-adv-x="250" 
d="M60 287q0 27 19 45.5t46 18.5t45.5 -18.5t18.5 -45.5t-18.5 -46t-45.5 -19t-46 19t-19 46z" />
    <glyph glyph-name="periodcentered" unicode="&#x2219;" horiz-adv-x="250" 
d="M60 287q0 27 19 45.5t46 18.5t45.5 -18.5t18.5 -45.5t-18.5 -46t-45.5 -19t-46 19t-19 46z" />
    <glyph glyph-name="quotesinglbase" unicode="&#x201a;" horiz-adv-x="276" 
d="M80 -150q23 24 36 50t13 49q0 17 -8 33t-22 26q-9 6 -17 21.5t-8 29.5q0 26 17.5 44.5t52.5 18.5q29 0 51.5 -26.5t22.5 -85.5q0 -71 -36.5 -117t-101.5 -49v6z" />
    <glyph glyph-name="quotedblbase" unicode="&#x201e;" horiz-adv-x="430" 
d="M80 -150q23 24 36 50t13 49q0 17 -8 33t-22 26q-9 6 -17 21.5t-8 29.5q0 26 17.5 44.5t52.5 18.5q29 0 51.5 -26.5t22.5 -85.5q0 -71 -36.5 -117t-101.5 -49v6zM320 -150q23 24 36 50t13 49q0 17 -8 33t-22 26q-9 6 -17 21.5t-8 29.5q0 26 17.5 44.5t52.5 18.5
q29 0 51.5 -26.5t22.5 -85.5q0 -71 -36.5 -117t-101.5 -49v6z" />
    <glyph glyph-name="perthousand" unicode="&#x2030;" horiz-adv-x="1403" 
d="M773 349q-22 0 -37 -11.5t-24.5 -30t-13.5 -43t-4 -49.5q0 -31 4.5 -58t14.5 -47t26.5 -31.5t40.5 -11.5q22 0 37 11.5t24.5 30t13.5 42.5t4 49q0 31 -4.5 58t-14.5 47.5t-26.5 32t-40.5 11.5zM1171 349q-22 0 -37 -11.5t-24.5 -30t-13.5 -43t-4 -49.5q0 -31 4.5 -58
t14.5 -47t26.5 -31.5t40.5 -11.5q22 0 37 11.5t24.5 30t13.5 42.5t4 49q0 31 -4.5 58t-14.5 47.5t-26.5 32t-40.5 11.5zM218 614q-22 0 -37 -11.5t-24.5 -30t-13.5 -43t-4 -49.5q0 -31 4.5 -58t14.5 -47t26.5 -31.5t40.5 -11.5q22 0 37 11.5t24.5 30t13.5 42.5t4 49
q0 31 -4.5 58t-14.5 47.5t-26.5 32t-40.5 11.5zM772 -10q-37 0 -66.5 16.5t-50 45t-31.5 67t-11 81.5q0 49 11 90.5t32.5 71.5t53 46.5t71.5 16.5q37 0 66.5 -16.5t50 -45t31.5 -66.5t11 -81q0 -49 -11 -90.5t-32.5 -71.5t-53 -47t-71.5 -17zM1170 -10q-37 0 -66.5 16.5
t-50 45t-31.5 67t-11 81.5q0 49 11 90.5t32.5 71.5t53 46.5t71.5 16.5q37 0 66.5 -16.5t50 -45t31.5 -66.5t11 -81q0 -49 -11 -90.5t-32.5 -71.5t-53 -47t-71.5 -17zM347 0q-33 0 -33 27q0 16 12 43l277 610h26q11 0 21 -11.5t10 -30.5q0 -12 -6 -25l-279 -613h-28zM217 255
q-37 0 -66.5 16.5t-50 45t-31.5 67t-11 81.5q0 49 11 90.5t32.5 71.5t53 46.5t71.5 16.5q37 0 66.5 -16.5t50 -45t31.5 -66.5t11 -81q0 -49 -11 -90.5t-32.5 -71.5t-53 -47t-71.5 -17z" />
    <glyph glyph-name="Acircumflex" unicode="&#xc2;" horiz-adv-x="597" 
d="M434 253q-27 97 -59.5 180.5t-77.5 164.5q-24 -43 -43.5 -84.5t-36 -83.5t-30.5 -86t-27 -91h274zM552 0q-29 0 -43.5 12.5t-19.5 35.5q-7 35 -16.5 71t-15.5 61h-318q-5 -19 -10.5 -41.5t-11 -46.5t-10.5 -47.5t-9 -44.5h-35q-41 0 -41 44q0 23 10.5 70.5t28.5 107.5
t41.5 127t50.5 130t55 116t54 85h30q29 0 49.5 -19t42.5 -57q15 -26 33.5 -66t38 -88.5t39 -104.5t36.5 -114t31.5 -117t22.5 -114h-33zM288 793l-150 -78v40q0 39 32 57l119 69l117 -68q17 -10 26 -23.5t9 -34.5v-40z" />
    <glyph glyph-name="Ecircumflex" unicode="&#xca;" horiz-adv-x="560" 
d="M302 798l-150 -78v40q0 39 32 57l119 69l117 -68q17 -10 26 -23.5t9 -34.5v-40zM523 71q0 -18 -4 -32t-17.5 -23.5t-38.5 -15t-67 -5.5h-84q-128 0 -187.5 71.5t-59.5 211.5v123q0 22 2 46.5t5 49t7 47.5t9 41q12 50 32 72.5t54 22.5h355v-37q0 -18 -14 -32.5t-52 -14.5
h-282q-11 -42 -17.5 -97.5t-6.5 -109.5h295v-29q0 -20 -14 -34.5t-45 -14.5h-236v-50q0 -51 10 -86t32.5 -56.5t57.5 -31t86 -9.5h52q38 0 71 6t57 13v-26z" />
    <glyph glyph-name="Aacute" unicode="&#xc1;" horiz-adv-x="597" 
d="M434 253q-27 97 -59.5 180.5t-77.5 164.5q-24 -43 -43.5 -84.5t-36 -83.5t-30.5 -86t-27 -91h274zM552 0q-29 0 -43.5 12.5t-19.5 35.5q-7 35 -16.5 71t-15.5 61h-318q-5 -19 -10.5 -41.5t-11 -46.5t-10.5 -47.5t-9 -44.5h-35q-41 0 -41 44q0 23 10.5 70.5t28.5 107.5
t41.5 127t50.5 130t55 116t54 85h30q29 0 49.5 -19t42.5 -57q15 -26 33.5 -66t38 -88.5t39 -104.5t36.5 -114t31.5 -117t22.5 -114h-33zM253 758q13 27 34.5 52t40.5 44q26 26 46.5 33.5t37.5 7.5q20 0 30.5 -11.5t10.5 -28.5q0 -41 -64 -70q-48 -22 -74.5 -27.5t-45.5 -5.5
h-16v6z" />
    <glyph glyph-name="Edieresis" unicode="&#xcb;" horiz-adv-x="560" 
d="M132 815q0 25 18 42.5t43 17.5t42.5 -17.5t17.5 -42.5t-17.5 -43t-42.5 -18t-43 18t-18 43zM340 815q0 25 17.5 42.5t42.5 17.5t43 -17.5t18 -42.5t-18 -43t-43 -18t-42.5 18t-17.5 43zM523 71q0 -18 -4 -32t-17.5 -23.5t-38.5 -15t-67 -5.5h-84q-128 0 -187.5 71.5
t-59.5 211.5v123q0 22 2 46.5t5 49t7 47.5t9 41q12 50 32 72.5t54 22.5h355v-37q0 -18 -14 -32.5t-52 -14.5h-282q-11 -42 -17.5 -97.5t-6.5 -109.5h295v-29q0 -20 -14 -34.5t-45 -14.5h-236v-50q0 -51 10 -86t32.5 -56.5t57.5 -31t86 -9.5h52q38 0 71 6t57 13v-26z" />
    <glyph glyph-name="Egrave" unicode="&#xc8;" horiz-adv-x="560" 
d="M357 754q-10 0 -21 1t-25 4.5t-32 10t-42 17.5q-64 29 -64 70q0 17 10.5 28.5t30.5 11.5q17 0 37.5 -7.5t46.5 -33.5q19 -19 40.5 -44t34.5 -52v-6h-16zM523 71q0 -18 -4 -32t-17.5 -23.5t-38.5 -15t-67 -5.5h-84q-128 0 -187.5 71.5t-59.5 211.5v123q0 22 2 46.5t5 49
t7 47.5t9 41q12 50 32 72.5t54 22.5h355v-37q0 -18 -14 -32.5t-52 -14.5h-282q-11 -42 -17.5 -97.5t-6.5 -109.5h295v-29q0 -20 -14 -34.5t-45 -14.5h-236v-50q0 -51 10 -86t32.5 -56.5t57.5 -31t86 -9.5h52q38 0 71 6t57 13v-26z" />
    <glyph glyph-name="Iacute" unicode="&#xcd;" horiz-adv-x="263" 
d="M72 760q13 27 34.5 52t40.5 44q26 26 46.5 33.5t37.5 7.5q20 0 30.5 -11.5t10.5 -28.5q0 -41 -64 -70q-48 -22 -74.5 -27.5t-45.5 -5.5h-16v6zM145 0q-26 0 -43 16t-17 51v613h44q18 0 33.5 -13t15.5 -33v-634h-33z" />
    <glyph glyph-name="Icircumflex" unicode="&#xce;" horiz-adv-x="263" 
d="M131 797l-150 -78v40q0 39 32 57l119 69l117 -68q17 -10 26 -23.5t9 -34.5v-40zM145 0q-26 0 -43 16t-17 51v613h44q18 0 33.5 -13t15.5 -33v-634h-33z" />
    <glyph glyph-name="Idieresis" unicode="&#xcf;" horiz-adv-x="263" 
d="M-48 815q0 25 18 42.5t43 17.5t42.5 -17.5t17.5 -42.5t-17.5 -43t-42.5 -18t-43 18t-18 43zM160 815q0 25 17.5 42.5t42.5 17.5t43 -17.5t18 -42.5t-18 -43t-43 -18t-42.5 18t-17.5 43zM145 0q-26 0 -43 16t-17 51v613h44q18 0 33.5 -13t15.5 -33v-634h-33z" />
    <glyph glyph-name="Igrave" unicode="&#xcc;" horiz-adv-x="263" 
d="M171 754q-10 0 -21 1t-25 4.5t-32 10t-42 17.5q-64 29 -64 70q0 17 10.5 28.5t30.5 11.5q17 0 37.5 -7.5t46.5 -33.5q19 -19 40.5 -44t34.5 -52v-6h-16zM145 0q-26 0 -43 16t-17 51v613h44q18 0 33.5 -13t15.5 -33v-634h-33z" />
    <glyph glyph-name="Oacute" unicode="&#xd3;" horiz-adv-x="726" 
d="M315 759q13 27 34.5 52t40.5 44q26 26 46.5 33.5t37.5 7.5q20 0 30.5 -11.5t10.5 -28.5q0 -41 -64 -70q-48 -22 -74.5 -27.5t-45.5 -5.5h-16v6zM580 332q0 137 -53.5 205.5t-168.5 68.5q-97 0 -154 -63.5t-57 -193.5q0 -133 55.5 -204t166.5 -71q49 0 88.5 18t66.5 51.5
t41.5 81.5t14.5 107zM671 349q0 -78 -21 -144t-60.5 -113.5t-98 -74.5t-133.5 -27q-62 0 -116.5 23t-96 67t-65.5 107.5t-24 144.5q0 78 21 144t60.5 113.5t98 74t133.5 26.5q69 0 124.5 -25t95 -70t61 -108t21.5 -138z" />
    <glyph glyph-name="Ocircumflex" unicode="&#xd4;" horiz-adv-x="726" 
d="M363 798l-150 -78v40q0 39 32 57l119 69l117 -68q17 -10 26 -23.5t9 -34.5v-40zM580 332q0 137 -53.5 205.5t-168.5 68.5q-97 0 -154 -63.5t-57 -193.5q0 -133 55.5 -204t166.5 -71q49 0 88.5 18t66.5 51.5t41.5 81.5t14.5 107zM671 349q0 -78 -21 -144t-60.5 -113.5
t-98 -74.5t-133.5 -27q-62 0 -116.5 23t-96 67t-65.5 107.5t-24 144.5q0 78 21 144t60.5 113.5t98 74t133.5 26.5q69 0 124.5 -25t95 -70t61 -108t21.5 -138z" />
    <glyph glyph-name="Ograve" unicode="&#xd2;" horiz-adv-x="726" 
d="M377 754q-10 0 -21 1t-25 4.5t-32 10t-42 17.5q-64 29 -64 70q0 17 10.5 28.5t30.5 11.5q17 0 37.5 -7.5t46.5 -33.5q19 -19 40.5 -44t34.5 -52v-6h-16zM580 332q0 137 -53.5 205.5t-168.5 68.5q-97 0 -154 -63.5t-57 -193.5q0 -133 55.5 -204t166.5 -71q49 0 88.5 18
t66.5 51.5t41.5 81.5t14.5 107zM671 349q0 -78 -21 -144t-60.5 -113.5t-98 -74.5t-133.5 -27q-62 0 -116.5 23t-96 67t-65.5 107.5t-24 144.5q0 78 21 144t60.5 113.5t98 74t133.5 26.5q69 0 124.5 -25t95 -70t61 -108t21.5 -138z" />
    <glyph glyph-name="Uacute" unicode="&#xda;" horiz-adv-x="684" 
d="M265 760q13 27 34.5 52t40.5 44q26 26 46.5 33.5t37.5 7.5q20 0 30.5 -11.5t10.5 -28.5q0 -41 -64 -70q-48 -22 -74.5 -27.5t-45.5 -5.5h-16v6zM70 680h32q33 0 46.5 -15.5t13.5 -56.5v-293q0 -127 44 -183.5t139 -56.5q48 0 82 13.5t55 41.5t30.5 72t9.5 105v373h35
q57 0 57 -67v-298q0 -156 -70 -240.5t-205 -84.5t-202 83t-67 234v373z" />
    <glyph glyph-name="Ucircumflex" unicode="&#xdb;" horiz-adv-x="684" 
d="M332 798l-150 -78v40q0 39 32 57l119 69l117 -68q17 -10 26 -23.5t9 -34.5v-40zM70 680h32q33 0 46.5 -15.5t13.5 -56.5v-293q0 -127 44 -183.5t139 -56.5q48 0 82 13.5t55 41.5t30.5 72t9.5 105v373h35q57 0 57 -67v-298q0 -156 -70 -240.5t-205 -84.5t-202 83t-67 234
v373z" />
    <glyph glyph-name="Ugrave" unicode="&#xd9;" horiz-adv-x="684" 
d="M362 753q-10 0 -21 1t-25 4.5t-32 10t-42 17.5q-64 29 -64 70q0 17 10.5 28.5t30.5 11.5q17 0 37.5 -7.5t46.5 -33.5q19 -19 40.5 -44t34.5 -52v-6h-16zM70 680h32q33 0 46.5 -15.5t13.5 -56.5v-293q0 -127 44 -183.5t139 -56.5q48 0 82 13.5t55 41.5t30.5 72t9.5 105
v373h35q57 0 57 -67v-298q0 -156 -70 -240.5t-205 -84.5t-202 83t-67 234v373z" />
    <glyph glyph-name="dotlessi" unicode="&#x131;" horiz-adv-x="317" 
d="M302 49q0 -26 -14.5 -40t-38.5 -14q-160 0 -160 159v381h28q23 0 43 -18t20 -53v-297q0 -50 22.5 -69t60.5 -19h39v-30z" />
    <glyph glyph-name="circumflex" unicode="&#x2c6;" horiz-adv-x="607" 
d="M302 682l-150 -78v40q0 39 32 57l119 69l117 -68q17 -10 26 -23.5t9 -34.5v-40z" />
    <glyph glyph-name="tilde" unicode="&#x2dc;" horiz-adv-x="416" 
d="M267 623q-17 0 -37 11t-33 25q-14 14 -26.5 23.5t-23.5 9.5q-21 0 -30.5 -18.5t-9.5 -51.5h-28q-8 0 -19.5 10t-11.5 31q0 26 9 45t23.5 31t31.5 17.5t33 5.5t34.5 -8.5t32.5 -22.5q17 -17 29 -27.5t26 -10.5q41 0 41 70h29q9 0 20 -10.5t11 -31.5q0 -46 -29 -72t-72 -26
z" />
    <glyph glyph-name="macron" unicode="&#xaf;" horiz-adv-x="330" 
d="M55 628v32q0 20 16 36t46 16h158v-36q0 -22 -14 -35t-40 -13h-166z" />
    <glyph glyph-name="macron" unicode="&#x2c9;" horiz-adv-x="330" 
d="M55 628v32q0 20 16 36t46 16h158v-36q0 -22 -14 -35t-40 -13h-166z" />
    <glyph glyph-name="breve" unicode="&#x2d8;" horiz-adv-x="594" 
d="M297 617q-60 0 -95 27.5t-35 95.5v2q25 -23 55.5 -39t75.5 -16q42 0 73.5 16t55.5 39v-7q0 -64 -35 -91t-95 -27z" />
    <glyph glyph-name="dotaccent" unicode="&#x2d9;" horiz-adv-x="407" 
d="M147 685q0 23 17 39.5t40 16.5t39.5 -16.5t16.5 -39.5t-16.5 -40t-39.5 -17t-40 17t-17 40z" />
    <glyph glyph-name="ring" unicode="&#x2da;" horiz-adv-x="413" 
d="M207 758q-19 0 -31 -14.5t-12 -36.5q0 -20 12.5 -34.5t29.5 -14.5q19 0 32 13t13 36q0 22 -12.5 36.5t-31.5 14.5zM207 604q-27 0 -47 8.5t-33.5 23t-20 33t-6.5 38.5q0 21 6.5 39.5t19.5 33t33.5 23t47.5 8.5q54 0 80 -31t26 -73q0 -21 -7 -39.5t-20.5 -32.5
t-33.5 -22.5t-45 -8.5z" />
    <glyph glyph-name="cedilla" unicode="&#xb8;" horiz-adv-x="581" 
d="M355 -127q0 16 -12 22t-41 6q-13 0 -26.5 -0.5t-24.5 -2.5q3 11 7 27.5t9 33.5q5 19 11 41h49l-5 -50q106 0 106 -74q0 -26 -10.5 -43t-28 -27.5t-39.5 -14.5t-45 -4q-13 0 -30.5 1.5t-33 7.5t-26.5 17.5t-11 31.5v23h3h2q14 -13 41 -18.5t48 -5.5q32 0 44.5 5.5
t12.5 23.5z" />
    <glyph glyph-name="hungarumlaut" unicode="&#x2dd;" horiz-adv-x="372" 
d="M138 673q-10 -8 -25.5 -17.5t-32 -17.5t-31.5 -14t-24 -7h-5q8 22 22 48t27 46q17 27 38 46.5t42 19.5q22 0 29.5 -7.5t7.5 -24.5q0 -18 -15 -37.5t-33 -34.5zM308 673q-10 -8 -25.5 -17.5t-32 -17.5t-31.5 -14t-24 -7h-4q8 22 21.5 48t26.5 46q17 27 38.5 46.5
t41.5 19.5q22 0 29.5 -7.5t7.5 -24.5q0 -18 -14.5 -37.5t-33.5 -34.5z" />
    <glyph glyph-name="ogonek" unicode="&#x2db;" horiz-adv-x="480" 
d="M254 -203q-51 0 -79 23t-28 62q0 19 7.5 36.5t20.5 33t29 27.5t34 21h39l-20 -18q-14 -12 -23 -21.5t-14.5 -19.5t-8 -21t-2.5 -26q0 -23 17.5 -35.5t44.5 -12.5q14 0 30 3t42 17v-19q0 -26 -24 -38t-65 -12z" />
    <glyph glyph-name="caron" unicode="&#x2c7;" horiz-adv-x="597" 
d="M300 706l150 78v-40q0 -39 -32 -57l-119 -69l-117 68q-17 10 -26 23.5t-9 34.5v40z" />
    <glyph glyph-name="lslash" unicode="&#x142;" horiz-adv-x="320" 
d="M172 310v-144q0 -50 23 -68t61 -18h59v-30q0 -54 -73 -54q-79 0 -120.5 39t-41.5 120v113l-84 -38v37q0 19 10.5 35t42.5 30l31 14v374h28q28 0 46 -17.5t18 -52.5v-263l133 60v-36q0 -22 -11.5 -37t-43.5 -29z" />
    <glyph glyph-name="Scaron" unicode="&#x160;" horiz-adv-x="579" 
d="M303 844l150 78v-40q0 -39 -32 -57l-119 -69l-117 68q-17 10 -26 23.5t-9 34.5v40zM272 -10q-36 0 -72.5 10.5t-66 28.5t-47.5 42.5t-18 53.5v44h5q31 -42 85.5 -67.5t120.5 -25.5q44 0 73.5 8t47.5 22t25.5 34.5t7.5 46.5q0 27 -8 46t-28 33t-54.5 25.5t-86.5 23.5
q-100 22 -149 59.5t-49 110.5q0 43 18 80.5t51 65.5t81 43.5t108 15.5q47 0 83.5 -11t61 -29t37.5 -40.5t13 -45.5v-41h-5q-32 41 -77.5 61t-117.5 20q-75 0 -116 -27.5t-41 -77.5q0 -24 7 -41t25 -29.5t50 -23t83 -22.5q36 -8 73 -22.5t67.5 -37t49.5 -53.5t19 -73
t-15.5 -80t-47 -66t-80 -44.5t-113.5 -16.5z" />
    <glyph glyph-name="scaron" unicode="&#x161;" horiz-adv-x="488" 
d="M260 706l150 78v-40q0 -39 -32 -57l-119 -69l-117 68q-17 10 -26 23.5t-9 34.5v40zM434 162q0 -42 -15.5 -74t-43.5 -54t-66 -33t-84 -11q-34 0 -63.5 7.5t-51.5 21.5t-34.5 33.5t-12.5 43.5v39h5q23 -25 65 -42.5t94 -17.5q60 0 87 19t27 59q0 16 -5 28.5t-20 22.5
t-42.5 19t-73.5 19q-75 16 -111 45.5t-36 89.5q0 33 14.5 63t41.5 53.5t66.5 37.5t89.5 14q30 0 58 -6.5t49.5 -19.5t35 -32t13.5 -43v-40h-5q-17 21 -57 38t-87 17q-69 0 -98 -21t-29 -55q0 -14 5 -24t19 -18t39.5 -16t67.5 -17q158 -34 158 -146z" />
    <glyph glyph-name="Yacute" unicode="&#xdd;" horiz-adv-x="553" 
d="M236 753q13 27 34.5 52t40.5 44q26 26 46.5 33.5t37.5 7.5q20 0 30.5 -11.5t10.5 -28.5q0 -41 -64 -70q-48 -22 -74.5 -27.5t-45.5 -5.5h-16v6zM541 643q0 -11 -11 -35.5t-28.5 -57t-40 -69.5t-46.5 -73.5t-47.5 -68.5t-41.5 -54v-285h-34q-26 0 -42 13t-16 42v229
q-30 40 -61.5 89t-61 101.5t-54.5 105t-42 100.5h47q49 0 69 -49q26 -63 66 -134t90 -143q24 34 50 75t50.5 84.5t45 86.5t34.5 80h38q20 0 28 -10t8 -27z" />
    <glyph glyph-name="yacute" unicode="&#xfd;" horiz-adv-x="531" 
d="M225 634q13 27 34.5 52t40.5 44q26 26 46.5 33.5t37.5 7.5q20 0 30.5 -11.5t10.5 -28.5q0 -41 -64 -70q-48 -22 -74.5 -27.5t-45.5 -5.5h-16v6zM498 438q-15 -60 -38 -119.5t-46.5 -111.5t-44 -93l-31.5 -63q-32 -65 -58 -108.5t-50.5 -69.5t-49.5 -37.5t-53 -11.5
q-31 0 -50 14.5t-19 31.5v34h43q16 0 29.5 3.5t28.5 16t32.5 38t40.5 69.5q-32 48 -63 108.5t-59 126.5t-50 134.5t-34 134.5h52q28 0 39.5 -17.5t16.5 -36.5q9 -40 23.5 -86.5t33 -94.5t41 -95t47.5 -88q21 37 45 90.5t45.5 111.5t38 115t23.5 101h36q18 0 30 -8.5
t12 -32.5q0 -8 -4 -26.5t-7 -29.5z" />
    <glyph glyph-name="Thorn" unicode="&#xde;" horiz-adv-x="580" 
d="M124 680q18 0 33.5 -13t15.5 -33v-70q21 4 41.5 6t38.5 2h53q51 0 94 -14t74.5 -40.5t49 -65.5t17.5 -89q0 -48 -18 -88.5t-49.5 -70.5t-74 -46.5t-91.5 -16.5q-46 0 -81 7.5t-55 21.5v-170h-34q-26 0 -42 14.5t-16 45.5v620h44zM173 477q0 -62 -0.5 -115.5t-0.5 -113.5
q28 -15 63 -20.5t74 -5.5q70 0 105 35t35 96q0 134 -141 134h-52q-17 0 -42 -3t-41 -7z" />
    <glyph glyph-name="thorn" unicode="&#xfe;" horiz-adv-x="611" 
d="M70 253v467h28q28 0 46 -17.5t18 -52.5v-166q23 29 68 45t96 16q44 0 85.5 -19t73.5 -54t51.5 -84t19.5 -108q0 -69 -18.5 -122.5t-51 -91t-76 -57t-94.5 -19.5q-46 0 -87 19.5t-67 61.5v-241h-33q-29 0 -44 15.5t-15 53.5v256v98zM162 239q9 -84 53 -124t111 -40
q65 0 101.5 46t36.5 134q0 54 -11.5 93t-32.5 63.5t-50 36t-64 11.5q-63 0 -99.5 -39t-44.5 -106v-75z" />
    <glyph glyph-name="Zcaron" unicode="&#x17d;" horiz-adv-x="589" 
d="M306 843l150 78v-40q0 -39 -32 -57l-119 -69l-117 68q-17 10 -26 23.5t-9 34.5v40zM537 49q0 -21 -16 -35t-42 -14h-361q-27 0 -42.5 14.5t-15.5 35.5q0 17 5.5 35t18.5 40.5t33 50.5t50 66l193 245q25 32 41.5 61t20.5 49h-367v19q0 30 15.5 47t62.5 17h352q14 0 29 -14
t15 -37q0 -58 -86 -168l-191 -244q-29 -37 -53 -71t-38 -63h376v-34z" />
    <glyph glyph-name="zcaron" unicode="&#x17e;" horiz-adv-x="502" 
d="M260 706l150 78v-40q0 -39 -32 -57l-119 -69l-117 68q-17 10 -26 23.5t-9 34.5v40zM462 49q0 -22 -17 -35.5t-46 -13.5h-297q-25 0 -41.5 14t-16.5 37q0 13 3.5 26.5t12.5 29.5t23.5 35t36.5 43l182 204q11 11 25 30t19 33h-306v31q0 23 15.5 37.5t39.5 14.5h305
q22 0 38.5 -11.5t16.5 -38.5q0 -29 -19.5 -60.5t-55.5 -72.5l-173 -192q-20 -23 -31.5 -40t-22.5 -37h309v-34z" />
    <glyph glyph-name="onehalf" unicode="&#xbd;" horiz-adv-x="900" 
d="M279 0q-8 0 -19.5 8.5t-11.5 28.5q0 8 2 18.5t8 22.5l281 603h20q14 0 24.5 -10.5t10.5 -23.5t-5 -23l-289 -624h-21zM217 254q-22 0 -37 14t-15 43v289l-42 -15q-32 -12 -51.5 -3.5t-23.5 28.5l-4 22l79 35q33 15 49 19t33 4q22 0 34.5 -14.5t12.5 -31.5v-390h-35z
M832 42q0 -20 -15.5 -31t-41.5 -11h-197q-18 0 -30.5 12.5t-12.5 29.5q0 10 3.5 21.5t12.5 25t24.5 30t39.5 37.5l100 82q17 14 23 28.5t6 28.5q0 29 -19.5 46t-54.5 17q-47 0 -76 -13.5t-49 -41.5h-3v30q0 19 7.5 36.5t24.5 31.5t44.5 22.5t67.5 8.5q30 0 56 -10t45 -27
t30 -40t11 -49q0 -24 -5 -42t-15.5 -33.5t-27.5 -31.5t-41 -35l-66 -51q-11 -8 -23 -20t-17 -20h199v-31z" />
    <glyph glyph-name="onequarter" unicode="&#xbc;" horiz-adv-x="900" 
d="M709 349q-11 -15 -27 -37t-32.5 -46.5t-31.5 -48t-25 -41.5h116v173zM863 141q0 -17 -9 -27t-27 -10h-36v-104h-31q-23 0 -37 14t-14 42v48h-148q-22 0 -35 12t-13 27q0 19 3 29.5t8 18.5q11 21 33 55t48.5 70.5t54 70t50.5 51.5h29q23 0 37.5 -15t14.5 -46v-201h72v-35z
M279 0q-8 0 -19.5 8.5t-11.5 28.5q0 8 2 18.5t8 22.5l281 603h20q14 0 24.5 -10.5t10.5 -23.5t-5 -23l-289 -624h-21zM217 254q-22 0 -37 14t-15 43v289l-42 -15q-32 -12 -51.5 -3.5t-23.5 28.5l-4 22l79 35q33 15 49 19t33 4q22 0 34.5 -14.5t12.5 -31.5v-390h-35z" />
    <glyph glyph-name="onesuperior" unicode="&#xb9;" horiz-adv-x="331" 
d="M217 254q-22 0 -37 14t-15 43v289l-42 -15q-32 -12 -51.5 -3.5t-23.5 28.5l-4 22l79 35q33 15 49 19t33 4q22 0 34.5 -14.5t12.5 -31.5v-390h-35z" />
    <glyph glyph-name="threequarters" unicode="&#xbe;" horiz-adv-x="900" 
d="M354 374q0 -63 -43 -100.5t-129 -37.5q-26 0 -49 5.5t-40 16.5t-27 27.5t-10 39.5v34h3q20 -22 51 -34.5t76 -12.5q44 0 62.5 17t18.5 42q0 32 -20.5 45t-61.5 14q-29 1 -41 9t-12 25v28q9 2 21 2t26 1q49 2 67.5 18t18.5 39q0 29 -20.5 46t-65.5 17q-36 0 -68 -12
t-49 -35h-3v38q0 13 8.5 28t25.5 27.5t42.5 20.5t58.5 8q72 0 114.5 -33.5t42.5 -88.5q0 -48 -22.5 -71t-55.5 -31q14 -3 28.5 -11.5t26 -21t19 -28t7.5 -31.5zM709 349q-11 -15 -27 -37t-32.5 -46.5t-31.5 -48t-25 -41.5h116v173zM319 0q-8 0 -19.5 8.5t-11.5 28.5
q0 8 2 18.5t8 22.5l281 603h20q14 0 24.5 -10.5t10.5 -23.5t-5 -23l-289 -624h-21zM863 141q0 -17 -9 -27t-27 -10h-36v-104h-31q-23 0 -37 14t-14 42v48h-148q-22 0 -35 12t-13 27q0 19 3 29.5t8 18.5q11 21 33 55t48.5 70.5t54 70t50.5 51.5h29q23 0 37.5 -15t14.5 -46
v-201h72v-35z" />
    <glyph glyph-name="threesuperior" unicode="&#xb3;" horiz-adv-x="412" 
d="M354 374q0 -63 -43 -100.5t-129 -37.5q-26 0 -49 5.5t-40 16.5t-27 27.5t-10 39.5v34h3q20 -22 51 -34.5t76 -12.5q44 0 62.5 17t18.5 42q0 32 -20.5 45t-61.5 14q-29 1 -41 9t-12 25v28q9 2 21 2t26 1q49 2 67.5 18t18.5 39q0 29 -20.5 46t-65.5 17q-36 0 -68 -12
t-49 -35h-3v38q0 13 8.5 28t25.5 27.5t42.5 20.5t58.5 8q72 0 114.5 -33.5t42.5 -88.5q0 -48 -22.5 -71t-55.5 -31q14 -3 28.5 -11.5t26 -21t19 -28t7.5 -31.5z" />
    <glyph glyph-name="twosuperior" unicode="&#xb2;" horiz-adv-x="404" 
d="M352 300q0 -20 -15.5 -30.5t-41.5 -10.5h-197q-18 0 -30.5 12t-11.5 30q0 10 3 21t12 24.5t24.5 30t40.5 37.5l99 83q17 14 23 28.5t6 28.5q0 29 -19.5 45.5t-54.5 16.5q-47 0 -76 -13t-49 -42h-3v31q0 18 7.5 36t24.5 32t44.5 22.5t67.5 8.5q31 0 57 -10t45 -27.5
t29.5 -40.5t10.5 -48q0 -24 -5 -42t-15.5 -34t-27.5 -31.5t-41 -34.5l-66 -52q-11 -8 -23 -20t-17 -20h199v-31z" />
    <glyph glyph-name="brokenbar" unicode="&#xa6;" horiz-adv-x="257" 
d="M135 -170q-14 0 -27.5 12t-13.5 33v353h20q15 0 28.5 -10t13.5 -30v-358h-21zM135 322q-14 0 -27.5 12t-13.5 33v353h20q15 0 28.5 -10t13.5 -30v-358h-21z" />
    <glyph glyph-name="minus" unicode="&#x2212;" 
d="M476 301q0 -21 -16 -33t-45 -12h-326v42q0 20 15.5 33t43.5 13h328v-43z" />
    <glyph glyph-name="multiply" unicode="&#xd7;" 
d="M511 84q-14 -14 -31 -13.5t-37 20.5l-151 151l-178 -178l-28 29q-14 14 -13.5 31t20.5 37l140 141l-177 177l27 28q14 13 32 13t35 -17l142 -142l170 170l27 -28q14 -13 14 -31t-17 -36l-135 -134l189 -189z" />
    <glyph glyph-name="Lslash" unicode="&#x141;" horiz-adv-x="498" 
d="M171 309v-46q0 -55 6.5 -90t24 -55.5t47 -28.5t76.5 -8h38q37 0 73 4t60 11v-27q0 -15 -5 -28.5t-19 -23.5t-40.5 -16t-68.5 -6h-57q-119 0 -172.5 63t-53.5 181v29l-84 -38v37q0 19 10.5 35t42.5 30l31 14v335h33q27 0 42.5 -14t15.5 -54v-226l134 60v-36
q0 -22 -11.5 -37t-43.5 -29z" />
    <glyph glyph-name="Eth" unicode="&#xd0;" horiz-adv-x="670" 
d="M523 333q0 137 -62.5 203.5t-170.5 66.5h-39q-17 0 -41 -2.5t-43 -6.5v-214h147v-32q0 -15 -12.5 -25.5t-35.5 -10.5h-99v-147q0 -47 24 -67.5t72 -20.5h37q53 0 94.5 18.5t70 52.5t43.5 81t15 104zM615 347q0 -79 -22.5 -144t-63 -111t-96.5 -71.5t-123 -25.5h-61
q-87 0 -130.5 39.5t-43.5 105.5v172h-83v35q0 14 12 23.5t34 9.5h37v285q14 4 33.5 7.5t40.5 6.5t41 4.5t37 1.5h85q61 0 116.5 -24t96.5 -68t65.5 -106.5t24.5 -139.5z" />
    <glyph glyph-name="eth" unicode="&#xf0;" horiz-adv-x="602" 
d="M451 258q0 97 -38 149t-121 52q-72 0 -108 -49t-36 -130q0 -96 38 -150.5t121 -54.5q36 0 63 13.5t45 38t27 58t9 73.5zM545 278q0 -61 -16.5 -114t-48 -92t-78 -61.5t-107.5 -22.5q-57 0 -101 22.5t-74.5 60t-46.5 86.5t-16 103q0 61 15 112.5t45 89t74.5 58.5t103.5 21
q21 0 42.5 -3.5t41.5 -11t36.5 -19.5t26.5 -28q-9 40 -22.5 70t-30.5 51.5t-36 37t-39 26.5l-105 -83q-11 10 -16 17.5t-2 24.5q4 12 16 22l58 47q-14 6 -26.5 8t-29.5 6q-15 4 -24 12.5t-9 16.5v34l30 -1q31 -2 62.5 -10.5t61.5 -19.5l81 65l15 -15q5 -5 5.5 -11t-1.5 -14
q-2 -11 -12 -20t-18 -16q-3 -2 -7.5 -5.5t-15.5 -11.5q39 -27 70 -66.5t52.5 -88.5t33.5 -107t12 -122v-47v-1z" />
  </font>
</defs>
</svg>
