<?xml version="1.0" encoding="utf-8"?>
<!-- Generator: Adobe Illustrator 16.0.3, SVG Export Plug-In . SVG Version: 6.00 Build 0)  -->
<!DOCTYPE svg PUBLIC "-//W3C//DTD SVG 1.1 Tiny//EN" "http://www.w3.org/Graphics/SVG/1.1/DTD/svg11-tiny.dtd">
<svg version="1.1" baseProfile="tiny" id="Capa_1" xmlns="http://www.w3.org/2000/svg" xmlns:xlink="http://www.w3.org/1999/xlink"
	 x="0px" y="0px" width="300px" height="300px" viewBox="0 0 300 300" overflow="scroll" xml:space="preserve">
<path fill-rule="evenodd" fill="#FFFFFF" d="M136,75.332c8.545-9.002,17.085-18.007,25.635-27.004
	c7.828-8.238,15.668-16.464,23.497-24.701c3.197-3.364,6.379-6.743,9.819-10.38c0.046,0.994,0.102,1.629,0.102,2.265
	c0.006,24.553,0,49.106,0.029,73.66c0.001,1.257-0.369,2.201-1.223,3.117c-13.347,14.314-26.665,28.654-39.994,42.984
	c-7.889,8.482-15.796,16.948-23.667,25.447c-1.811,1.954-3.39,4.093-4.639,6.469c-0.819,1.559-1.004,3.08-0.415,4.791
	c1.01,2.933,2.481,5.591,4.525,7.891c7.439,8.37,14.918,16.704,22.405,25.031c1.914,2.129,4.215,3.772,6.887,4.814
	c2.701,1.053,5.281,0.839,7.757-0.831c3.105-2.095,5.747-4.712,8.386-7.314c8.574-8.456,17.084-16.978,25.578-25.516
	c0.987-0.993,1.61-1.139,2.675-0.071c11.599,11.633,23.244,23.22,34.872,34.822c1.721,1.716,1.678,1.691-0.003,3.448
	c-8.74,9.134-17.455,18.292-26.191,27.429c-6.818,7.132-13.659,14.242-20.482,21.369c-4.56,4.763-9.096,9.548-13.66,14.306
	c-5.786,6.031-12.837,8.654-21.104,7.27c-4.887-0.819-8.7-3.826-11.981-7.369c-11.75-12.686-23.432-25.434-35.124-38.172
	c-12.41-13.521-24.807-27.055-37.201-40.59c-5.467-5.97-10.794-12.02-14.919-19.075c-4.019-6.874-3.745-13.412,0.382-20.062
	c3.278-5.281,7.593-9.658,11.831-14.12c5.649-5.949,11.26-11.935,16.887-17.904c0.224-0.147,0.487-0.258,0.667-0.447
	c2.522-2.639,5.083-5.244,7.529-7.952c1.696-1.877,3.734-3.447,5.096-5.625l0.02-0.021c0.838-0.37,1.344-1.115,1.943-1.746
	c7.807-8.226,15.621-16.444,23.394-24.702c1.806-1.918,3.832-3.645,5.315-5.858l0.015-0.025
	C132.617,79.261,134.445,77.426,136,75.332z"/>
<path fill-rule="evenodd" fill="#FFFFFF" d="M200.835,169.683c-16.94,0.672-29.755-13.85-30.462-29.51
	c-0.791-17.521,13.788-31.814,28.034-32.116c8.781-0.186,16.485,1.709,22.876,7.895c5.956,5.766,9.578,12.618,10.121,21.056
	C232.507,154.148,217.495,170.657,200.835,169.683z"/>
<path fill-rule="evenodd" fill="#FFFFFF" d="M130.627,80.982c-1.483,2.213-3.509,3.939-5.315,5.858
	c-7.772,8.258-15.587,16.477-23.394,24.702c-0.599,0.631-1.105,1.376-1.943,1.746c0.035-0.433-0.023-0.867,0.349-1.229
	c2.786-2.708,5.417-5.557,8.043-8.423c4.225-4.611,8.871-8.841,13.036-13.502c2.434-2.724,5.033-5.278,7.471-7.99
	C129.346,81.619,129.831,81.048,130.627,80.982z"/>
<path fill-rule="evenodd" fill="#FFFFFF" d="M99.956,113.31c-1.361,2.178-3.399,3.748-5.096,5.625
	c-2.446,2.708-5.007,5.313-7.529,7.952c-0.18,0.189-0.443,0.3-0.667,0.447c-0.151-0.825,0.347-1.339,0.867-1.857
	c2.26-2.252,4.57-4.459,6.741-6.794c0.956-1.028,1.909-2.081,2.731-3.25C97.705,114.434,98.448,113.279,99.956,113.31z"/>
<path fill-rule="evenodd" fill="#FFFFFF" d="M136,75.332c-1.556,2.095-3.384,3.93-5.358,5.625c0.48-1.173,1.116-2.268,2.2-2.95
	c0.491-0.309,0.526-0.8,0.833-1.165C134.303,76.097,134.789,75.167,136,75.332z"/>
</svg>
