<?xml version="1.0" encoding="utf-8"?>
<!-- Generator: Adobe Illustrator 16.0.3, SVG Export Plug-In . SVG Version: 6.00 Build 0)  -->
<!DOCTYPE svg PUBLIC "-//W3C//DTD SVG 1.1//EN" "http://www.w3.org/Graphics/SVG/1.1/DTD/svg11.dtd">
<svg version="1.1" id="Capa_1" xmlns="http://www.w3.org/2000/svg" xmlns:xlink="http://www.w3.org/1999/xlink" x="0px" y="0px"
	 width="594px" height="111px" viewBox="0 0 594 111" enable-background="new 0 0 594 111" xml:space="preserve">
<path fill="#FFFFFF" stroke="#000000" stroke-miterlimit="10" d="M509.98,45.309c-0.246,3.078,1.66,4.954-0.73,7.936
	c-0.23,0.288,0.392,1.654,0.951,2.121c5.587,4.657,3.672,10.928,3.553,16.733c-0.04,1.944-1.088,4.951-2.773,4.933
	c-7.55-0.084-8.119,10.067-15.439,10.016c-2.337-0.017-4.948-0.606-5.767-2.3c-2.028-4.191-5.181-6.098-9.459-7.141
	c-1.499-0.365-3.003-2.184-2.95-3.766c0.203-6.209-2.854-12.999,2.884-18.339c1.295-1.205,1.293-2.561,0.509-4.039
	c-1.455-2.743-1.179-5.43,1.539-6.917c2.692-1.474,5.492-1.096,7.375,2.329c0.941-3.583,1.756-7.346,6.385-6.781
	c3.503,0.427,4.387,3.135,3.933,7.39c2.914-4.628,4.961-3.155,8.325-3.426L509.98,45.309z M497.229,69.051
	c0.01,0,0.02,0,0.027-0.001c0-3.146,0.026-6.294-0.014-9.44c-0.016-1.158-0.084-2.512-1.599-2.657
	c-1.556-0.149-2.564,0.782-2.575,2.348c-0.043,6.458-0.041,12.917,0.044,19.375c0.017,1.259,0.889,2.144,2.246,2.193
	c1.649,0.062,1.808-1.272,1.839-2.392C497.286,75.336,497.229,72.191,497.229,69.051z M482.75,67.253
	c1.611,1.388-1.749,5.58,2.446,5.438c3.221-0.109,1.733-3.774,1.659-5.754c-0.088-2.28,1.78-6.473-2.076-6.405
	C481.524,60.589,483.703,64.666,482.75,67.253z M507.991,66.752c0-0.997-0.019-1.995,0.004-2.992
	c0.033-1.597-0.239-3.258-2.052-3.455c-2.195-0.238-2.062,1.745-2.154,3.156c-0.131,1.986-0.12,3.99-0.038,5.98
	c0.057,1.387-0.436,3.369,1.824,3.386c2.285,0.016,2.406-1.841,2.411-3.581C507.988,68.415,507.986,67.584,507.991,66.752z"/>
<path fill="#FFFFFF" stroke="#000000" stroke-miterlimit="10" d="M510.044,44.031c-3.162-4.531-7.438-8.013-11.342-11.825
	c-3.01-2.94-5.812-1.22-8.236,1.182c-5.682,5.627-11.288,11.332-16.996,16.932c-1.576,1.546-3.339,4.165-5.782,1.756
	c-2.295-2.261-0.226-4.186,1.468-5.875c6.722-6.708,13.403-13.456,20.161-20.127c4.215-4.161,7.878-4.258,12.121-0.125
	c6.92,6.743,13.691,13.637,20.518,20.476c1.59,1.593,3.216,3.424,1.225,5.563c-2.079,2.232-3.874,0.437-5.551-1.004
	c-2.63-2.26-4.538-5.306-7.66-7.029L510.044,44.031z"/>
<path fill="#FFFFFF" stroke="#000000" stroke-miterlimit="10" d="M327.03,52.488c-2.271,2.127-4.268,3.348-6.927,0.807
	c-0.794-0.758-2.512-0.752-3.798-0.723c-0.884,0.021-2.057,0.301-2.304,1.52c-0.31,1.524,0.796,2.106,1.937,2.413
	c2.238,0.603,4.567,0.902,6.77,1.608c2.931,0.938,4.966,3.022,4.97,6.166c0.004,2.919-1.228,5.375-4.155,6.816
	c-4.267,2.102-11.214,1.559-14.527-1.566c-0.921-0.866-3.077-1.879-1.607-3.424c1.063-1.116,2.654-3.192,4.906-0.748
	c1.72,1.867,4.196,2.637,6.844,2.045c1.154-0.258,2.394-0.752,2.55-2.024c0.172-1.382-1.034-1.992-2.191-2.276
	c-1.934-0.475-3.944-0.666-5.84-1.248c-3.882-1.191-6.483-3.521-5.711-8.002c0.703-4.08,3.593-5.681,7.438-5.963
	C319.88,47.555,324.029,48.155,327.03,52.488z"/>
<path fill="#FFFFFF" stroke="#000000" stroke-miterlimit="10" d="M417.178,53.85c0-1.84,0.104-3.326-0.022-4.792
	c-0.227-2.594,1.482-2.403,3.198-2.484c1.779-0.084,2.733,0.295,2.701,2.403c-0.104,6.958-0.085,13.917-0.008,20.876
	c0.021,1.763-0.664,2.514-2.299,2.139c-3.19-0.732-6.288,0.099-9.434,0.265c-3.453,0.183-6.03-1.56-7.354-4.836
	c-1.725-4.271-1.642-8.485,1.295-12.18c2.13-2.68,5.133-3.448,8.478-2.536C414.676,52.961,415.592,53.318,417.178,53.85z
	 M417.166,62.591c0.104-2.823-0.969-5.122-3.925-5.289c-3.017-0.171-4.243,2.058-4.329,4.875c-0.084,2.787,0.907,5.101,3.946,5.23
	C415.856,67.536,417.163,65.48,417.166,62.591z"/>
<path fill="#FFFFFF" stroke="#000000" stroke-miterlimit="10" d="M357.402,54.095c4.591-2.136,8.692-2.745,11.931,0.857
	c3.162,3.519,3.479,7.808,1.731,12.153c-1.282,3.188-3.646,5.209-7.2,5.145c-3.332-0.063-6.587-1.13-10.017-0.303
	c-2.463,0.595-1.965-1.553-1.972-2.928c-0.032-6.32-0.001-12.644-0.022-18.965c-0.007-1.862-0.313-3.579,2.635-3.544
	c2.584,0.031,3.147,1.09,2.934,3.304C357.313,50.951,357.402,52.107,357.402,54.095z M365.987,61.979
	c-0.225-2.424-1.244-4.836-4.278-4.707c-2.89,0.121-4.25,2.514-4.205,5.201c0.045,2.66,1.342,5.045,4.354,4.951
	C364.822,67.334,365.973,65.094,365.987,61.979z"/>
<path fill="#FFFFFF" stroke="#000000" stroke-miterlimit="10" d="M445.603,72.376c-6.228,0.048-10.499-4.129-10.385-10.155
	c0.108-5.758,4.407-9.966,10.223-10.008c5.98-0.042,10.473,4.436,10.38,10.35C455.727,68.439,451.677,72.329,445.603,72.376z
	 M445.828,67.578c2.845-0.559,4.016-2.735,3.907-5.378c-0.106-2.593-1.196-5.124-4.379-4.972c-3.104,0.148-4.128,2.738-4.078,5.304
	C441.33,65.122,442.492,67.389,445.828,67.578z"/>
<path fill="#FFFFFF" stroke="#000000" stroke-miterlimit="10" d="M379.372,57.57c2.275,2.363,4.704,2.005,6.818,2.572
	c3.083,0.828,5.709,2.396,5.431,6.065c-0.258,3.411-2.533,5.36-5.836,5.851c-3.661,0.543-7.313,0.557-10.432-1.947
	c-0.96-0.771-2.52-1.586-1.22-3.012c0.872-0.957,2.058-2.461,3.779-1.022c1.74,1.454,3.729,2.104,5.994,1.856
	c0.866-0.096,1.785-0.371,1.881-1.307c0.099-0.96-0.796-1.345-1.62-1.521c-1.786-0.383-3.605-0.625-5.371-1.084
	c-2.881-0.752-4.749-2.537-4.576-5.67c0.166-2.993,1.934-4.746,4.854-5.542c3.223-0.879,6.271-0.461,9.173,0.961
	c1.162,0.569,3.452,0.888,2.461,2.873c-0.738,1.479-2.211,2.945-4.401,1.271C384.342,56.413,382.164,56.617,379.372,57.57z"/>
<path fill="#FFFFFF" stroke="#000000" stroke-miterlimit="10" d="M348.017,62.671c0,0.997-0.063,1.998,0.012,2.989
	c0.352,4.672,0.112,8.615-6.309,5.469c-0.13-0.063-0.327,0.012-0.493,0.02c-11.051,0.514-11.051,0.514-11.051-10.58
	c0-1.494,0.102-2.998-0.022-4.481c-0.184-2.203,0.359-3.272,2.93-3.314c2.525-0.042,3.143,0.83,2.975,3.144
	c-0.18,2.479-0.002,4.979-0.052,7.472c-0.039,1.983,0.112,3.752,2.732,3.771c2.626,0.019,3.417-1.595,3.427-3.884
	c0.011-2.49,0.167-4.994-0.031-7.469c-0.208-2.585,1.028-2.944,3.229-3.012c2.321-0.072,2.813,0.861,2.688,2.905
	C347.907,58.014,348.017,60.346,348.017,62.671z"/>
<path fill="#FFFFFF" stroke="#000000" stroke-miterlimit="10" d="M254.794,70.23c0,2.453,0.006,4.441-0.002,6.433
	c-0.004,1.053-0.667,1.405-1.597,1.438c-1,0.032-1.563-0.453-1.564-1.457c-0.009-7.313-0.016-14.629,0.013-21.943
	c0.004-0.936,1.008-1.949,1.489-1.429c2.518,2.721,4.578-0.133,6.806-0.353c3.467-0.342,6.337,0.665,8.17,3.62
	c2.366,3.816,2.454,7.88,0.241,11.814c-1.838,3.269-4.798,4.256-8.458,3.897C258.145,72.083,256.898,70.982,254.794,70.23z
	 M260.1,69.206c4.26,0.003,5.913-2.298,6.054-5.974c0.141-3.687-0.885-6.707-5.144-7.182c-3.477-0.387-6.063,2.29-6.129,6.268
	C254.819,66.05,256.104,68.832,260.1,69.206z"/>
<path fill="#FFFFFF" stroke="#000000" stroke-miterlimit="10" d="M217.95,47.856c1.95-0.291,4.017,0.381,5.804,1.625
	c0.929,0.647,2.878,1.196,1.933,2.867c-0.869,1.537-2.251,1.467-3.628,0.138c-1.683-1.623-3.873-1.664-6.072-1.463
	c-1.675,0.152-2.894,0.954-3.187,2.615c-0.305,1.725,0.684,2.846,2.287,3.338c2.366,0.727,4.807,1.231,7.127,2.075
	c2.874,1.046,4.766,3.015,4.592,6.325c-0.166,3.163-1.883,5.443-4.807,6.279c-4.258,1.216-8.568,1.279-12.097-2.059
	c-0.646-0.611-2.47-1.139-1.217-2.631c0.957-1.14,2.102-1.475,3.334-0.102c1.808,2.016,4.201,2.477,6.795,2.23
	c2.163-0.203,3.945-0.979,4.211-3.4c0.255-2.316-1.419-3.133-3.28-3.65c-1.274-0.355-2.559-0.675-3.844-0.984
	c-3.993-0.963-7.528-2.627-6.803-7.52C209.794,48.847,213.443,47.738,217.95,47.856z"/>
<path fill="#FFFFFF" stroke="#000000" stroke-miterlimit="10" d="M282.875,72.316c-5.029,0.051-8.317-1.489-9.677-5.381
	c-1.498-4.283-1.338-8.672,2.348-11.929c3.195-2.823,7.02-2.871,10.708-0.907c3.115,1.659,4.649,4.739,3.941,7.947
	c-0.633,2.865-3.685,0.958-5.618,1.297c-1.615,0.282-3.333-0.068-4.979,0.102c-1.161,0.121-2.913-0.87-3.349,1.052
	c-0.323,1.425,0.782,2.491,1.795,3.351c2.333,1.976,4.916,1.692,7.451,0.49c1.163-0.552,2.371-1.813,3.306-0.104
	c1.116,2.037-0.901,2.535-2.137,3.048C285.162,71.904,283.507,72.154,282.875,72.316z M286.992,60.771
	c-0.803-3.385-2.533-5.026-5.629-4.903c-3.011,0.12-4.8,1.64-5.103,4.903C279.784,60.771,283.085,60.771,286.992,60.771z"/>
<path fill="#FFFFFF" stroke="#000000" stroke-miterlimit="10" d="M185.623,71.137c-5.622,0.004-9.28-3.603-9.438-9.302
	c-0.157-5.658,3.996-9.944,9.545-9.85c5.438,0.093,9.116,4.021,9.094,9.708C194.801,67.371,191.135,71.134,185.623,71.137z
	 M185.608,68.055c3.853-0.396,5.489-2.717,5.543-6.354c0.058-3.841-2.625-6.91-5.896-6.493c-3.739,0.476-5.342,2.92-5.246,6.611
	C180.107,65.501,181.734,67.747,185.608,68.055z"/>
<path fill="#FFFFFF" stroke="#000000" stroke-miterlimit="10" d="M94.525,64.214c-1.418-0.095-2.525-0.069-3.593-0.264
	c-1.425-0.259-1.361-1.944-0.908-2.271c2.012-1.455,4.455-0.676,6.69-0.605c2.534,0.076,1.413,2.273,1.268,3.439
	c-0.702,5.646-7.312,8.633-12.794,5.91c-4.636-2.301-6.419-8.822-3.794-13.877c2.217-4.268,8.113-5.944,12.536-3.427
	c1.168,0.665,3.281,1.351,2.502,3.067c-0.945,2.086-2.456,0.92-3.939-0.039c-3.315-2.144-6.089-1.062-7.939,2.17
	c-1.748,3.051-0.509,8.025,2.354,9.182C90.101,68.789,93.002,68.509,94.525,64.214z"/>
<path fill="#FFFFFF" stroke="#000000" stroke-miterlimit="10" d="M246.402,63.003c0,1.16,0,2.321,0,3.481
	c-0.001,3.869-0.001,3.858-3.975,3.973c-0.289,0.008-0.549,0.377-0.855,0.477c-8.437,2.739-10.957,0.969-10.974-7.701
	c-0.005-2.487-0.023-4.976,0.013-7.461c0.017-1.115-0.209-2.499,1.539-2.535c1.703-0.035,1.662,1.253,1.667,2.432
	c0.012,2.818,0.013,5.639,0.006,8.456c-0.006,2.722,0.466,5.11,3.949,5.017c3.071-0.086,5.041-1.597,5.23-4.798
	c0.166-2.809,0.104-5.631,0.185-8.446c0.032-1.101-0.281-2.541,1.435-2.65c2.127-0.135,1.735,1.549,1.764,2.793
	C246.439,58.359,246.401,60.682,246.402,63.003z"/>
<path fill="#FFFFFF" stroke="#000000" stroke-miterlimit="10" d="M154.863,61.479c0-0.5-0.165-1.074,0.026-1.485
	c1.16-2.494-2.741-6.823,2.318-7.729c7.256-1.299,12.681,1.541,13.838,6.589c1.23,5.365-0.802,9.787-5.305,11.526
	c-3.067,1.185-6.261,0.487-9.398,0.595c-1.84,0.063-1.448-1.426-1.467-2.504C154.835,66.143,154.864,63.811,154.863,61.479z
	 M161.017,55.398c-2.071-0.318-3.088,0.579-2.914,3.021c0.164,2.292,0.115,4.608,0.013,6.907c-0.085,1.904,0.635,2.52,2.564,2.59
	c4.149,0.15,6.882-1.884,7.172-5.709C168.161,58.15,165.548,55.451,161.017,55.398z"/>
<path fill="#FFFFFF" stroke="#000000" stroke-miterlimit="10" d="M149.266,69.716c0.232,0.894-0.212,1.196-0.98,1.259
	c-1.172,0.094-2.121,0.058-2.963-1.16c-3.582-5.184-6.682-5.25-9.962-0.053c-1.024,1.621-2.205,1.459-3.289,1.047
	c-1.358-0.517-0.234-1.73,0.024-2.424c1.724-4.626,3.643-9.178,5.412-13.787c0.582-1.515,1.219-2.577,3.132-2.456
	c1.678,0.106,2.142,1.096,2.649,2.427C145.222,59.641,147.264,64.671,149.266,69.716z M142.813,62.707
	c-0.827-1.963-0.917-4.189-2.865-6.132c-0.329,2.375-2.519,4.157-1.386,6.196C139.136,63.803,141.277,63.338,142.813,62.707z"/>
<path fill="#FFFFFF" stroke="#000000" stroke-miterlimit="10" d="M56.895,66.441c1.818-4.916,3.192-8.58,4.524-12.257
	c0.497-1.373,1.233-2.514,2.85-1.929c2.01,0.729,0.716,2.179,0.346,3.215c-1.552,4.348-3.208,8.662-4.875,12.967
	c-0.509,1.313-0.751,2.763-2.902,2.658c-1.809-0.087-2.205-1.207-2.662-2.392c-1.777-4.612-3.523-9.238-5.174-13.896
	c-0.265-0.749-1.37-1.946,0.056-2.478c1.214-0.453,2.584-0.399,3.189,1.352C53.583,57.551,55.04,61.376,56.895,66.441z"/>
<path fill="#FFFFFF" stroke="#000000" stroke-miterlimit="10" d="M400.016,62.434c0.001,2.164-0.032,4.33,0.013,6.492
	c0.034,1.729,0.202,3.188-2.429,3.176c-2.438-0.011-3.134-0.776-3.045-3.143c0.168-4.488,0.167-8.992,0.002-13.481
	c-0.088-2.408,1.079-2.621,3.016-2.669c2.043-0.051,2.565,0.774,2.473,2.634C399.927,57.768,400.016,60.104,400.016,62.434z"/>
<path fill="#FFFFFF" stroke="#000000" stroke-miterlimit="10" d="M426.983,62.07c0-1.997,0.095-4-0.025-5.991
	c-0.127-2.104,0.116-3.395,2.834-3.303c2.376,0.081,2.673,1.12,2.634,3.062c-0.091,4.493-0.146,8.994,0.021,13.482
	c0.085,2.302-0.845,2.695-2.904,2.77c-2.468,0.09-2.666-1.124-2.582-3.027C427.063,66.736,426.983,64.402,426.983,62.07z"/>
<path fill="#FFFFFF" stroke="#000000" stroke-miterlimit="10" d="M293.984,62.289c-0.001-1.666-0.137-3.348,0.035-4.995
	c0.199-1.91-1.284-6.335,3.461-2.512c0.577,0.464,2.767-1.396,4.304-1.698c1.058-0.208,2.974-0.833,3.116,1.268
	c0.105,1.554-0.756,2.125-2.557,1.99c-3.398-0.252-4.557,2.32-4.893,5.092c-0.339,2.795-0.231,5.644-0.318,8.469
	c-0.03,0.986,0.079,1.998-1.391,2.109c-1.781,0.137-1.77-0.996-1.763-2.224C293.995,67.288,293.985,64.789,293.984,62.289z"/>
<path fill="#FFFFFF" stroke="#000000" stroke-miterlimit="10" d="M120.376,71.018c-4.781,1.521-6.115-1.102-5.583-6.164
	c0.362-3.445,0.067-6.959,0.079-10.442c0.004-1.225,0.107-2.384,1.836-2.198c1.443,0.155,1.282,1.27,1.292,2.207
	c0.034,3.318,0.199,6.648-0.038,9.949c-0.206,2.875,0.863,3.529,3.611,3.629c2.109,0.076,6.081-1.74,6.11,1.406
	c0.03,3.334-3.968,0.793-6.006,1.605C121.533,71.066,121.348,71.018,120.376,71.018z"/>
<path fill="#FFFFFF" stroke="#000000" stroke-miterlimit="10" d="M103.986,61.424c0.001-2.322-0.015-4.646,0.007-6.968
	c0.011-1.148-0.109-2.386,1.708-2.272c1.313,0.082,1.675,0.848,1.678,1.946c0.015,4.978,0.007,9.955,0.017,14.931
	c0.002,1.102-0.258,1.854-1.592,1.965c-1.722,0.144-1.847-0.848-1.83-2.137C104.009,66.4,103.985,63.912,103.986,61.424z"/>
<path fill="#FFFFFF" stroke="#000000" stroke-miterlimit="10" d="M74.13,61.992c0.004,2.333,0.004,4.665,0.003,6.997
	c0,1.034-0.055,1.974-1.486,2.026c-1.273,0.047-1.792-0.492-1.786-1.732c0.025-5.164,0.009-10.328,0.046-15.491
	c0.006-0.879,0.368-1.536,1.445-1.604c1.358-0.085,1.755,0.684,1.765,1.808C74.143,56.661,74.126,59.327,74.13,61.992z"/>
<path fill="#FFFFFF" stroke="#000000" stroke-miterlimit="10" d="M400.008,48.584c0.195,1.554-0.391,2.431-2.193,2.249
	c-1.392-0.139-3.136,0.508-3.226-1.916c-0.063-1.695,0.559-2.513,2.295-2.316C398.212,46.751,400.127,45.944,400.008,48.584z"/>
<path fill="#FFFFFF" stroke="#000000" stroke-miterlimit="10" d="M432.39,48.819c-0.011,2.548-1.834,1.866-3.215,2.013
	c-1.828,0.196-2.221-0.742-2.216-2.355c0.008-2.549,1.848-1.727,3.171-1.874C431.865,46.41,432.589,47.23,432.39,48.819z"/>
</svg>
